<svg xmlns="http://www.w3.org/2000/svg" xmlns:xlink="http://www.w3.org/1999/xlink" width="6912" zoomAndPan="magnify" viewBox="0 0 5184 2592.000001" height="3456" preserveAspectRatio="xMidYMid meet" version="1.0"><defs><filter x="0%" y="0%" width="100%" xlink:type="simple" xlink:actuate="onLoad" height="100%" id="id1" xlink:show="other"><feColorMatrix values="0 0 0 0 1 0 0 0 0 1 0 0 0 0 1 0 0 0 1 0" color-interpolation-filters="sRGB"/></filter><g><g id="id2"/><g id="id3"/><g id="id4"/><g id="id5"/><g id="id6"/></g><clipPath id="id7"><path d="M 1 0 L 5183 0 L 5183 2591 L 1 2591 Z M 1 0 " clip-rule="nonzero"/></clipPath><clipPath id="id8"><path d="M 2431.90625 206.707031 L 4636.804688 206.707031 L 4636.804688 2411.605469 L 2431.90625 2411.605469 Z M 2431.90625 206.707031 " clip-rule="nonzero"/></clipPath><mask id="id9"><g filter="url(#id1)"><rect x="-518.4" width="6220.8" fill="rgb(0%, 0%, 0%)" y="-259.2" height="3110.400001" fill-opacity="0.349"/></g></mask><clipPath id="id10"><path d="M 2.847656 1877 L 54 1877 L 54 1927.917969 L 2.847656 1927.917969 Z M 2.847656 1877 " clip-rule="nonzero"/></clipPath><clipPath id="id11"><path d="M 146 1877 L 198 1877 L 198 1927.917969 L 146 1927.917969 Z M 146 1877 " clip-rule="nonzero"/></clipPath><clipPath id="id12"><path d="M 291 1877 L 342 1877 L 342 1927.917969 L 291 1927.917969 Z M 291 1877 " clip-rule="nonzero"/></clipPath><clipPath id="id13"><path d="M 435 1877 L 486 1877 L 486 1927.917969 L 435 1927.917969 Z M 435 1877 " clip-rule="nonzero"/></clipPath><clipPath id="id14"><path d="M 579 1877 L 630 1877 L 630 1927.917969 L 579 1927.917969 Z M 579 1877 " clip-rule="nonzero"/></clipPath><clipPath id="id15"><path d="M 723 1877 L 775 1877 L 775 1927.917969 L 723 1927.917969 Z M 723 1877 " clip-rule="nonzero"/></clipPath><clipPath id="id16"><path d="M 867 1877 L 919 1877 L 919 1927.917969 L 867 1927.917969 Z M 867 1877 " clip-rule="nonzero"/></clipPath><clipPath id="id17"><path d="M 1011 1877 L 1063 1877 L 1063 1927.917969 L 1011 1927.917969 Z M 1011 1877 " clip-rule="nonzero"/></clipPath><clipPath id="id18"><path d="M 1156 1877 L 1207 1877 L 1207 1927.917969 L 1156 1927.917969 Z M 1156 1877 " clip-rule="nonzero"/></clipPath><clipPath id="id19"><path d="M 1300 1877 L 1351 1877 L 1351 1927.917969 L 1300 1927.917969 Z M 1300 1877 " clip-rule="nonzero"/></clipPath><clipPath id="id20"><path d="M 1444 1877 L 1495 1877 L 1495 1927.917969 L 1444 1927.917969 Z M 1444 1877 " clip-rule="nonzero"/></clipPath><clipPath id="id21"><path d="M 1588 1877 L 1640 1877 L 1640 1927.917969 L 1588 1927.917969 Z M 1588 1877 " clip-rule="nonzero"/></clipPath><clipPath id="id22"><path d="M 1732 1877 L 1784 1877 L 1784 1927.917969 L 1732 1927.917969 Z M 1732 1877 " clip-rule="nonzero"/></clipPath><clipPath id="id23"><path d="M 1876 1877 L 1927.355469 1877 L 1927.355469 1927.917969 L 1876 1927.917969 Z M 1876 1877 " clip-rule="nonzero"/></clipPath><clipPath id="id24"><path d="M 2.847656 1733 L 54 1733 L 54 1784 L 2.847656 1784 Z M 2.847656 1733 " clip-rule="nonzero"/></clipPath><clipPath id="id25"><path d="M 2.847656 1589 L 54 1589 L 54 1640 L 2.847656 1640 Z M 2.847656 1589 " clip-rule="nonzero"/></clipPath><clipPath id="id26"><path d="M 2.847656 1445 L 54 1445 L 54 1496 L 2.847656 1496 Z M 2.847656 1445 " clip-rule="nonzero"/></clipPath><clipPath id="id27"><path d="M 2.847656 1300 L 54 1300 L 54 1352 L 2.847656 1352 Z M 2.847656 1300 " clip-rule="nonzero"/></clipPath><clipPath id="id28"><path d="M 2.847656 1156 L 54 1156 L 54 1208 L 2.847656 1208 Z M 2.847656 1156 " clip-rule="nonzero"/></clipPath><clipPath id="id29"><path d="M 2.847656 1012 L 54 1012 L 54 1063 L 2.847656 1063 Z M 2.847656 1012 " clip-rule="nonzero"/></clipPath><clipPath id="id30"><path d="M 2.847656 868 L 54 868 L 54 919 L 2.847656 919 Z M 2.847656 868 " clip-rule="nonzero"/></clipPath><clipPath id="id31"><path d="M 2.847656 724 L 54 724 L 54 775 L 2.847656 775 Z M 2.847656 724 " clip-rule="nonzero"/></clipPath><clipPath id="id32"><path d="M 2.847656 580 L 54 580 L 54 631 L 2.847656 631 Z M 2.847656 580 " clip-rule="nonzero"/></clipPath><clipPath id="id33"><path d="M 2.847656 435 L 54 435 L 54 487 L 2.847656 487 Z M 2.847656 435 " clip-rule="nonzero"/></clipPath><clipPath id="id34"><path d="M 2.847656 291 L 54 291 L 54 343 L 2.847656 343 Z M 2.847656 291 " clip-rule="nonzero"/></clipPath><clipPath id="id35"><path d="M 2.847656 147 L 54 147 L 54 198 L 2.847656 198 Z M 2.847656 147 " clip-rule="nonzero"/></clipPath><clipPath id="id36"><path d="M 2.847656 3.410156 L 54 3.410156 L 54 54 L 2.847656 54 Z M 2.847656 3.410156 " clip-rule="nonzero"/></clipPath><clipPath id="id37"><rect x="0" width="1931" y="0" height="1931"/></clipPath><clipPath id="id38"><path d="M 956 865 L 1293 865 L 1293 1508.230469 L 956 1508.230469 Z M 956 865 " clip-rule="nonzero"/></clipPath><clipPath id="id39"><path d="M 1874 865 L 2212 865 L 2212 1508.230469 L 1874 1508.230469 Z M 1874 865 " clip-rule="nonzero"/></clipPath></defs><g clip-path="url(#id7)"><path fill="rgb(100%, 100%, 100%)" d="M 1 0 L 5183 0 L 5183 2598.496094 L 1 2598.496094 Z M 1 0 " fill-opacity="1" fill-rule="nonzero"/></g><path fill="rgb(100%, 100%, 100%)" d="M 1 0 L 5183 0 L 5183 2591 L 1 2591 Z M 1 0 " fill-opacity="1" fill-rule="nonzero"/><path fill="rgb(100%, 100%, 100%)" d="M 1 0 L 5183 0 L 5183 2591 L 1 2591 Z M 1 0 " fill-opacity="1" fill-rule="nonzero"/><path fill="rgb(100%, 100%, 100%)" d="M 1 0 L 5183 0 L 5183 2591 L 1 2591 Z M 1 0 " fill-opacity="1" fill-rule="nonzero"/><g clip-path="url(#id8)"><path fill="rgb(53.329468%, 100%, 100%)" d="M 2431.90625 206.707031 L 2431.90625 2411.605469 L 4636.804688 2411.605469 L 4636.804688 206.707031 Z M 4611.890625 2386.691406 L 2456.820312 2386.691406 L 2456.820312 231.621094 L 4611.890625 231.621094 Z M 4611.890625 2386.691406 " fill-opacity="1" fill-rule="nonzero"/></g><path fill="rgb(53.329468%, 100%, 100%)" d="M 604.640625 238.59375 L 2611.265625 238.59375 L 2611.265625 2404.898438 L 604.640625 2404.898438 L 604.640625 238.59375 " fill-opacity="1" fill-rule="nonzero"/><path fill="rgb(53.329468%, 100%, 100%)" d="M 2619.996094 2411.882812 L 595.914062 2411.882812 L 595.914062 228.121094 L 2619.996094 228.121094 L 2619.996094 2411.882812 M 613.367188 2394.425781 L 2602.539062 2394.425781 L 2602.539062 245.578125 L 613.367188 245.578125 L 613.367188 2394.425781 " fill-opacity="1" fill-rule="nonzero"/><path fill="rgb(96.469116%, 50.979614%, 78.42865%)" d="M 547.042969 179.246094 L 2553.671875 179.246094 L 2553.671875 2345.546875 L 547.042969 2345.546875 L 547.042969 179.246094 " fill-opacity="1" fill-rule="nonzero"/><g mask="url(#id9)"><g transform="matrix(1, 0, 0, 1, 584, 366)"><g clip-path="url(#id37)"><g clip-path="url(#id10)"><path fill="rgb(70.588684%, 32.548523%, 55.688477%)" d="M 53.246094 1902.75 C 53.246094 1916.683594 41.949219 1927.980469 28.015625 1927.980469 C 14.082031 1927.980469 2.785156 1916.683594 2.785156 1902.75 C 2.785156 1888.816406 14.082031 1877.519531 28.015625 1877.519531 C 41.949219 1877.519531 53.246094 1888.816406 53.246094 1902.75 " fill-opacity="1" fill-rule="nonzero"/></g><g clip-path="url(#id11)"><path fill="rgb(70.588684%, 32.548523%, 55.688477%)" d="M 197.40625 1902.75 C 197.40625 1916.683594 186.113281 1927.980469 172.175781 1927.980469 C 158.253906 1927.980469 146.957031 1916.683594 146.957031 1902.75 C 146.957031 1888.816406 158.253906 1877.519531 172.175781 1877.519531 C 186.113281 1877.519531 197.40625 1888.816406 197.40625 1902.75 " fill-opacity="1" fill-rule="nonzero"/></g><g clip-path="url(#id12)"><path fill="rgb(70.588684%, 32.548523%, 55.688477%)" d="M 341.582031 1902.75 C 341.582031 1916.683594 330.285156 1927.980469 316.351562 1927.980469 C 302.417969 1927.980469 291.121094 1916.683594 291.121094 1902.75 C 291.121094 1888.816406 302.417969 1877.519531 316.351562 1877.519531 C 330.285156 1877.519531 341.582031 1888.816406 341.582031 1902.75 " fill-opacity="1" fill-rule="nonzero"/></g><g clip-path="url(#id13)"><path fill="rgb(70.588684%, 32.548523%, 55.688477%)" d="M 485.742188 1902.75 C 485.742188 1916.683594 474.445312 1927.980469 460.511719 1927.980469 C 446.578125 1927.980469 435.292969 1916.683594 435.292969 1902.75 C 435.292969 1888.816406 446.578125 1877.519531 460.511719 1877.519531 C 474.445312 1877.519531 485.742188 1888.816406 485.742188 1902.75 " fill-opacity="1" fill-rule="nonzero"/></g><g clip-path="url(#id14)"><path fill="rgb(70.588684%, 32.548523%, 55.688477%)" d="M 629.914062 1902.75 C 629.914062 1916.683594 618.621094 1927.980469 604.683594 1927.980469 C 590.75 1927.980469 579.457031 1916.683594 579.457031 1902.75 C 579.457031 1888.816406 590.75 1877.519531 604.683594 1877.519531 C 618.621094 1877.519531 629.914062 1888.816406 629.914062 1902.75 " fill-opacity="1" fill-rule="nonzero"/></g><g clip-path="url(#id15)"><path fill="rgb(70.588684%, 32.548523%, 55.688477%)" d="M 774.078125 1902.75 C 774.078125 1916.683594 762.78125 1927.980469 748.847656 1927.980469 C 734.914062 1927.980469 723.617188 1916.683594 723.617188 1902.75 C 723.617188 1888.816406 734.914062 1877.519531 748.847656 1877.519531 C 762.78125 1877.519531 774.078125 1888.816406 774.078125 1902.75 " fill-opacity="1" fill-rule="nonzero"/></g><g clip-path="url(#id16)"><path fill="rgb(70.588684%, 32.548523%, 55.688477%)" d="M 918.25 1902.75 C 918.25 1916.683594 906.953125 1927.980469 893.019531 1927.980469 C 879.085938 1927.980469 867.789062 1916.683594 867.789062 1902.75 C 867.789062 1888.816406 879.085938 1877.519531 893.019531 1877.519531 C 906.953125 1877.519531 918.25 1888.816406 918.25 1902.75 " fill-opacity="1" fill-rule="nonzero"/></g><g clip-path="url(#id17)"><path fill="rgb(70.588684%, 32.548523%, 55.688477%)" d="M 1062.410156 1902.75 C 1062.410156 1916.683594 1051.117188 1927.980469 1037.183594 1927.980469 C 1023.246094 1927.980469 1011.953125 1916.683594 1011.953125 1902.75 C 1011.953125 1888.816406 1023.246094 1877.519531 1037.183594 1877.519531 C 1051.117188 1877.519531 1062.410156 1888.816406 1062.410156 1902.75 " fill-opacity="1" fill-rule="nonzero"/></g><g clip-path="url(#id18)"><path fill="rgb(70.588684%, 32.548523%, 55.688477%)" d="M 1206.585938 1902.75 C 1206.585938 1916.683594 1195.289062 1927.980469 1181.355469 1927.980469 C 1167.421875 1927.980469 1156.125 1916.683594 1156.125 1902.75 C 1156.125 1888.816406 1167.421875 1877.519531 1181.355469 1877.519531 C 1195.289062 1877.519531 1206.585938 1888.816406 1206.585938 1902.75 " fill-opacity="1" fill-rule="nonzero"/></g><g clip-path="url(#id19)"><path fill="rgb(70.588684%, 32.548523%, 55.688477%)" d="M 1350.746094 1902.75 C 1350.746094 1916.683594 1339.449219 1927.980469 1325.515625 1927.980469 C 1311.582031 1927.980469 1300.285156 1916.683594 1300.285156 1902.75 C 1300.285156 1888.816406 1311.582031 1877.519531 1325.515625 1877.519531 C 1339.449219 1877.519531 1350.746094 1888.816406 1350.746094 1902.75 " fill-opacity="1" fill-rule="nonzero"/></g><g clip-path="url(#id20)"><path fill="rgb(70.588684%, 32.548523%, 55.688477%)" d="M 1494.910156 1902.75 C 1494.910156 1916.683594 1483.625 1927.980469 1469.691406 1927.980469 C 1455.753906 1927.980469 1444.460938 1916.683594 1444.460938 1902.75 C 1444.460938 1888.816406 1455.753906 1877.519531 1469.691406 1877.519531 C 1483.625 1877.519531 1494.910156 1888.816406 1494.910156 1902.75 " fill-opacity="1" fill-rule="nonzero"/></g><g clip-path="url(#id21)"><path fill="rgb(70.588684%, 32.548523%, 55.688477%)" d="M 1639.082031 1902.75 C 1639.082031 1916.683594 1627.785156 1927.980469 1613.851562 1927.980469 C 1599.917969 1927.980469 1588.621094 1916.683594 1588.621094 1902.75 C 1588.621094 1888.816406 1599.917969 1877.519531 1613.851562 1877.519531 C 1627.785156 1877.519531 1639.082031 1888.816406 1639.082031 1902.75 " fill-opacity="1" fill-rule="nonzero"/></g><g clip-path="url(#id22)"><path fill="rgb(70.588684%, 32.548523%, 55.688477%)" d="M 1783.242188 1902.75 C 1783.242188 1916.683594 1771.949219 1927.980469 1758.023438 1927.980469 C 1744.089844 1927.980469 1732.792969 1916.683594 1732.792969 1902.75 C 1732.792969 1888.816406 1744.089844 1877.519531 1758.023438 1877.519531 C 1771.949219 1877.519531 1783.242188 1888.816406 1783.242188 1902.75 " fill-opacity="1" fill-rule="nonzero"/></g><g clip-path="url(#id23)"><path fill="rgb(70.588684%, 32.548523%, 55.688477%)" d="M 1927.417969 1902.75 C 1927.417969 1916.683594 1916.121094 1927.980469 1902.1875 1927.980469 C 1888.253906 1927.980469 1876.957031 1916.683594 1876.957031 1902.75 C 1876.957031 1888.816406 1888.253906 1877.519531 1902.1875 1877.519531 C 1916.121094 1877.519531 1927.417969 1888.816406 1927.417969 1902.75 " fill-opacity="1" fill-rule="nonzero"/></g><g clip-path="url(#id24)"><path fill="rgb(70.588684%, 32.548523%, 55.688477%)" d="M 53.246094 1758.589844 C 53.246094 1772.511719 41.949219 1783.808594 28.015625 1783.808594 C 14.082031 1783.808594 2.785156 1772.511719 2.785156 1758.589844 C 2.785156 1744.652344 14.082031 1733.359375 28.015625 1733.359375 C 41.949219 1733.359375 53.246094 1744.652344 53.246094 1758.589844 " fill-opacity="1" fill-rule="nonzero"/></g><path fill="rgb(70.588684%, 32.548523%, 55.688477%)" d="M 197.40625 1758.589844 C 197.40625 1772.511719 186.113281 1783.808594 172.175781 1783.808594 C 158.253906 1783.808594 146.957031 1772.511719 146.957031 1758.589844 C 146.957031 1744.652344 158.253906 1733.359375 172.175781 1733.359375 C 186.113281 1733.359375 197.40625 1744.652344 197.40625 1758.589844 " fill-opacity="1" fill-rule="nonzero"/><path fill="rgb(70.588684%, 32.548523%, 55.688477%)" d="M 341.582031 1758.589844 C 341.582031 1772.511719 330.285156 1783.808594 316.351562 1783.808594 C 302.417969 1783.808594 291.121094 1772.511719 291.121094 1758.589844 C 291.121094 1744.652344 302.417969 1733.359375 316.351562 1733.359375 C 330.285156 1733.359375 341.582031 1744.652344 341.582031 1758.589844 " fill-opacity="1" fill-rule="nonzero"/><path fill="rgb(70.588684%, 32.548523%, 55.688477%)" d="M 485.742188 1758.589844 C 485.742188 1772.511719 474.445312 1783.808594 460.511719 1783.808594 C 446.578125 1783.808594 435.292969 1772.511719 435.292969 1758.589844 C 435.292969 1744.652344 446.578125 1733.359375 460.511719 1733.359375 C 474.445312 1733.359375 485.742188 1744.652344 485.742188 1758.589844 " fill-opacity="1" fill-rule="nonzero"/><path fill="rgb(70.588684%, 32.548523%, 55.688477%)" d="M 629.914062 1758.589844 C 629.914062 1772.511719 618.621094 1783.808594 604.683594 1783.808594 C 590.75 1783.808594 579.457031 1772.511719 579.457031 1758.589844 C 579.457031 1744.652344 590.75 1733.359375 604.683594 1733.359375 C 618.621094 1733.359375 629.914062 1744.652344 629.914062 1758.589844 " fill-opacity="1" fill-rule="nonzero"/><path fill="rgb(70.588684%, 32.548523%, 55.688477%)" d="M 774.078125 1758.589844 C 774.078125 1772.511719 762.78125 1783.808594 748.847656 1783.808594 C 734.914062 1783.808594 723.617188 1772.511719 723.617188 1758.589844 C 723.617188 1744.652344 734.914062 1733.359375 748.847656 1733.359375 C 762.78125 1733.359375 774.078125 1744.652344 774.078125 1758.589844 " fill-opacity="1" fill-rule="nonzero"/><path fill="rgb(70.588684%, 32.548523%, 55.688477%)" d="M 918.25 1758.589844 C 918.25 1772.511719 906.953125 1783.808594 893.019531 1783.808594 C 879.085938 1783.808594 867.789062 1772.511719 867.789062 1758.589844 C 867.789062 1744.652344 879.085938 1733.359375 893.019531 1733.359375 C 906.953125 1733.359375 918.25 1744.652344 918.25 1758.589844 " fill-opacity="1" fill-rule="nonzero"/><path fill="rgb(70.588684%, 32.548523%, 55.688477%)" d="M 1062.410156 1758.589844 C 1062.410156 1772.511719 1051.117188 1783.808594 1037.183594 1783.808594 C 1023.246094 1783.808594 1011.953125 1772.511719 1011.953125 1758.589844 C 1011.953125 1744.652344 1023.246094 1733.359375 1037.183594 1733.359375 C 1051.117188 1733.359375 1062.410156 1744.652344 1062.410156 1758.589844 " fill-opacity="1" fill-rule="nonzero"/><path fill="rgb(70.588684%, 32.548523%, 55.688477%)" d="M 1206.585938 1758.589844 C 1206.585938 1772.511719 1195.289062 1783.808594 1181.355469 1783.808594 C 1167.421875 1783.808594 1156.125 1772.511719 1156.125 1758.589844 C 1156.125 1744.652344 1167.421875 1733.359375 1181.355469 1733.359375 C 1195.289062 1733.359375 1206.585938 1744.652344 1206.585938 1758.589844 " fill-opacity="1" fill-rule="nonzero"/><path fill="rgb(70.588684%, 32.548523%, 55.688477%)" d="M 1350.746094 1758.589844 C 1350.746094 1772.511719 1339.449219 1783.808594 1325.515625 1783.808594 C 1311.582031 1783.808594 1300.285156 1772.511719 1300.285156 1758.589844 C 1300.285156 1744.652344 1311.582031 1733.359375 1325.515625 1733.359375 C 1339.449219 1733.359375 1350.746094 1744.652344 1350.746094 1758.589844 " fill-opacity="1" fill-rule="nonzero"/><path fill="rgb(70.588684%, 32.548523%, 55.688477%)" d="M 1494.910156 1758.589844 C 1494.910156 1772.511719 1483.625 1783.808594 1469.691406 1783.808594 C 1455.753906 1783.808594 1444.460938 1772.511719 1444.460938 1758.589844 C 1444.460938 1744.652344 1455.753906 1733.359375 1469.691406 1733.359375 C 1483.625 1733.359375 1494.910156 1744.652344 1494.910156 1758.589844 " fill-opacity="1" fill-rule="nonzero"/><path fill="rgb(70.588684%, 32.548523%, 55.688477%)" d="M 1639.082031 1758.589844 C 1639.082031 1772.511719 1627.785156 1783.808594 1613.851562 1783.808594 C 1599.917969 1783.808594 1588.621094 1772.511719 1588.621094 1758.589844 C 1588.621094 1744.652344 1599.917969 1733.359375 1613.851562 1733.359375 C 1627.785156 1733.359375 1639.082031 1744.652344 1639.082031 1758.589844 " fill-opacity="1" fill-rule="nonzero"/><path fill="rgb(70.588684%, 32.548523%, 55.688477%)" d="M 1783.242188 1758.589844 C 1783.242188 1772.511719 1771.949219 1783.808594 1758.023438 1783.808594 C 1744.089844 1783.808594 1732.792969 1772.511719 1732.792969 1758.589844 C 1732.792969 1744.652344 1744.089844 1733.359375 1758.023438 1733.359375 C 1771.949219 1733.359375 1783.242188 1744.652344 1783.242188 1758.589844 " fill-opacity="1" fill-rule="nonzero"/><g clip-path="url(#id25)"><path fill="rgb(70.588684%, 32.548523%, 55.688477%)" d="M 53.246094 1614.414062 C 53.246094 1628.347656 41.949219 1639.644531 28.015625 1639.644531 C 14.082031 1639.644531 2.785156 1628.347656 2.785156 1614.414062 C 2.785156 1600.480469 14.082031 1589.183594 28.015625 1589.183594 C 41.949219 1589.183594 53.246094 1600.480469 53.246094 1614.414062 " fill-opacity="1" fill-rule="nonzero"/></g><path fill="rgb(70.588684%, 32.548523%, 55.688477%)" d="M 197.40625 1614.414062 C 197.40625 1628.347656 186.113281 1639.644531 172.175781 1639.644531 C 158.253906 1639.644531 146.957031 1628.347656 146.957031 1614.414062 C 146.957031 1600.480469 158.253906 1589.183594 172.175781 1589.183594 C 186.113281 1589.183594 197.40625 1600.480469 197.40625 1614.414062 " fill-opacity="1" fill-rule="nonzero"/><path fill="rgb(70.588684%, 32.548523%, 55.688477%)" d="M 341.582031 1614.414062 C 341.582031 1628.347656 330.285156 1639.644531 316.351562 1639.644531 C 302.417969 1639.644531 291.121094 1628.347656 291.121094 1614.414062 C 291.121094 1600.480469 302.417969 1589.183594 316.351562 1589.183594 C 330.285156 1589.183594 341.582031 1600.480469 341.582031 1614.414062 " fill-opacity="1" fill-rule="nonzero"/><path fill="rgb(70.588684%, 32.548523%, 55.688477%)" d="M 485.742188 1614.414062 C 485.742188 1628.347656 474.445312 1639.644531 460.511719 1639.644531 C 446.578125 1639.644531 435.292969 1628.347656 435.292969 1614.414062 C 435.292969 1600.480469 446.578125 1589.183594 460.511719 1589.183594 C 474.445312 1589.183594 485.742188 1600.480469 485.742188 1614.414062 " fill-opacity="1" fill-rule="nonzero"/><path fill="rgb(70.588684%, 32.548523%, 55.688477%)" d="M 629.914062 1614.414062 C 629.914062 1628.347656 618.621094 1639.644531 604.683594 1639.644531 C 590.75 1639.644531 579.457031 1628.347656 579.457031 1614.414062 C 579.457031 1600.480469 590.75 1589.183594 604.683594 1589.183594 C 618.621094 1589.183594 629.914062 1600.480469 629.914062 1614.414062 " fill-opacity="1" fill-rule="nonzero"/><path fill="rgb(70.588684%, 32.548523%, 55.688477%)" d="M 774.078125 1614.414062 C 774.078125 1628.347656 762.78125 1639.644531 748.847656 1639.644531 C 734.914062 1639.644531 723.617188 1628.347656 723.617188 1614.414062 C 723.617188 1600.480469 734.914062 1589.183594 748.847656 1589.183594 C 762.78125 1589.183594 774.078125 1600.480469 774.078125 1614.414062 " fill-opacity="1" fill-rule="nonzero"/><path fill="rgb(70.588684%, 32.548523%, 55.688477%)" d="M 918.25 1614.414062 C 918.25 1628.347656 906.953125 1639.644531 893.019531 1639.644531 C 879.085938 1639.644531 867.789062 1628.347656 867.789062 1614.414062 C 867.789062 1600.480469 879.085938 1589.183594 893.019531 1589.183594 C 906.953125 1589.183594 918.25 1600.480469 918.25 1614.414062 " fill-opacity="1" fill-rule="nonzero"/><path fill="rgb(70.588684%, 32.548523%, 55.688477%)" d="M 1062.410156 1614.414062 C 1062.410156 1628.347656 1051.117188 1639.644531 1037.183594 1639.644531 C 1023.246094 1639.644531 1011.953125 1628.347656 1011.953125 1614.414062 C 1011.953125 1600.480469 1023.246094 1589.183594 1037.183594 1589.183594 C 1051.117188 1589.183594 1062.410156 1600.480469 1062.410156 1614.414062 " fill-opacity="1" fill-rule="nonzero"/><path fill="rgb(70.588684%, 32.548523%, 55.688477%)" d="M 1206.585938 1614.414062 C 1206.585938 1628.347656 1195.289062 1639.644531 1181.355469 1639.644531 C 1167.421875 1639.644531 1156.125 1628.347656 1156.125 1614.414062 C 1156.125 1600.480469 1167.421875 1589.183594 1181.355469 1589.183594 C 1195.289062 1589.183594 1206.585938 1600.480469 1206.585938 1614.414062 " fill-opacity="1" fill-rule="nonzero"/><path fill="rgb(70.588684%, 32.548523%, 55.688477%)" d="M 1350.746094 1614.414062 C 1350.746094 1628.347656 1339.449219 1639.644531 1325.515625 1639.644531 C 1311.582031 1639.644531 1300.285156 1628.347656 1300.285156 1614.414062 C 1300.285156 1600.480469 1311.582031 1589.183594 1325.515625 1589.183594 C 1339.449219 1589.183594 1350.746094 1600.480469 1350.746094 1614.414062 " fill-opacity="1" fill-rule="nonzero"/><path fill="rgb(70.588684%, 32.548523%, 55.688477%)" d="M 1494.910156 1614.414062 C 1494.910156 1628.347656 1483.625 1639.644531 1469.691406 1639.644531 C 1455.753906 1639.644531 1444.460938 1628.347656 1444.460938 1614.414062 C 1444.460938 1600.480469 1455.753906 1589.183594 1469.691406 1589.183594 C 1483.625 1589.183594 1494.910156 1600.480469 1494.910156 1614.414062 " fill-opacity="1" fill-rule="nonzero"/><path fill="rgb(70.588684%, 32.548523%, 55.688477%)" d="M 1639.082031 1614.414062 C 1639.082031 1628.347656 1627.785156 1639.644531 1613.851562 1639.644531 C 1599.917969 1639.644531 1588.621094 1628.347656 1588.621094 1614.414062 C 1588.621094 1600.480469 1599.917969 1589.183594 1613.851562 1589.183594 C 1627.785156 1589.183594 1639.082031 1600.480469 1639.082031 1614.414062 " fill-opacity="1" fill-rule="nonzero"/><g clip-path="url(#id26)"><path fill="rgb(70.588684%, 32.548523%, 55.688477%)" d="M 53.246094 1470.253906 C 53.246094 1484.1875 41.949219 1495.472656 28.015625 1495.472656 C 14.082031 1495.472656 2.785156 1484.1875 2.785156 1470.253906 C 2.785156 1456.320312 14.082031 1445.023438 28.015625 1445.023438 C 41.949219 1445.023438 53.246094 1456.320312 53.246094 1470.253906 " fill-opacity="1" fill-rule="nonzero"/></g><path fill="rgb(70.588684%, 32.548523%, 55.688477%)" d="M 197.40625 1470.253906 C 197.40625 1484.1875 186.113281 1495.472656 172.175781 1495.472656 C 158.253906 1495.472656 146.957031 1484.1875 146.957031 1470.253906 C 146.957031 1456.320312 158.253906 1445.023438 172.175781 1445.023438 C 186.113281 1445.023438 197.40625 1456.320312 197.40625 1470.253906 " fill-opacity="1" fill-rule="nonzero"/><path fill="rgb(70.588684%, 32.548523%, 55.688477%)" d="M 341.582031 1470.253906 C 341.582031 1484.1875 330.285156 1495.472656 316.351562 1495.472656 C 302.417969 1495.472656 291.121094 1484.1875 291.121094 1470.253906 C 291.121094 1456.320312 302.417969 1445.023438 316.351562 1445.023438 C 330.285156 1445.023438 341.582031 1456.320312 341.582031 1470.253906 " fill-opacity="1" fill-rule="nonzero"/><path fill="rgb(70.588684%, 32.548523%, 55.688477%)" d="M 485.742188 1470.253906 C 485.742188 1484.1875 474.445312 1495.472656 460.511719 1495.472656 C 446.578125 1495.472656 435.292969 1484.1875 435.292969 1470.253906 C 435.292969 1456.320312 446.578125 1445.023438 460.511719 1445.023438 C 474.445312 1445.023438 485.742188 1456.320312 485.742188 1470.253906 " fill-opacity="1" fill-rule="nonzero"/><path fill="rgb(70.588684%, 32.548523%, 55.688477%)" d="M 629.914062 1470.253906 C 629.914062 1484.1875 618.621094 1495.472656 604.683594 1495.472656 C 590.75 1495.472656 579.457031 1484.1875 579.457031 1470.253906 C 579.457031 1456.320312 590.75 1445.023438 604.683594 1445.023438 C 618.621094 1445.023438 629.914062 1456.320312 629.914062 1470.253906 " fill-opacity="1" fill-rule="nonzero"/><path fill="rgb(70.588684%, 32.548523%, 55.688477%)" d="M 774.078125 1470.253906 C 774.078125 1484.1875 762.78125 1495.472656 748.847656 1495.472656 C 734.914062 1495.472656 723.617188 1484.1875 723.617188 1470.253906 C 723.617188 1456.320312 734.914062 1445.023438 748.847656 1445.023438 C 762.78125 1445.023438 774.078125 1456.320312 774.078125 1470.253906 " fill-opacity="1" fill-rule="nonzero"/><path fill="rgb(70.588684%, 32.548523%, 55.688477%)" d="M 918.25 1470.253906 C 918.25 1484.1875 906.953125 1495.472656 893.019531 1495.472656 C 879.085938 1495.472656 867.789062 1484.1875 867.789062 1470.253906 C 867.789062 1456.320312 879.085938 1445.023438 893.019531 1445.023438 C 906.953125 1445.023438 918.25 1456.320312 918.25 1470.253906 " fill-opacity="1" fill-rule="nonzero"/><path fill="rgb(70.588684%, 32.548523%, 55.688477%)" d="M 1062.410156 1470.253906 C 1062.410156 1484.1875 1051.117188 1495.472656 1037.183594 1495.472656 C 1023.246094 1495.472656 1011.953125 1484.1875 1011.953125 1470.253906 C 1011.953125 1456.320312 1023.246094 1445.023438 1037.183594 1445.023438 C 1051.117188 1445.023438 1062.410156 1456.320312 1062.410156 1470.253906 " fill-opacity="1" fill-rule="nonzero"/><path fill="rgb(70.588684%, 32.548523%, 55.688477%)" d="M 1206.585938 1470.253906 C 1206.585938 1484.1875 1195.289062 1495.472656 1181.355469 1495.472656 C 1167.421875 1495.472656 1156.125 1484.1875 1156.125 1470.253906 C 1156.125 1456.320312 1167.421875 1445.023438 1181.355469 1445.023438 C 1195.289062 1445.023438 1206.585938 1456.320312 1206.585938 1470.253906 " fill-opacity="1" fill-rule="nonzero"/><path fill="rgb(70.588684%, 32.548523%, 55.688477%)" d="M 1350.746094 1470.253906 C 1350.746094 1484.1875 1339.449219 1495.472656 1325.515625 1495.472656 C 1311.582031 1495.472656 1300.285156 1484.1875 1300.285156 1470.253906 C 1300.285156 1456.320312 1311.582031 1445.023438 1325.515625 1445.023438 C 1339.449219 1445.023438 1350.746094 1456.320312 1350.746094 1470.253906 " fill-opacity="1" fill-rule="nonzero"/><path fill="rgb(70.588684%, 32.548523%, 55.688477%)" d="M 1494.910156 1470.253906 C 1494.910156 1484.1875 1483.625 1495.472656 1469.691406 1495.472656 C 1455.753906 1495.472656 1444.460938 1484.1875 1444.460938 1470.253906 C 1444.460938 1456.320312 1455.753906 1445.023438 1469.691406 1445.023438 C 1483.625 1445.023438 1494.910156 1456.320312 1494.910156 1470.253906 " fill-opacity="1" fill-rule="nonzero"/><g clip-path="url(#id27)"><path fill="rgb(70.588684%, 32.548523%, 55.688477%)" d="M 53.246094 1326.082031 C 53.246094 1340.015625 41.949219 1351.308594 28.015625 1351.308594 C 14.082031 1351.308594 2.785156 1340.015625 2.785156 1326.082031 C 2.785156 1312.144531 14.082031 1300.851562 28.015625 1300.851562 C 41.949219 1300.851562 53.246094 1312.144531 53.246094 1326.082031 " fill-opacity="1" fill-rule="nonzero"/></g><path fill="rgb(70.588684%, 32.548523%, 55.688477%)" d="M 197.40625 1326.082031 C 197.40625 1340.015625 186.113281 1351.308594 172.175781 1351.308594 C 158.253906 1351.308594 146.957031 1340.015625 146.957031 1326.082031 C 146.957031 1312.144531 158.253906 1300.851562 172.175781 1300.851562 C 186.113281 1300.851562 197.40625 1312.144531 197.40625 1326.082031 " fill-opacity="1" fill-rule="nonzero"/><path fill="rgb(70.588684%, 32.548523%, 55.688477%)" d="M 341.582031 1326.082031 C 341.582031 1340.015625 330.285156 1351.308594 316.351562 1351.308594 C 302.417969 1351.308594 291.121094 1340.015625 291.121094 1326.082031 C 291.121094 1312.144531 302.417969 1300.851562 316.351562 1300.851562 C 330.285156 1300.851562 341.582031 1312.144531 341.582031 1326.082031 " fill-opacity="1" fill-rule="nonzero"/><path fill="rgb(70.588684%, 32.548523%, 55.688477%)" d="M 485.742188 1326.082031 C 485.742188 1340.015625 474.445312 1351.308594 460.511719 1351.308594 C 446.578125 1351.308594 435.292969 1340.015625 435.292969 1326.082031 C 435.292969 1312.144531 446.578125 1300.851562 460.511719 1300.851562 C 474.445312 1300.851562 485.742188 1312.144531 485.742188 1326.082031 " fill-opacity="1" fill-rule="nonzero"/><path fill="rgb(70.588684%, 32.548523%, 55.688477%)" d="M 629.914062 1326.082031 C 629.914062 1340.015625 618.621094 1351.308594 604.683594 1351.308594 C 590.75 1351.308594 579.457031 1340.015625 579.457031 1326.082031 C 579.457031 1312.144531 590.75 1300.851562 604.683594 1300.851562 C 618.621094 1300.851562 629.914062 1312.144531 629.914062 1326.082031 " fill-opacity="1" fill-rule="nonzero"/><path fill="rgb(70.588684%, 32.548523%, 55.688477%)" d="M 774.078125 1326.082031 C 774.078125 1340.015625 762.78125 1351.308594 748.847656 1351.308594 C 734.914062 1351.308594 723.617188 1340.015625 723.617188 1326.082031 C 723.617188 1312.144531 734.914062 1300.851562 748.847656 1300.851562 C 762.78125 1300.851562 774.078125 1312.144531 774.078125 1326.082031 " fill-opacity="1" fill-rule="nonzero"/><path fill="rgb(70.588684%, 32.548523%, 55.688477%)" d="M 918.25 1326.082031 C 918.25 1340.015625 906.953125 1351.308594 893.019531 1351.308594 C 879.085938 1351.308594 867.789062 1340.015625 867.789062 1326.082031 C 867.789062 1312.144531 879.085938 1300.851562 893.019531 1300.851562 C 906.953125 1300.851562 918.25 1312.144531 918.25 1326.082031 " fill-opacity="1" fill-rule="nonzero"/><path fill="rgb(70.588684%, 32.548523%, 55.688477%)" d="M 1062.410156 1326.082031 C 1062.410156 1340.015625 1051.117188 1351.308594 1037.183594 1351.308594 C 1023.246094 1351.308594 1011.953125 1340.015625 1011.953125 1326.082031 C 1011.953125 1312.144531 1023.246094 1300.851562 1037.183594 1300.851562 C 1051.117188 1300.851562 1062.410156 1312.144531 1062.410156 1326.082031 " fill-opacity="1" fill-rule="nonzero"/><path fill="rgb(70.588684%, 32.548523%, 55.688477%)" d="M 1206.585938 1326.082031 C 1206.585938 1340.015625 1195.289062 1351.308594 1181.355469 1351.308594 C 1167.421875 1351.308594 1156.125 1340.015625 1156.125 1326.082031 C 1156.125 1312.144531 1167.421875 1300.851562 1181.355469 1300.851562 C 1195.289062 1300.851562 1206.585938 1312.144531 1206.585938 1326.082031 " fill-opacity="1" fill-rule="nonzero"/><path fill="rgb(70.588684%, 32.548523%, 55.688477%)" d="M 1350.746094 1326.082031 C 1350.746094 1340.015625 1339.449219 1351.308594 1325.515625 1351.308594 C 1311.582031 1351.308594 1300.285156 1340.015625 1300.285156 1326.082031 C 1300.285156 1312.144531 1311.582031 1300.851562 1325.515625 1300.851562 C 1339.449219 1300.851562 1350.746094 1312.144531 1350.746094 1326.082031 " fill-opacity="1" fill-rule="nonzero"/><g clip-path="url(#id28)"><path fill="rgb(70.588684%, 32.548523%, 55.688477%)" d="M 53.246094 1181.917969 C 53.246094 1195.851562 41.949219 1207.148438 28.015625 1207.148438 C 14.082031 1207.148438 2.785156 1195.851562 2.785156 1181.917969 C 2.785156 1167.984375 14.082031 1156.6875 28.015625 1156.6875 C 41.949219 1156.6875 53.246094 1167.984375 53.246094 1181.917969 " fill-opacity="1" fill-rule="nonzero"/></g><path fill="rgb(70.588684%, 32.548523%, 55.688477%)" d="M 197.40625 1181.917969 C 197.40625 1195.851562 186.113281 1207.148438 172.175781 1207.148438 C 158.253906 1207.148438 146.957031 1195.851562 146.957031 1181.917969 C 146.957031 1167.984375 158.253906 1156.6875 172.175781 1156.6875 C 186.113281 1156.6875 197.40625 1167.984375 197.40625 1181.917969 " fill-opacity="1" fill-rule="nonzero"/><path fill="rgb(70.588684%, 32.548523%, 55.688477%)" d="M 341.582031 1181.917969 C 341.582031 1195.851562 330.285156 1207.148438 316.351562 1207.148438 C 302.417969 1207.148438 291.121094 1195.851562 291.121094 1181.917969 C 291.121094 1167.984375 302.417969 1156.6875 316.351562 1156.6875 C 330.285156 1156.6875 341.582031 1167.984375 341.582031 1181.917969 " fill-opacity="1" fill-rule="nonzero"/><path fill="rgb(70.588684%, 32.548523%, 55.688477%)" d="M 485.742188 1181.917969 C 485.742188 1195.851562 474.445312 1207.148438 460.511719 1207.148438 C 446.578125 1207.148438 435.292969 1195.851562 435.292969 1181.917969 C 435.292969 1167.984375 446.578125 1156.6875 460.511719 1156.6875 C 474.445312 1156.6875 485.742188 1167.984375 485.742188 1181.917969 " fill-opacity="1" fill-rule="nonzero"/><path fill="rgb(70.588684%, 32.548523%, 55.688477%)" d="M 629.914062 1181.917969 C 629.914062 1195.851562 618.621094 1207.148438 604.683594 1207.148438 C 590.75 1207.148438 579.457031 1195.851562 579.457031 1181.917969 C 579.457031 1167.984375 590.75 1156.6875 604.683594 1156.6875 C 618.621094 1156.6875 629.914062 1167.984375 629.914062 1181.917969 " fill-opacity="1" fill-rule="nonzero"/><path fill="rgb(70.588684%, 32.548523%, 55.688477%)" d="M 774.078125 1181.917969 C 774.078125 1195.851562 762.78125 1207.148438 748.847656 1207.148438 C 734.914062 1207.148438 723.617188 1195.851562 723.617188 1181.917969 C 723.617188 1167.984375 734.914062 1156.6875 748.847656 1156.6875 C 762.78125 1156.6875 774.078125 1167.984375 774.078125 1181.917969 " fill-opacity="1" fill-rule="nonzero"/><path fill="rgb(70.588684%, 32.548523%, 55.688477%)" d="M 918.25 1181.917969 C 918.25 1195.851562 906.953125 1207.148438 893.019531 1207.148438 C 879.085938 1207.148438 867.789062 1195.851562 867.789062 1181.917969 C 867.789062 1167.984375 879.085938 1156.6875 893.019531 1156.6875 C 906.953125 1156.6875 918.25 1167.984375 918.25 1181.917969 " fill-opacity="1" fill-rule="nonzero"/><path fill="rgb(70.588684%, 32.548523%, 55.688477%)" d="M 1062.410156 1181.917969 C 1062.410156 1195.851562 1051.117188 1207.148438 1037.183594 1207.148438 C 1023.246094 1207.148438 1011.953125 1195.851562 1011.953125 1181.917969 C 1011.953125 1167.984375 1023.246094 1156.6875 1037.183594 1156.6875 C 1051.117188 1156.6875 1062.410156 1167.984375 1062.410156 1181.917969 " fill-opacity="1" fill-rule="nonzero"/><path fill="rgb(70.588684%, 32.548523%, 55.688477%)" d="M 1206.585938 1181.917969 C 1206.585938 1195.851562 1195.289062 1207.148438 1181.355469 1207.148438 C 1167.421875 1207.148438 1156.125 1195.851562 1156.125 1181.917969 C 1156.125 1167.984375 1167.421875 1156.6875 1181.355469 1156.6875 C 1195.289062 1156.6875 1206.585938 1167.984375 1206.585938 1181.917969 " fill-opacity="1" fill-rule="nonzero"/><g clip-path="url(#id29)"><path fill="rgb(70.588684%, 32.548523%, 55.688477%)" d="M 53.246094 1037.746094 C 53.246094 1051.679688 41.949219 1062.976562 28.015625 1062.976562 C 14.082031 1062.976562 2.785156 1051.679688 2.785156 1037.746094 C 2.785156 1023.8125 14.082031 1012.515625 28.015625 1012.515625 C 41.949219 1012.515625 53.246094 1023.8125 53.246094 1037.746094 " fill-opacity="1" fill-rule="nonzero"/></g><path fill="rgb(70.588684%, 32.548523%, 55.688477%)" d="M 197.40625 1037.746094 C 197.40625 1051.679688 186.113281 1062.976562 172.175781 1062.976562 C 158.253906 1062.976562 146.957031 1051.679688 146.957031 1037.746094 C 146.957031 1023.8125 158.253906 1012.515625 172.175781 1012.515625 C 186.113281 1012.515625 197.40625 1023.8125 197.40625 1037.746094 " fill-opacity="1" fill-rule="nonzero"/><path fill="rgb(70.588684%, 32.548523%, 55.688477%)" d="M 341.582031 1037.746094 C 341.582031 1051.679688 330.285156 1062.976562 316.351562 1062.976562 C 302.417969 1062.976562 291.121094 1051.679688 291.121094 1037.746094 C 291.121094 1023.8125 302.417969 1012.515625 316.351562 1012.515625 C 330.285156 1012.515625 341.582031 1023.8125 341.582031 1037.746094 " fill-opacity="1" fill-rule="nonzero"/><path fill="rgb(70.588684%, 32.548523%, 55.688477%)" d="M 485.742188 1037.746094 C 485.742188 1051.679688 474.445312 1062.976562 460.511719 1062.976562 C 446.578125 1062.976562 435.292969 1051.679688 435.292969 1037.746094 C 435.292969 1023.8125 446.578125 1012.515625 460.511719 1012.515625 C 474.445312 1012.515625 485.742188 1023.8125 485.742188 1037.746094 " fill-opacity="1" fill-rule="nonzero"/><path fill="rgb(70.588684%, 32.548523%, 55.688477%)" d="M 629.914062 1037.746094 C 629.914062 1051.679688 618.621094 1062.976562 604.683594 1062.976562 C 590.75 1062.976562 579.457031 1051.679688 579.457031 1037.746094 C 579.457031 1023.8125 590.75 1012.515625 604.683594 1012.515625 C 618.621094 1012.515625 629.914062 1023.8125 629.914062 1037.746094 " fill-opacity="1" fill-rule="nonzero"/><path fill="rgb(70.588684%, 32.548523%, 55.688477%)" d="M 774.078125 1037.746094 C 774.078125 1051.679688 762.78125 1062.976562 748.847656 1062.976562 C 734.914062 1062.976562 723.617188 1051.679688 723.617188 1037.746094 C 723.617188 1023.8125 734.914062 1012.515625 748.847656 1012.515625 C 762.78125 1012.515625 774.078125 1023.8125 774.078125 1037.746094 " fill-opacity="1" fill-rule="nonzero"/><path fill="rgb(70.588684%, 32.548523%, 55.688477%)" d="M 918.25 1037.746094 C 918.25 1051.679688 906.953125 1062.976562 893.019531 1062.976562 C 879.085938 1062.976562 867.789062 1051.679688 867.789062 1037.746094 C 867.789062 1023.8125 879.085938 1012.515625 893.019531 1012.515625 C 906.953125 1012.515625 918.25 1023.8125 918.25 1037.746094 " fill-opacity="1" fill-rule="nonzero"/><path fill="rgb(70.588684%, 32.548523%, 55.688477%)" d="M 1062.410156 1037.746094 C 1062.410156 1051.679688 1051.117188 1062.976562 1037.183594 1062.976562 C 1023.246094 1062.976562 1011.953125 1051.679688 1011.953125 1037.746094 C 1011.953125 1023.8125 1023.246094 1012.515625 1037.183594 1012.515625 C 1051.117188 1012.515625 1062.410156 1023.8125 1062.410156 1037.746094 " fill-opacity="1" fill-rule="nonzero"/><g clip-path="url(#id30)"><path fill="rgb(70.588684%, 32.548523%, 55.688477%)" d="M 53.246094 893.582031 C 53.246094 907.519531 41.949219 918.8125 28.015625 918.8125 C 14.082031 918.8125 2.785156 907.519531 2.785156 893.582031 C 2.785156 879.648438 14.082031 868.355469 28.015625 868.355469 C 41.949219 868.355469 53.246094 879.648438 53.246094 893.582031 " fill-opacity="1" fill-rule="nonzero"/></g><path fill="rgb(70.588684%, 32.548523%, 55.688477%)" d="M 197.40625 893.582031 C 197.40625 907.519531 186.113281 918.8125 172.175781 918.8125 C 158.253906 918.8125 146.957031 907.519531 146.957031 893.582031 C 146.957031 879.648438 158.253906 868.355469 172.175781 868.355469 C 186.113281 868.355469 197.40625 879.648438 197.40625 893.582031 " fill-opacity="1" fill-rule="nonzero"/><path fill="rgb(70.588684%, 32.548523%, 55.688477%)" d="M 341.582031 893.582031 C 341.582031 907.519531 330.285156 918.8125 316.351562 918.8125 C 302.417969 918.8125 291.121094 907.519531 291.121094 893.582031 C 291.121094 879.648438 302.417969 868.355469 316.351562 868.355469 C 330.285156 868.355469 341.582031 879.648438 341.582031 893.582031 " fill-opacity="1" fill-rule="nonzero"/><path fill="rgb(70.588684%, 32.548523%, 55.688477%)" d="M 485.742188 893.582031 C 485.742188 907.519531 474.445312 918.8125 460.511719 918.8125 C 446.578125 918.8125 435.292969 907.519531 435.292969 893.582031 C 435.292969 879.648438 446.578125 868.355469 460.511719 868.355469 C 474.445312 868.355469 485.742188 879.648438 485.742188 893.582031 " fill-opacity="1" fill-rule="nonzero"/><path fill="rgb(70.588684%, 32.548523%, 55.688477%)" d="M 629.914062 893.582031 C 629.914062 907.519531 618.621094 918.8125 604.683594 918.8125 C 590.75 918.8125 579.457031 907.519531 579.457031 893.582031 C 579.457031 879.648438 590.75 868.355469 604.683594 868.355469 C 618.621094 868.355469 629.914062 879.648438 629.914062 893.582031 " fill-opacity="1" fill-rule="nonzero"/><path fill="rgb(70.588684%, 32.548523%, 55.688477%)" d="M 774.078125 893.582031 C 774.078125 907.519531 762.78125 918.8125 748.847656 918.8125 C 734.914062 918.8125 723.617188 907.519531 723.617188 893.582031 C 723.617188 879.648438 734.914062 868.355469 748.847656 868.355469 C 762.78125 868.355469 774.078125 879.648438 774.078125 893.582031 " fill-opacity="1" fill-rule="nonzero"/><path fill="rgb(70.588684%, 32.548523%, 55.688477%)" d="M 918.25 893.582031 C 918.25 907.519531 906.953125 918.8125 893.019531 918.8125 C 879.085938 918.8125 867.789062 907.519531 867.789062 893.582031 C 867.789062 879.648438 879.085938 868.355469 893.019531 868.355469 C 906.953125 868.355469 918.25 879.648438 918.25 893.582031 " fill-opacity="1" fill-rule="nonzero"/><g clip-path="url(#id31)"><path fill="rgb(70.588684%, 32.548523%, 55.688477%)" d="M 53.246094 749.410156 C 53.246094 763.34375 41.949219 774.640625 28.015625 774.640625 C 14.082031 774.640625 2.785156 763.34375 2.785156 749.410156 C 2.785156 735.476562 14.082031 724.179688 28.015625 724.179688 C 41.949219 724.179688 53.246094 735.476562 53.246094 749.410156 " fill-opacity="1" fill-rule="nonzero"/></g><path fill="rgb(70.588684%, 32.548523%, 55.688477%)" d="M 197.40625 749.410156 C 197.40625 763.34375 186.113281 774.640625 172.175781 774.640625 C 158.253906 774.640625 146.957031 763.34375 146.957031 749.410156 C 146.957031 735.476562 158.253906 724.179688 172.175781 724.179688 C 186.113281 724.179688 197.40625 735.476562 197.40625 749.410156 " fill-opacity="1" fill-rule="nonzero"/><path fill="rgb(70.588684%, 32.548523%, 55.688477%)" d="M 341.582031 749.410156 C 341.582031 763.34375 330.285156 774.640625 316.351562 774.640625 C 302.417969 774.640625 291.121094 763.34375 291.121094 749.410156 C 291.121094 735.476562 302.417969 724.179688 316.351562 724.179688 C 330.285156 724.179688 341.582031 735.476562 341.582031 749.410156 " fill-opacity="1" fill-rule="nonzero"/><path fill="rgb(70.588684%, 32.548523%, 55.688477%)" d="M 485.742188 749.410156 C 485.742188 763.34375 474.445312 774.640625 460.511719 774.640625 C 446.578125 774.640625 435.292969 763.34375 435.292969 749.410156 C 435.292969 735.476562 446.578125 724.179688 460.511719 724.179688 C 474.445312 724.179688 485.742188 735.476562 485.742188 749.410156 " fill-opacity="1" fill-rule="nonzero"/><path fill="rgb(70.588684%, 32.548523%, 55.688477%)" d="M 629.914062 749.410156 C 629.914062 763.34375 618.621094 774.640625 604.683594 774.640625 C 590.75 774.640625 579.457031 763.34375 579.457031 749.410156 C 579.457031 735.476562 590.75 724.179688 604.683594 724.179688 C 618.621094 724.179688 629.914062 735.476562 629.914062 749.410156 " fill-opacity="1" fill-rule="nonzero"/><path fill="rgb(70.588684%, 32.548523%, 55.688477%)" d="M 774.078125 749.410156 C 774.078125 763.34375 762.78125 774.640625 748.847656 774.640625 C 734.914062 774.640625 723.617188 763.34375 723.617188 749.410156 C 723.617188 735.476562 734.914062 724.179688 748.847656 724.179688 C 762.78125 724.179688 774.078125 735.476562 774.078125 749.410156 " fill-opacity="1" fill-rule="nonzero"/><g clip-path="url(#id32)"><path fill="rgb(70.588684%, 32.548523%, 55.688477%)" d="M 53.246094 605.25 C 53.246094 619.183594 41.949219 630.480469 28.015625 630.480469 C 14.082031 630.480469 2.785156 619.183594 2.785156 605.25 C 2.785156 591.316406 14.082031 580.019531 28.015625 580.019531 C 41.949219 580.019531 53.246094 591.316406 53.246094 605.25 " fill-opacity="1" fill-rule="nonzero"/></g><path fill="rgb(70.588684%, 32.548523%, 55.688477%)" d="M 197.40625 605.25 C 197.40625 619.183594 186.113281 630.480469 172.175781 630.480469 C 158.253906 630.480469 146.957031 619.183594 146.957031 605.25 C 146.957031 591.316406 158.253906 580.019531 172.175781 580.019531 C 186.113281 580.019531 197.40625 591.316406 197.40625 605.25 " fill-opacity="1" fill-rule="nonzero"/><path fill="rgb(70.588684%, 32.548523%, 55.688477%)" d="M 341.582031 605.25 C 341.582031 619.183594 330.285156 630.480469 316.351562 630.480469 C 302.417969 630.480469 291.121094 619.183594 291.121094 605.25 C 291.121094 591.316406 302.417969 580.019531 316.351562 580.019531 C 330.285156 580.019531 341.582031 591.316406 341.582031 605.25 " fill-opacity="1" fill-rule="nonzero"/><path fill="rgb(70.588684%, 32.548523%, 55.688477%)" d="M 485.742188 605.25 C 485.742188 619.183594 474.445312 630.480469 460.511719 630.480469 C 446.578125 630.480469 435.292969 619.183594 435.292969 605.25 C 435.292969 591.316406 446.578125 580.019531 460.511719 580.019531 C 474.445312 580.019531 485.742188 591.316406 485.742188 605.25 " fill-opacity="1" fill-rule="nonzero"/><path fill="rgb(70.588684%, 32.548523%, 55.688477%)" d="M 629.914062 605.25 C 629.914062 619.183594 618.621094 630.480469 604.683594 630.480469 C 590.75 630.480469 579.457031 619.183594 579.457031 605.25 C 579.457031 591.316406 590.75 580.019531 604.683594 580.019531 C 618.621094 580.019531 629.914062 591.316406 629.914062 605.25 " fill-opacity="1" fill-rule="nonzero"/><g clip-path="url(#id33)"><path fill="rgb(70.588684%, 32.548523%, 55.688477%)" d="M 53.246094 461.074219 C 53.246094 475.011719 41.949219 486.304688 28.015625 486.304688 C 14.082031 486.304688 2.785156 475.011719 2.785156 461.074219 C 2.785156 447.140625 14.082031 435.855469 28.015625 435.855469 C 41.949219 435.855469 53.246094 447.140625 53.246094 461.074219 " fill-opacity="1" fill-rule="nonzero"/></g><path fill="rgb(70.588684%, 32.548523%, 55.688477%)" d="M 197.40625 461.074219 C 197.40625 475.011719 186.113281 486.304688 172.175781 486.304688 C 158.253906 486.304688 146.957031 475.011719 146.957031 461.074219 C 146.957031 447.140625 158.253906 435.855469 172.175781 435.855469 C 186.113281 435.855469 197.40625 447.140625 197.40625 461.074219 " fill-opacity="1" fill-rule="nonzero"/><path fill="rgb(70.588684%, 32.548523%, 55.688477%)" d="M 341.582031 461.074219 C 341.582031 475.011719 330.285156 486.304688 316.351562 486.304688 C 302.417969 486.304688 291.121094 475.011719 291.121094 461.074219 C 291.121094 447.140625 302.417969 435.855469 316.351562 435.855469 C 330.285156 435.855469 341.582031 447.140625 341.582031 461.074219 " fill-opacity="1" fill-rule="nonzero"/><path fill="rgb(70.588684%, 32.548523%, 55.688477%)" d="M 485.742188 461.074219 C 485.742188 475.011719 474.445312 486.304688 460.511719 486.304688 C 446.578125 486.304688 435.292969 475.011719 435.292969 461.074219 C 435.292969 447.140625 446.578125 435.855469 460.511719 435.855469 C 474.445312 435.855469 485.742188 447.140625 485.742188 461.074219 " fill-opacity="1" fill-rule="nonzero"/><g clip-path="url(#id34)"><path fill="rgb(70.588684%, 32.548523%, 55.688477%)" d="M 53.246094 316.914062 C 53.246094 330.847656 41.949219 342.144531 28.015625 342.144531 C 14.082031 342.144531 2.785156 330.847656 2.785156 316.914062 C 2.785156 302.980469 14.082031 291.683594 28.015625 291.683594 C 41.949219 291.683594 53.246094 302.980469 53.246094 316.914062 " fill-opacity="1" fill-rule="nonzero"/></g><path fill="rgb(70.588684%, 32.548523%, 55.688477%)" d="M 197.40625 316.914062 C 197.40625 330.847656 186.113281 342.144531 172.175781 342.144531 C 158.253906 342.144531 146.957031 330.847656 146.957031 316.914062 C 146.957031 302.980469 158.253906 291.683594 172.175781 291.683594 C 186.113281 291.683594 197.40625 302.980469 197.40625 316.914062 " fill-opacity="1" fill-rule="nonzero"/><path fill="rgb(70.588684%, 32.548523%, 55.688477%)" d="M 341.582031 316.914062 C 341.582031 330.847656 330.285156 342.144531 316.351562 342.144531 C 302.417969 342.144531 291.121094 330.847656 291.121094 316.914062 C 291.121094 302.980469 302.417969 291.683594 316.351562 291.683594 C 330.285156 291.683594 341.582031 302.980469 341.582031 316.914062 " fill-opacity="1" fill-rule="nonzero"/><g clip-path="url(#id35)"><path fill="rgb(70.588684%, 32.548523%, 55.688477%)" d="M 53.246094 172.742188 C 53.246094 186.675781 41.949219 197.972656 28.015625 197.972656 C 14.082031 197.972656 2.785156 186.675781 2.785156 172.742188 C 2.785156 158.816406 14.082031 147.523438 28.015625 147.523438 C 41.949219 147.523438 53.246094 158.816406 53.246094 172.742188 " fill-opacity="1" fill-rule="nonzero"/></g><path fill="rgb(70.588684%, 32.548523%, 55.688477%)" d="M 197.40625 172.742188 C 197.40625 186.675781 186.113281 197.972656 172.175781 197.972656 C 158.253906 197.972656 146.957031 186.675781 146.957031 172.742188 C 146.957031 158.816406 158.253906 147.523438 172.175781 147.523438 C 186.113281 147.523438 197.40625 158.816406 197.40625 172.742188 " fill-opacity="1" fill-rule="nonzero"/><g clip-path="url(#id36)"><path fill="rgb(70.588684%, 32.548523%, 55.688477%)" d="M 53.246094 28.578125 C 53.246094 42.511719 41.949219 53.808594 28.015625 53.808594 C 14.082031 53.808594 2.785156 42.511719 2.785156 28.578125 C 2.785156 14.644531 14.082031 3.347656 28.015625 3.347656 C 41.949219 3.347656 53.246094 14.644531 53.246094 28.578125 " fill-opacity="1" fill-rule="nonzero"/></g></g></g></g><g clip-path="url(#id38)"><path fill="rgb(0%, 0%, 0%)" d="M 1288.378906 869.484375 C 1282.40625 863.511719 1272.699219 863.511719 1266.726562 869.484375 L 960.488281 1175.777344 C 954.515625 1181.753906 954.515625 1191.460938 960.488281 1197.433594 L 1266.726562 1503.730469 C 1269.699219 1506.730469 1273.617188 1508.230469 1277.539062 1508.230469 C 1281.457031 1508.230469 1285.378906 1506.730469 1288.378906 1503.761719 C 1294.351562 1497.789062 1294.351562 1488.078125 1288.378906 1482.105469 L 992.949219 1186.621094 L 1288.347656 891.167969 C 1294.351562 885.167969 1294.351562 875.488281 1288.378906 869.484375 Z M 1288.378906 869.484375 " fill-opacity="1" fill-rule="nonzero"/></g><g clip-path="url(#id39)"><path fill="rgb(0%, 0%, 0%)" d="M 2207.101562 1175.777344 L 1900.863281 869.484375 C 1894.890625 863.511719 1885.183594 863.511719 1879.210938 869.484375 C 1873.238281 875.457031 1873.238281 885.167969 1879.210938 891.140625 L 2174.609375 1186.621094 L 1879.210938 1482.074219 C 1873.238281 1488.046875 1873.238281 1497.757812 1879.210938 1503.730469 C 1882.179688 1506.730469 1886.101562 1508.230469 1890.019531 1508.230469 C 1893.941406 1508.230469 1897.859375 1506.730469 1900.863281 1503.761719 L 2207.101562 1197.464844 C 2213.074219 1191.460938 2213.074219 1181.78125 2207.101562 1175.777344 Z M 2207.101562 1175.777344 " fill-opacity="1" fill-rule="nonzero"/></g><g fill="rgb(0%, 0%, 0%)" fill-opacity="1"><g transform="translate(2846.856711, 673.898426)"><g><path d="M 7.71875 -257.390625 L 122.4375 -257.390625 L 122.4375 -250.40625 L 101.125 -250.40625 L 101.125 -136.421875 L 174.296875 -136.421875 L 174.296875 -250.40625 L 152.59375 -250.40625 L 152.59375 -257.390625 L 267.6875 -257.390625 L 267.6875 -250.40625 L 246 -250.40625 L 246 -6.984375 L 267.6875 -6.984375 L 267.6875 0 L 152.59375 0 L 152.59375 -6.984375 L 174.296875 -6.984375 L 174.296875 -126.859375 L 101.125 -126.859375 L 101.125 -6.984375 L 122.4375 -6.984375 L 122.4375 0 L 7.71875 0 L 7.71875 -6.984375 L 29.421875 -6.984375 L 29.421875 -250.40625 L 7.71875 -250.40625 Z M 7.71875 -257.390625 "/></g></g></g><g fill="rgb(0%, 0%, 0%)" fill-opacity="1"><g transform="translate(3122.270438, 673.898426)"><g><path d="M 100.390625 3.671875 C 68.765625 3.671875 45.046875 -4.476562 29.234375 -20.78125 C 13.421875 -37.082031 5.515625 -59.753906 5.515625 -88.796875 C 5.515625 -117.847656 14.398438 -140.09375 32.171875 -155.53125 C 49.941406 -170.976562 72.554688 -178.703125 100.015625 -178.703125 C 155.660156 -178.703125 182.378906 -150.757812 180.171875 -94.875 L 76.484375 -94.875 L 76.484375 -80.53125 C 76.484375 -56.5 79.546875 -38.351562 85.671875 -26.09375 C 91.804688 -13.84375 102.472656 -7.71875 117.671875 -7.71875 C 146.097656 -7.71875 164.726562 -22.914062 173.5625 -53.3125 L 180.171875 -52.21875 C 175.515625 -34.5625 167.117188 -20.832031 154.984375 -11.03125 C 142.847656 -1.226562 124.648438 3.671875 100.390625 3.671875 Z M 76.84375 -102.21875 L 114.71875 -102.21875 L 114.71875 -120.234375 C 114.71875 -140.085938 113.550781 -153.628906 111.21875 -160.859375 C 108.894531 -168.097656 104.238281 -171.71875 97.25 -171.71875 C 90.269531 -171.71875 85.125 -167.851562 81.8125 -160.125 C 78.5 -152.40625 76.84375 -139.109375 76.84375 -120.234375 Z M 76.84375 -102.21875 "/></g></g></g><g fill="rgb(0%, 0%, 0%)" fill-opacity="1"><g transform="translate(3312.008082, 673.898426)"><g><path d="M 2.203125 -275.78125 L 92.296875 -275.78125 L 92.296875 -6.625 L 112.890625 -6.625 L 112.890625 0 L 3.671875 0 L 3.671875 -6.625 L 23.90625 -6.625 L 23.90625 -269.15625 L 2.203125 -269.15625 Z M 2.203125 -275.78125 "/></g></g></g><g fill="rgb(0%, 0%, 0%)" fill-opacity="1"><g transform="translate(3428.204014, 673.898426)"><g><path d="M 2.203125 -275.78125 L 92.296875 -275.78125 L 92.296875 -6.625 L 112.890625 -6.625 L 112.890625 0 L 3.671875 0 L 3.671875 -6.625 L 23.90625 -6.625 L 23.90625 -269.15625 L 2.203125 -269.15625 Z M 2.203125 -275.78125 "/></g></g></g><g fill="rgb(0%, 0%, 0%)" fill-opacity="1"><g transform="translate(3544.399947, 673.898426)"><g><path d="M 122.4375 -72.4375 L 122.4375 -103.6875 C 122.4375 -127.46875 121.148438 -144.8125 118.578125 -155.71875 C 116.003906 -166.625 110.0625 -172.078125 100.75 -172.078125 C 95.351562 -172.078125 91 -170.546875 87.6875 -167.484375 C 84.382812 -164.421875 82 -159.335938 80.53125 -152.234375 C 78.320312 -141.203125 77.21875 -124.410156 77.21875 -101.859375 L 77.21875 -73.171875 C 77.21875 -46.453125 78.015625 -30.394531 79.609375 -25 C 81.203125 -19.613281 82.859375 -15.203125 84.578125 -11.765625 C 87.265625 -5.878906 92.535156 -2.9375 100.390625 -2.9375 C 109.941406 -2.9375 116.191406 -8.453125 119.140625 -19.484375 C 121.335938 -27.328125 122.4375 -44.976562 122.4375 -72.4375 Z M 99.640625 3.671875 C 69.003906 3.671875 45.84375 -4.171875 30.15625 -19.859375 C 14.46875 -35.546875 6.625 -58.035156 6.625 -87.328125 C 6.625 -116.617188 15.019531 -139.171875 31.8125 -154.984375 C 48.601562 -170.796875 72.195312 -178.703125 102.59375 -178.703125 C 132.988281 -178.703125 155.660156 -171.410156 170.609375 -156.828125 C 185.566406 -142.242188 193.046875 -120 193.046875 -90.09375 C 193.046875 -27.582031 161.910156 3.671875 99.640625 3.671875 Z M 99.640625 3.671875 "/></g></g></g><g fill="rgb(0%, 0%, 0%)" fill-opacity="1"><g transform="translate(3744.065727, 673.898426)"><g/></g></g><g fill="rgb(0%, 0%, 0%)" fill-opacity="1"><g transform="translate(3810.253304, 673.898426)"><g><path d="M 65.453125 -65.453125 L 65.453125 -97.078125 C 65.453125 -118.160156 61.46875 -143.222656 53.5 -172.265625 C 45.53125 -201.316406 41.546875 -221.113281 41.546875 -231.65625 C 41.546875 -242.195312 44.425781 -249.796875 50.1875 -254.453125 C 55.945312 -259.109375 62.992188 -261.4375 71.328125 -261.4375 C 89.960938 -261.4375 99.28125 -251.507812 99.28125 -231.65625 C 99.28125 -220.132812 94.988281 -200.03125 86.40625 -171.34375 C 77.832031 -142.664062 73.546875 -117.785156 73.546875 -96.703125 L 73.546875 -65.453125 Z M 68.203125 3.671875 C 59.015625 3.671875 52.148438 1.035156 47.609375 -4.234375 C 43.078125 -9.503906 40.8125 -16.117188 40.8125 -24.078125 C 40.8125 -32.046875 43.257812 -38.664062 48.15625 -43.9375 C 53.0625 -49.207031 59.804688 -51.84375 68.390625 -51.84375 C 76.972656 -51.84375 83.835938 -49.570312 88.984375 -45.03125 C 94.128906 -40.5 96.703125 -33.820312 96.703125 -25 C 96.703125 -16.175781 94.25 -9.191406 89.34375 -4.046875 C 84.445312 1.097656 77.398438 3.671875 68.203125 3.671875 Z M 68.203125 3.671875 "/></g></g></g><g fill="rgb(0%, 0%, 0%)" fill-opacity="1"><g transform="translate(3948.749956, 673.898426)"><g/></g></g><g fill="rgb(0%, 0%, 0%)" fill-opacity="1"><g transform="translate(2440.161663, 1181.685853)"><g/></g></g><g fill="rgb(0%, 0%, 0%)" fill-opacity="1"><g transform="translate(2506.349239, 1181.685853)"><g/></g></g><g fill="rgb(0%, 0%, 0%)" fill-opacity="1"><g transform="translate(2572.536816, 1181.685853)"><g/></g></g><g fill="rgb(0%, 0%, 0%)" fill-opacity="1"><g transform="translate(2638.724393, 1181.685853)"><g/></g></g><g fill="rgb(0%, 0%, 0%)" fill-opacity="1"><g transform="translate(2704.911969, 1181.685853)"><g/></g></g><g fill="rgb(0%, 0%, 0%)" fill-opacity="1"><g transform="translate(2771.099546, 1181.685853)"><g/></g></g><g fill="rgb(0%, 0%, 0%)" fill-opacity="1"><g transform="translate(2837.287123, 1181.685853)"><g/></g></g><g fill="rgb(0%, 0%, 0%)" fill-opacity="1"><g transform="translate(2903.474699, 1181.685853)"><g/></g></g><g fill="rgb(0%, 0%, 0%)" fill-opacity="1"><g transform="translate(2969.662276, 1181.685853)"><g/></g></g><g fill="rgb(0%, 0%, 0%)" fill-opacity="1"><g transform="translate(3035.849853, 1181.685853)"><g/></g></g><g fill="rgb(0%, 0%, 0%)" fill-opacity="1"><g transform="translate(3102.037429, 1181.685853)"><g/></g></g><g fill="rgb(0%, 0%, 0%)" fill-opacity="1"><g transform="translate(3168.225006, 1181.685853)"><g/></g></g><g fill="rgb(0%, 0%, 0%)" fill-opacity="1"><g transform="translate(3234.412583, 1181.685853)"><g/></g></g><g fill="rgb(0%, 0%, 0%)" fill-opacity="1"><g transform="translate(3300.600159, 1181.685853)"><g/></g></g><g fill="rgb(0%, 0%, 0%)" fill-opacity="1"><g transform="translate(3366.787736, 1181.685853)"><g/></g></g><g fill="rgb(0%, 0%, 0%)" fill-opacity="1"><g transform="translate(3432.975313, 1181.685853)"><g/></g></g><g fill="rgb(0%, 0%, 0%)" fill-opacity="1"><g transform="translate(3499.162889, 1181.685853)"><g/></g></g><g fill="rgb(0%, 0%, 0%)" fill-opacity="1"><g transform="translate(3565.350466, 1181.685853)"><g/></g></g><g fill="rgb(0%, 0%, 0%)" fill-opacity="1"><g transform="translate(3631.538043, 1181.685853)"><g/></g></g><g fill="rgb(0%, 0%, 0%)" fill-opacity="1"><g transform="translate(3697.725619, 1181.685853)"><g/></g></g><g fill="rgb(0%, 0%, 0%)" fill-opacity="1"><g transform="translate(3763.913196, 1181.685853)"><g/></g></g><g fill="rgb(0%, 0%, 0%)" fill-opacity="1"><g transform="translate(3830.01087, 1181.685853)"><g><path d="M 9.1875 -257.390625 L 121.34375 -257.390625 L 121.34375 -250.40625 L 101.125 -250.40625 L 101.125 -6.984375 L 121.34375 -6.984375 L 121.34375 0 L 9.1875 0 L 9.1875 -6.984375 L 29.421875 -6.984375 L 29.421875 -250.40625 L 9.1875 -250.40625 Z M 9.1875 -257.390625 "/></g></g></g><g fill="rgb(0%, 0%, 0%)" fill-opacity="1"><g transform="translate(3960.547424, 1181.685853)"><g><path d="M 29.046875 -176.859375 L 18.390625 -274.671875 C 28.191406 -279.578125 36.15625 -282.03125 42.28125 -282.03125 C 50.613281 -282.03125 54.78125 -277.492188 54.78125 -268.421875 C 54.78125 -262.785156 53.679688 -254.695312 51.484375 -244.15625 L 36.765625 -176.859375 Z M 29.046875 -176.859375 "/></g></g></g><g fill="rgb(0%, 0%, 0%)" fill-opacity="1"><g transform="translate(4028.94124, 1181.685853)"><g><path d="M 3.671875 -175.03125 L 92.296875 -175.03125 L 92.296875 -141.203125 C 100.378906 -166.203125 118.207031 -178.703125 145.78125 -178.703125 C 173.363281 -178.703125 190.097656 -165.460938 195.984375 -138.984375 C 204.566406 -165.460938 222.582031 -178.703125 250.03125 -178.703125 C 286.070312 -178.703125 304.09375 -158.234375 304.09375 -117.296875 L 304.09375 -6.625 L 324.6875 -6.625 L 324.6875 0 L 222.828125 0 L 222.828125 -6.625 L 235.703125 -6.625 L 235.703125 -126.125 C 235.703125 -144.75 234.109375 -155.65625 230.921875 -158.84375 C 229.453125 -160.3125 227.488281 -161.046875 225.03125 -161.046875 C 217.925781 -161.046875 211.675781 -156.265625 206.28125 -146.703125 C 200.882812 -137.148438 198.1875 -125.019531 198.1875 -110.3125 L 198.1875 -6.625 L 211.421875 -6.625 L 211.421875 0 L 116.921875 0 L 116.921875 -6.625 L 129.796875 -6.625 L 129.796875 -126.125 C 129.796875 -144.75 128.203125 -155.65625 125.015625 -158.84375 C 123.546875 -160.3125 121.585938 -161.046875 119.140625 -161.046875 C 112.273438 -161.046875 106.082031 -155.835938 100.5625 -145.421875 C 95.050781 -135.003906 92.296875 -122.566406 92.296875 -108.109375 L 92.296875 -6.625 L 105.53125 -6.625 L 105.53125 0 L 3.671875 0 L 3.671875 -6.625 L 23.90625 -6.625 L 23.90625 -168.40625 L 3.671875 -168.40625 Z M 3.671875 -175.03125 "/></g></g></g><g fill="rgb(0%, 0%, 0%)" fill-opacity="1"><g transform="translate(4355.445048, 1181.685853)"><g/></g></g><g fill="rgb(53.329468%, 100%, 100%)" fill-opacity="1"><g transform="translate(3498.690517, 1663.208412)"><g><path d="M 220.984375 -252.25 C 223.191406 -252.25 225.15625 -251.507812 226.875 -250.03125 C 228.34375 -248.320312 229.078125 -246.363281 229.078125 -244.15625 L 229.078125 -8.09375 C 229.078125 -5.882812 228.34375 -4.046875 226.875 -2.578125 C 225.15625 -0.859375 223.191406 0 220.984375 0 L 186.796875 0 C 184.585938 0 182.75 -0.859375 181.28125 -2.578125 C 179.5625 -4.046875 178.703125 -5.882812 178.703125 -8.09375 L 178.703125 -165.09375 L 148.546875 -117.296875 C 147.328125 -115.335938 145.613281 -113.625 143.40625 -112.15625 C 140.957031 -110.925781 138.628906 -110.3125 136.421875 -110.3125 L 120.234375 -110.3125 C 118.023438 -110.3125 115.695312 -110.925781 113.25 -112.15625 C 111.039062 -113.625 109.328125 -115.335938 108.109375 -117.296875 L 77.578125 -165.46875 L 77.578125 -8.09375 C 77.578125 -5.882812 76.84375 -4.046875 75.375 -2.578125 C 73.664062 -0.859375 71.707031 0 69.5 0 L 35.296875 0 C 33.085938 0 31.25 -0.859375 29.78125 -2.578125 C 28.0625 -4.046875 27.203125 -5.882812 27.203125 -8.09375 L 27.203125 -244.15625 C 27.203125 -246.363281 28.0625 -248.320312 29.78125 -250.03125 C 31.25 -251.507812 33.085938 -252.25 35.296875 -252.25 L 69.5 -252.25 L 72.0625 -251.875 C 73.289062 -251.632812 74.519531 -251.019531 75.75 -250.03125 C 78.195312 -248.8125 80.035156 -247.222656 81.265625 -245.265625 L 128.328125 -164 L 175.390625 -245.265625 C 176.617188 -247.222656 178.335938 -248.8125 180.546875 -250.03125 L 183.484375 -251.515625 C 184.460938 -252.003906 185.566406 -252.25 186.796875 -252.25 Z M 220.984375 -252.25 "/></g></g></g><g fill="rgb(53.329468%, 100%, 100%)" fill-opacity="1"><g transform="translate(3754.983378, 1663.208412)"><g><path d="M 162.53125 -252.25 C 164.726562 -252.25 166.867188 -251.507812 168.953125 -250.03125 C 171.035156 -248.5625 172.445312 -246.847656 173.1875 -244.890625 L 226.140625 -113.25 C 226.867188 -111.289062 227.539062 -108.78125 228.15625 -105.71875 C 228.769531 -102.65625 229.078125 -100.019531 229.078125 -97.8125 L 229.078125 -8.09375 C 229.078125 -5.882812 228.28125 -3.984375 226.6875 -2.390625 C 225.09375 -0.796875 223.191406 0 220.984375 0 L 186.421875 0 C 184.210938 0 182.3125 -0.796875 180.71875 -2.390625 C 179.132812 -3.984375 178.34375 -5.882812 178.34375 -8.09375 L 178.34375 -50.375 L 77.578125 -50.375 L 77.578125 -8.09375 C 77.578125 -5.882812 76.78125 -3.984375 75.1875 -2.390625 C 73.601562 -0.796875 71.707031 0 69.5 0 L 35.296875 0 C 33.085938 0 31.1875 -0.796875 29.59375 -2.390625 C 28 -3.984375 27.203125 -5.882812 27.203125 -8.09375 L 27.203125 -97.8125 C 27.203125 -100.019531 27.507812 -102.65625 28.125 -105.71875 C 28.738281 -108.78125 29.414062 -111.289062 30.15625 -113.25 L 82.734375 -244.890625 C 83.710938 -246.847656 85.242188 -248.5625 87.328125 -250.03125 C 89.410156 -251.507812 91.554688 -252.25 93.765625 -252.25 Z M 79.421875 -100.75 L 176.5 -100.75 L 136.046875 -201.875 L 119.875 -201.875 Z M 79.421875 -100.75 "/></g></g></g><g fill="rgb(53.329468%, 100%, 100%)" fill-opacity="1"><g transform="translate(4011.276238, 1663.208412)"><g><path d="M 225.40625 -7.359375 C 226.382812 -5.390625 226.382812 -3.671875 225.40625 -2.203125 C 224.425781 -0.734375 222.832031 0 220.625 0 L 181.28125 0 C 179.070312 0 176.925781 -0.734375 174.84375 -2.203125 C 172.757812 -3.671875 171.226562 -5.390625 170.25 -7.359375 L 127.953125 -100.75 L 77.953125 -100.75 L 77.953125 -8.09375 C 77.953125 -5.882812 77.15625 -3.984375 75.5625 -2.390625 C 73.96875 -0.796875 72.066406 0 69.859375 0 L 35.296875 0 C 33.085938 0 31.1875 -0.796875 29.59375 -2.390625 C 28 -3.984375 27.203125 -5.882812 27.203125 -8.09375 L 27.203125 -244.15625 C 27.203125 -246.363281 28 -248.265625 29.59375 -249.859375 C 31.1875 -251.453125 33.085938 -252.25 35.296875 -252.25 L 164 -252.25 C 173.0625 -252.25 181.515625 -250.53125 189.359375 -247.09375 C 197.210938 -243.664062 204.078125 -239.007812 209.953125 -233.125 C 215.835938 -227.238281 220.492188 -220.375 223.921875 -212.53125 C 227.359375 -204.6875 229.078125 -196.226562 229.078125 -187.15625 L 229.078125 -165.828125 C 229.078125 -158.472656 227.910156 -151.425781 225.578125 -144.6875 C 223.253906 -137.945312 220.007812 -131.816406 215.84375 -126.296875 C 211.675781 -120.785156 206.710938 -116.066406 200.953125 -112.140625 C 195.191406 -108.222656 188.878906 -105.285156 182.015625 -103.328125 Z M 164 -151.125 C 168.164062 -151.125 171.65625 -152.53125 174.46875 -155.34375 C 177.289062 -158.164062 178.703125 -161.660156 178.703125 -165.828125 L 178.703125 -187.15625 C 178.703125 -191.320312 177.289062 -194.816406 174.46875 -197.640625 C 171.65625 -200.460938 168.164062 -201.875 164 -201.875 L 77.953125 -201.875 L 77.953125 -151.125 Z M 164 -151.125 "/></g></g></g><g fill="rgb(53.329468%, 100%, 100%)" fill-opacity="1"><g transform="translate(4267.569098, 1663.208412)"><g><path d="M 224.296875 -209.59375 C 224.296875 -207.382812 223.5 -205.546875 221.90625 -204.078125 C 220.3125 -202.609375 218.410156 -201.875 216.203125 -201.875 L 153.328125 -201.875 L 153.328125 -50.375 L 216.203125 -50.375 C 218.410156 -50.375 220.3125 -49.578125 221.90625 -47.984375 C 223.5 -46.390625 224.296875 -44.488281 224.296875 -42.28125 L 224.296875 -8.09375 C 224.296875 -5.882812 223.5 -3.984375 221.90625 -2.390625 C 220.3125 -0.796875 218.410156 0 216.203125 0 L 40.453125 0 C 38.242188 0 36.34375 -0.796875 34.75 -2.390625 C 33.15625 -3.984375 32.359375 -5.882812 32.359375 -8.09375 L 32.359375 -42.28125 C 32.359375 -44.488281 33.15625 -46.390625 34.75 -47.984375 C 36.34375 -49.578125 38.242188 -50.375 40.453125 -50.375 L 102.953125 -50.375 L 102.953125 -201.875 L 40.453125 -201.875 C 38.242188 -201.875 36.34375 -202.609375 34.75 -204.078125 C 33.15625 -205.546875 32.359375 -207.382812 32.359375 -209.59375 L 32.359375 -244.15625 C 32.359375 -246.363281 33.15625 -248.265625 34.75 -249.859375 C 36.34375 -251.453125 38.242188 -252.25 40.453125 -252.25 L 216.203125 -252.25 C 218.410156 -252.25 220.3125 -251.453125 221.90625 -249.859375 C 223.5 -248.265625 224.296875 -246.363281 224.296875 -244.15625 Z M 224.296875 -209.59375 "/></g></g></g><g fill="rgb(53.329468%, 100%, 100%)" fill-opacity="1"><g transform="translate(2986.525613, 2170.995839)"><g><path d="M 186.796875 -176.5 C 184.585938 -176.5 182.6875 -177.296875 181.09375 -178.890625 C 179.5 -180.484375 178.703125 -182.382812 178.703125 -184.59375 L 178.703125 -187.15625 C 178.703125 -191.320312 177.289062 -194.816406 174.46875 -197.640625 C 171.65625 -200.460938 168.164062 -201.875 164 -201.875 L 92.296875 -201.875 C 88.128906 -201.875 84.695312 -200.460938 82 -197.640625 C 79.300781 -194.816406 77.953125 -191.320312 77.953125 -187.15625 L 77.953125 -65.078125 C 77.953125 -60.910156 79.300781 -57.414062 82 -54.59375 C 84.695312 -51.78125 88.128906 -50.375 92.296875 -50.375 L 164 -50.375 C 168.164062 -50.375 171.65625 -51.78125 174.46875 -54.59375 C 177.289062 -57.414062 178.703125 -60.910156 178.703125 -65.078125 L 178.703125 -67.65625 C 178.703125 -69.863281 179.5 -71.765625 181.09375 -73.359375 C 182.6875 -74.953125 184.585938 -75.75 186.796875 -75.75 L 220.984375 -75.75 C 223.191406 -75.75 225.09375 -74.953125 226.6875 -73.359375 C 228.28125 -71.765625 229.078125 -69.863281 229.078125 -67.65625 L 229.078125 -65.078125 C 229.078125 -56.015625 227.359375 -47.5625 223.921875 -39.71875 C 220.492188 -31.875 215.835938 -25.007812 209.953125 -19.125 C 204.078125 -13.238281 197.210938 -8.578125 189.359375 -5.140625 C 181.515625 -1.710938 173.0625 0 164 0 L 92.296875 0 C 83.472656 0 75.078125 -1.710938 67.109375 -5.140625 C 59.140625 -8.578125 52.210938 -13.238281 46.328125 -19.125 C 40.441406 -25.007812 35.78125 -31.875 32.34375 -39.71875 C 28.914062 -47.5625 27.203125 -56.015625 27.203125 -65.078125 L 27.203125 -187.15625 C 27.203125 -196.226562 28.914062 -204.6875 32.34375 -212.53125 C 35.78125 -220.375 40.441406 -227.238281 46.328125 -233.125 C 52.210938 -239.007812 59.140625 -243.664062 67.109375 -247.09375 C 75.078125 -250.53125 83.472656 -252.25 92.296875 -252.25 L 164 -252.25 C 173.0625 -252.25 181.515625 -250.53125 189.359375 -247.09375 C 197.210938 -243.664062 204.078125 -239.007812 209.953125 -233.125 C 215.835938 -227.238281 220.492188 -220.375 223.921875 -212.53125 C 227.359375 -204.6875 229.078125 -196.226562 229.078125 -187.15625 L 229.078125 -184.59375 C 229.078125 -182.382812 228.28125 -180.484375 226.6875 -178.890625 C 225.09375 -177.296875 223.191406 -176.5 220.984375 -176.5 Z M 186.796875 -176.5 "/></g></g></g><g fill="rgb(53.329468%, 100%, 100%)" fill-opacity="1"><g transform="translate(3242.818473, 2170.995839)"><g><path d="M 162.53125 -252.25 C 164.726562 -252.25 166.867188 -251.507812 168.953125 -250.03125 C 171.035156 -248.5625 172.445312 -246.847656 173.1875 -244.890625 L 226.140625 -113.25 C 226.867188 -111.289062 227.539062 -108.78125 228.15625 -105.71875 C 228.769531 -102.65625 229.078125 -100.019531 229.078125 -97.8125 L 229.078125 -8.09375 C 229.078125 -5.882812 228.28125 -3.984375 226.6875 -2.390625 C 225.09375 -0.796875 223.191406 0 220.984375 0 L 186.421875 0 C 184.210938 0 182.3125 -0.796875 180.71875 -2.390625 C 179.132812 -3.984375 178.34375 -5.882812 178.34375 -8.09375 L 178.34375 -50.375 L 77.578125 -50.375 L 77.578125 -8.09375 C 77.578125 -5.882812 76.78125 -3.984375 75.1875 -2.390625 C 73.601562 -0.796875 71.707031 0 69.5 0 L 35.296875 0 C 33.085938 0 31.1875 -0.796875 29.59375 -2.390625 C 28 -3.984375 27.203125 -5.882812 27.203125 -8.09375 L 27.203125 -97.8125 C 27.203125 -100.019531 27.507812 -102.65625 28.125 -105.71875 C 28.738281 -108.78125 29.414062 -111.289062 30.15625 -113.25 L 82.734375 -244.890625 C 83.710938 -246.847656 85.242188 -248.5625 87.328125 -250.03125 C 89.410156 -251.507812 91.554688 -252.25 93.765625 -252.25 Z M 79.421875 -100.75 L 176.5 -100.75 L 136.046875 -201.875 L 119.875 -201.875 Z M 79.421875 -100.75 "/></g></g></g><g fill="rgb(53.329468%, 100%, 100%)" fill-opacity="1"><g transform="translate(3499.111333, 2170.995839)"><g><path d="M 225.40625 -7.359375 C 226.382812 -5.390625 226.382812 -3.671875 225.40625 -2.203125 C 224.425781 -0.734375 222.832031 0 220.625 0 L 181.28125 0 C 179.070312 0 176.925781 -0.734375 174.84375 -2.203125 C 172.757812 -3.671875 171.226562 -5.390625 170.25 -7.359375 L 127.953125 -100.75 L 77.953125 -100.75 L 77.953125 -8.09375 C 77.953125 -5.882812 77.15625 -3.984375 75.5625 -2.390625 C 73.96875 -0.796875 72.066406 0 69.859375 0 L 35.296875 0 C 33.085938 0 31.1875 -0.796875 29.59375 -2.390625 C 28 -3.984375 27.203125 -5.882812 27.203125 -8.09375 L 27.203125 -244.15625 C 27.203125 -246.363281 28 -248.265625 29.59375 -249.859375 C 31.1875 -251.453125 33.085938 -252.25 35.296875 -252.25 L 164 -252.25 C 173.0625 -252.25 181.515625 -250.53125 189.359375 -247.09375 C 197.210938 -243.664062 204.078125 -239.007812 209.953125 -233.125 C 215.835938 -227.238281 220.492188 -220.375 223.921875 -212.53125 C 227.359375 -204.6875 229.078125 -196.226562 229.078125 -187.15625 L 229.078125 -165.828125 C 229.078125 -158.472656 227.910156 -151.425781 225.578125 -144.6875 C 223.253906 -137.945312 220.007812 -131.816406 215.84375 -126.296875 C 211.675781 -120.785156 206.710938 -116.066406 200.953125 -112.140625 C 195.191406 -108.222656 188.878906 -105.285156 182.015625 -103.328125 Z M 164 -151.125 C 168.164062 -151.125 171.65625 -152.53125 174.46875 -155.34375 C 177.289062 -158.164062 178.703125 -161.660156 178.703125 -165.828125 L 178.703125 -187.15625 C 178.703125 -191.320312 177.289062 -194.816406 174.46875 -197.640625 C 171.65625 -200.460938 168.164062 -201.875 164 -201.875 L 77.953125 -201.875 L 77.953125 -151.125 Z M 164 -151.125 "/></g></g></g><g fill="rgb(53.329468%, 100%, 100%)" fill-opacity="1"><g transform="translate(3755.404193, 2170.995839)"><g><path d="M 220.984375 -252.25 C 223.191406 -252.25 225.15625 -251.507812 226.875 -250.03125 C 228.34375 -248.320312 229.078125 -246.363281 229.078125 -244.15625 L 229.078125 -8.09375 C 229.078125 -5.882812 228.34375 -4.046875 226.875 -2.578125 C 225.15625 -0.859375 223.191406 0 220.984375 0 L 186.796875 0 C 184.585938 0 182.75 -0.859375 181.28125 -2.578125 C 179.5625 -4.046875 178.703125 -5.882812 178.703125 -8.09375 L 178.703125 -165.09375 L 148.546875 -117.296875 C 147.328125 -115.335938 145.613281 -113.625 143.40625 -112.15625 C 140.957031 -110.925781 138.628906 -110.3125 136.421875 -110.3125 L 120.234375 -110.3125 C 118.023438 -110.3125 115.695312 -110.925781 113.25 -112.15625 C 111.039062 -113.625 109.328125 -115.335938 108.109375 -117.296875 L 77.578125 -165.46875 L 77.578125 -8.09375 C 77.578125 -5.882812 76.84375 -4.046875 75.375 -2.578125 C 73.664062 -0.859375 71.707031 0 69.5 0 L 35.296875 0 C 33.085938 0 31.25 -0.859375 29.78125 -2.578125 C 28.0625 -4.046875 27.203125 -5.882812 27.203125 -8.09375 L 27.203125 -244.15625 C 27.203125 -246.363281 28.0625 -248.320312 29.78125 -250.03125 C 31.25 -251.507812 33.085938 -252.25 35.296875 -252.25 L 69.5 -252.25 L 72.0625 -251.875 C 73.289062 -251.632812 74.519531 -251.019531 75.75 -250.03125 C 78.195312 -248.8125 80.035156 -247.222656 81.265625 -245.265625 L 128.328125 -164 L 175.390625 -245.265625 C 176.617188 -247.222656 178.335938 -248.8125 180.546875 -250.03125 L 183.484375 -251.515625 C 184.460938 -252.003906 185.566406 -252.25 186.796875 -252.25 Z M 220.984375 -252.25 "/></g></g></g><g fill="rgb(53.329468%, 100%, 100%)" fill-opacity="1"><g transform="translate(4011.697054, 2170.995839)"><g><path d="M 225.03125 -209.59375 C 225.03125 -207.382812 224.296875 -205.546875 222.828125 -204.078125 C 221.359375 -202.609375 219.519531 -201.875 217.3125 -201.875 L 81.265625 -201.875 L 81.265625 -151.125 L 204.4375 -151.125 C 206.644531 -151.125 208.546875 -150.390625 210.140625 -148.921875 C 211.734375 -147.453125 212.53125 -145.613281 212.53125 -143.40625 L 212.53125 -108.84375 C 212.53125 -106.632812 211.734375 -104.734375 210.140625 -103.140625 C 208.546875 -101.546875 206.644531 -100.75 204.4375 -100.75 L 81.265625 -100.75 L 81.265625 -50.375 L 217.3125 -50.375 C 219.519531 -50.375 221.359375 -49.578125 222.828125 -47.984375 C 224.296875 -46.390625 225.03125 -44.488281 225.03125 -42.28125 L 225.03125 -8.09375 C 225.03125 -5.882812 224.296875 -3.984375 222.828125 -2.390625 C 221.359375 -0.796875 219.519531 0 217.3125 0 L 38.609375 0 C 36.398438 0 34.5625 -0.796875 33.09375 -2.390625 C 31.625 -3.984375 30.890625 -5.882812 30.890625 -8.09375 L 30.890625 -244.15625 C 30.890625 -246.363281 31.625 -248.265625 33.09375 -249.859375 C 34.5625 -251.453125 36.398438 -252.25 38.609375 -252.25 L 217.3125 -252.25 C 219.519531 -252.25 221.359375 -251.453125 222.828125 -249.859375 C 224.296875 -248.265625 225.03125 -246.363281 225.03125 -244.15625 Z M 225.03125 -209.59375 "/></g></g></g><g fill="rgb(53.329468%, 100%, 100%)" fill-opacity="1"><g transform="translate(4267.622267, 2170.995839)"><g><path d="M 178.34375 -244.15625 C 178.34375 -246.363281 179.132812 -248.265625 180.71875 -249.859375 C 182.3125 -251.453125 184.210938 -252.25 186.421875 -252.25 L 220.984375 -252.25 C 223.191406 -252.25 225.09375 -251.453125 226.6875 -249.859375 C 228.28125 -248.265625 229.078125 -246.363281 229.078125 -244.15625 L 229.078125 -8.09375 C 229.078125 -5.882812 228.28125 -3.984375 226.6875 -2.390625 C 225.09375 -0.796875 223.191406 0 220.984375 0 L 186.421875 0 C 184.210938 0 182.3125 -0.796875 180.71875 -2.390625 C 179.132812 -3.984375 178.34375 -5.882812 178.34375 -8.09375 L 178.34375 -94.125 L 77.578125 -184.59375 L 77.578125 -8.09375 C 77.578125 -5.882812 76.78125 -3.984375 75.1875 -2.390625 C 73.601562 -0.796875 71.707031 0 69.5 0 L 35.296875 0 C 33.085938 0 31.1875 -0.796875 29.59375 -2.390625 C 28 -3.984375 27.203125 -5.882812 27.203125 -8.09375 L 27.203125 -244.15625 C 27.203125 -246.363281 28 -248.265625 29.59375 -249.859375 C 31.1875 -251.453125 33.085938 -252.25 35.296875 -252.25 L 69.5 -252.25 C 71.707031 -252.25 74.15625 -251.695312 76.84375 -250.59375 C 79.539062 -249.488281 81.75 -248.203125 83.46875 -246.734375 L 178.34375 -161.796875 Z M 178.34375 -244.15625 "/></g></g></g><g fill="rgb(0%, 0%, 0%)" fill-opacity="1"><g transform="translate(1383.836217, 1116.790919)"><g><path d="M 6.421875 -14.671875 L 31.984375 -14.671875 L 31.984375 -125.953125 L 6.421875 -125.953125 L 6.421875 -140.640625 L 56.09375 -142.859375 L 59.375 -114.28125 C 61.125 -119.4375 63.65625 -124.046875 66.96875 -128.109375 C 70.289062 -132.179688 74.050781 -135.394531 78.25 -137.75 C 86.28125 -142.207031 94.753906 -144.4375 103.671875 -144.4375 C 107.078125 -144.4375 109.957031 -144.28125 112.3125 -143.96875 C 114.675781 -143.664062 117.34375 -143.035156 120.3125 -142.078125 C 123.632812 -140.941406 126.492188 -139.410156 128.890625 -137.484375 C 131.296875 -135.566406 133.640625 -132.859375 135.921875 -129.359375 C 138.097656 -125.867188 139.929688 -121.585938 141.421875 -116.515625 C 145.523438 -125.867188 151.222656 -132.859375 158.515625 -137.484375 C 165.816406 -142.117188 174.097656 -144.4375 183.359375 -144.4375 C 186.328125 -144.4375 188.96875 -144.300781 191.28125 -144.03125 C 193.601562 -143.769531 196.160156 -143.207031 198.953125 -142.34375 C 202.097656 -141.375 204.875 -140.144531 207.28125 -138.65625 C 209.6875 -137.175781 212.15625 -135.171875 214.6875 -132.640625 C 217.300781 -129.929688 219.4375 -126.847656 221.09375 -123.390625 C 222.757812 -119.941406 224.160156 -115.6875 225.296875 -110.625 C 226.347656 -105.550781 226.875 -99.828125 226.875 -93.453125 L 226.875 -14.671875 L 250.984375 -14.671875 L 250.984375 0 L 177.46875 0 L 177.46875 -14.671875 L 198.6875 -14.671875 L 198.6875 -93.1875 C 198.6875 -104.28125 196.503906 -112.601562 192.140625 -118.15625 C 187.773438 -123.707031 181.613281 -126.484375 173.65625 -126.484375 C 167.632812 -126.484375 162.394531 -125.171875 157.9375 -122.546875 C 153.476562 -119.921875 150.066406 -116.289062 147.703125 -111.65625 C 145.347656 -107.03125 144.171875 -101.75 144.171875 -95.8125 L 144.171875 -14.671875 L 166.71875 -14.671875 L 166.71875 0 L 93.453125 0 L 93.453125 -14.671875 L 116 -14.671875 L 116 -93.1875 C 116 -104.28125 113.8125 -112.601562 109.4375 -118.15625 C 105.070312 -123.707031 98.910156 -126.484375 90.953125 -126.484375 C 86.066406 -126.484375 81.722656 -125.539062 77.921875 -123.65625 C 74.117188 -121.78125 71.082031 -119.269531 68.8125 -116.125 C 66.707031 -113.15625 64.976562 -109.460938 63.625 -105.046875 C 62.269531 -100.640625 61.332031 -96.117188 60.8125 -91.484375 C 60.375 -86.503906 60.15625 -81.609375 60.15625 -76.796875 L 60.15625 -14.671875 L 82.703125 -14.671875 L 82.703125 0 L 6.421875 0 Z M 6.421875 -14.671875 "/></g></g></g><g fill="rgb(0%, 0%, 0%)" fill-opacity="1"><g transform="translate(1636.635158, 1116.790919)"><g><path d="M 77.59375 3.53125 C 68.332031 3.53125 59.53125 1.875 51.1875 -1.4375 C 42.84375 -4.757812 35.609375 -9.476562 29.484375 -15.59375 C 23.285156 -21.707031 18.4375 -29.285156 14.9375 -38.328125 C 11.445312 -47.378906 9.703125 -57.144531 9.703125 -67.625 C 9.703125 -77.757812 11.226562 -87.367188 14.28125 -96.453125 C 17.34375 -105.546875 21.757812 -113.71875 27.53125 -120.96875 C 33.382812 -128.3125 40.914062 -134.054688 50.125 -138.203125 C 59.34375 -142.359375 69.546875 -144.4375 80.734375 -144.4375 C 87.109375 -144.4375 93.507812 -143.492188 99.9375 -141.609375 C 106.363281 -139.734375 112.285156 -137.003906 117.703125 -133.421875 C 123.378906 -129.660156 127.898438 -124.742188 131.265625 -118.671875 C 134.628906 -112.609375 136.3125 -105.90625 136.3125 -98.5625 C 136.3125 -94.976562 135.476562 -91.546875 133.8125 -88.265625 C 132.15625 -84.992188 129.753906 -82.351562 126.609375 -80.34375 C 123.460938 -78.332031 119.835938 -77.328125 115.734375 -77.328125 C 109.960938 -77.328125 105.15625 -79.03125 101.3125 -82.4375 C 97.46875 -85.84375 95.546875 -90.300781 95.546875 -95.8125 C 95.546875 -101.3125 97.488281 -105.675781 101.375 -108.90625 C 105.269531 -112.144531 110.054688 -113.765625 115.734375 -113.765625 C 112.765625 -118.566406 108.613281 -122.410156 103.28125 -125.296875 C 97.945312 -128.179688 91.960938 -129.625 85.328125 -129.625 C 77.898438 -129.625 71.148438 -127.984375 65.078125 -124.703125 C 59.003906 -121.429688 54.128906 -116.957031 50.453125 -111.28125 C 46.878906 -105.769531 44.148438 -99.628906 42.265625 -92.859375 C 40.390625 -86.085938 39.453125 -79.117188 39.453125 -71.953125 C 39.453125 -60.765625 41.195312 -51.109375 44.6875 -42.984375 C 48.1875 -34.859375 53.234375 -28.609375 59.828125 -24.234375 C 66.429688 -19.867188 74.316406 -17.6875 83.484375 -17.6875 C 88.640625 -17.6875 93.6875 -18.753906 98.625 -20.890625 C 103.5625 -23.035156 107.820312 -25.859375 111.40625 -29.359375 C 114.726562 -32.679688 117.523438 -36.023438 119.796875 -39.390625 C 122.066406 -42.753906 123.640625 -45.832031 124.515625 -48.625 L 139.328125 -43.78125 C 137.054688 -34.164062 133.125 -25.816406 127.53125 -18.734375 C 121.9375 -11.660156 114.898438 -6.179688 106.421875 -2.296875 C 97.953125 1.585938 88.34375 3.53125 77.59375 3.53125 Z M 77.59375 3.53125 "/></g></g></g><g fill="rgb(0%, 0%, 0%)" fill-opacity="1"><g transform="translate(1583.558643, 1484.499056)"><g/></g></g><g fill="rgb(53.329468%, 100%, 100%)" fill-opacity="1"><g transform="translate(1266.652119, 1365.735874)"><g><path d="M 29.125 0 C 27.3125 0 25.742188 -0.65625 24.421875 -1.96875 C 23.109375 -3.28125 22.453125 -4.847656 22.453125 -6.671875 L 22.453125 -201.5 C 22.453125 -203.3125 23.109375 -204.875 24.421875 -206.1875 C 25.742188 -207.507812 27.3125 -208.171875 29.125 -208.171875 L 135.34375 -208.171875 C 142.625 -208.171875 149.550781 -206.753906 156.125 -203.921875 C 162.695312 -201.085938 168.410156 -197.242188 173.265625 -192.390625 C 178.117188 -187.535156 181.960938 -181.867188 184.796875 -175.390625 C 187.628906 -168.921875 189.046875 -161.941406 189.046875 -154.453125 L 189.046875 -53.71875 C 189.046875 -46.226562 187.628906 -39.242188 184.796875 -32.765625 C 181.960938 -26.296875 178.117188 -20.632812 173.265625 -15.78125 C 168.410156 -10.925781 162.695312 -7.082031 156.125 -4.25 C 149.550781 -1.414062 142.625 0 135.34375 0 Z M 64.03125 -41.578125 L 135.34375 -41.578125 C 138.78125 -41.578125 141.609375 -42.738281 143.828125 -45.0625 C 146.054688 -47.382812 147.171875 -50.269531 147.171875 -53.71875 L 147.171875 -154.453125 C 147.171875 -157.890625 146.054688 -160.769531 143.828125 -163.09375 C 141.609375 -165.425781 138.78125 -166.59375 135.34375 -166.59375 L 64.03125 -166.59375 Z M 64.03125 -41.578125 "/></g></g></g><g fill="rgb(53.329468%, 100%, 100%)" fill-opacity="1"><g transform="translate(1478.131802, 1365.735874)"><g><path d="M 185.71875 -172.96875 C 185.71875 -171.144531 185.109375 -169.625 183.890625 -168.40625 C 182.679688 -167.195312 181.164062 -166.59375 179.34375 -166.59375 L 67.0625 -166.59375 L 67.0625 -124.71875 L 168.71875 -124.71875 C 170.539062 -124.71875 172.109375 -124.109375 173.421875 -122.890625 C 174.734375 -121.679688 175.390625 -120.164062 175.390625 -118.34375 L 175.390625 -89.828125 C 175.390625 -88.003906 174.734375 -86.429688 173.421875 -85.109375 C 172.109375 -83.796875 170.539062 -83.140625 168.71875 -83.140625 L 67.0625 -83.140625 L 67.0625 -41.578125 L 179.34375 -41.578125 C 181.164062 -41.578125 182.679688 -40.914062 183.890625 -39.59375 C 185.109375 -38.28125 185.71875 -36.710938 185.71875 -34.890625 L 185.71875 -6.671875 C 185.71875 -4.847656 185.109375 -3.28125 183.890625 -1.96875 C 182.679688 -0.65625 181.164062 0 179.34375 0 L 31.859375 0 C 30.035156 0 28.515625 -0.65625 27.296875 -1.96875 C 26.085938 -3.28125 25.484375 -4.847656 25.484375 -6.671875 L 25.484375 -201.5 C 25.484375 -203.3125 26.085938 -204.875 27.296875 -206.1875 C 28.515625 -207.507812 30.035156 -208.171875 31.859375 -208.171875 L 179.34375 -208.171875 C 181.164062 -208.171875 182.679688 -207.507812 183.890625 -206.1875 C 185.109375 -204.875 185.71875 -203.3125 185.71875 -201.5 Z M 185.71875 -172.96875 "/></g></g></g><g fill="rgb(53.329468%, 100%, 100%)" fill-opacity="1"><g transform="translate(1689.3081, 1365.735874)"><g><path d="M 133.828125 0 L 77.375 0 C 75.5625 0 73.742188 -0.601562 71.921875 -1.8125 C 70.097656 -3.03125 68.882812 -4.445312 68.28125 -6.0625 L 24.890625 -114.703125 C 24.078125 -116.328125 23.46875 -118.398438 23.0625 -120.921875 C 22.65625 -123.453125 22.453125 -125.628906 22.453125 -127.453125 L 22.453125 -201.5 C 22.453125 -203.3125 23.054688 -204.875 24.265625 -206.1875 C 25.484375 -207.507812 27.003906 -208.171875 28.828125 -208.171875 L 57.359375 -208.171875 C 59.171875 -208.171875 60.734375 -207.507812 62.046875 -206.1875 C 63.367188 -204.875 64.03125 -203.3125 64.03125 -201.5 L 64.03125 -135.34375 C 64.03125 -133.519531 64.234375 -131.394531 64.640625 -128.96875 C 65.046875 -126.539062 65.648438 -124.519531 66.453125 -122.90625 L 98.921875 -41.578125 L 112.28125 -41.578125 L 144.75 -122.90625 C 145.5625 -124.519531 146.164062 -126.539062 146.5625 -128.96875 C 146.96875 -131.394531 147.171875 -133.519531 147.171875 -135.34375 L 147.171875 -201.5 C 147.171875 -203.3125 147.828125 -204.875 149.140625 -206.1875 C 150.460938 -207.507812 152.03125 -208.171875 153.84375 -208.171875 L 182.375 -208.171875 C 184.195312 -208.171875 185.710938 -207.507812 186.921875 -206.1875 C 188.140625 -204.875 188.75 -203.3125 188.75 -201.5 L 188.75 -127.453125 C 188.75 -125.628906 188.546875 -123.453125 188.140625 -120.921875 C 187.734375 -118.398438 187.125 -116.328125 186.3125 -114.703125 L 142.921875 -6.0625 C 142.316406 -4.445312 141.101562 -3.03125 139.28125 -1.8125 C 137.457031 -0.601562 135.640625 0 133.828125 0 Z M 133.828125 0 "/></g></g></g><g fill="rgb(53.329468%, 100%, 100%)" fill-opacity="1"><g transform="translate(1583.608872, 1698.424188)"><g/></g></g></svg>