<svg xmlns="http://www.w3.org/2000/svg" xmlns:xlink="http://www.w3.org/1999/xlink" width="6912" zoomAndPan="magnify" viewBox="0 0 5184 2592.000001" height="3456" preserveAspectRatio="xMidYMid meet" version="1.0"><defs><filter x="0%" y="0%" width="100%" xlink:type="simple" xlink:actuate="onLoad" height="100%" id="id1" xlink:show="other"><feColorMatrix values="0 0 0 0 1 0 0 0 0 1 0 0 0 0 1 0 0 0 1 0" color-interpolation-filters="sRGB"/></filter><g><g id="id2"/><g id="id3"/><g id="id4"/><g id="id5"/><g id="id6"/></g><clipPath id="id7"><path d="M 1 0 L 5183 0 L 5183 2591 L 1 2591 Z M 1 0 " clip-rule="nonzero"/></clipPath><clipPath id="id8"><path d="M 2703.191406 119.289062 L 5085.023438 119.289062 L 5085.023438 2501.121094 L 2703.191406 2501.121094 Z M 2703.191406 119.289062 " clip-rule="nonzero"/></clipPath><mask id="id9"><g filter="url(#id1)"><rect x="-518.4" width="6220.8" fill="rgb(0%, 0%, 0%)" y="-259.2" height="3110.400001" fill-opacity="0.349"/></g></mask><clipPath id="id10"><path d="M 3.847656 2028 L 59 2028 L 59 2082.492188 L 3.847656 2082.492188 Z M 3.847656 2028 " clip-rule="nonzero"/></clipPath><clipPath id="id11"><path d="M 159 2028 L 215 2028 L 215 2082.492188 L 159 2082.492188 Z M 159 2028 " clip-rule="nonzero"/></clipPath><clipPath id="id12"><path d="M 315 2028 L 370 2028 L 370 2082.492188 L 315 2082.492188 Z M 315 2028 " clip-rule="nonzero"/></clipPath><clipPath id="id13"><path d="M 470 2028 L 526 2028 L 526 2082.492188 L 470 2082.492188 Z M 470 2028 " clip-rule="nonzero"/></clipPath><clipPath id="id14"><path d="M 626 2028 L 682 2028 L 682 2082.492188 L 626 2082.492188 Z M 626 2028 " clip-rule="nonzero"/></clipPath><clipPath id="id15"><path d="M 782 2028 L 837 2028 L 837 2082.492188 L 782 2082.492188 Z M 782 2028 " clip-rule="nonzero"/></clipPath><clipPath id="id16"><path d="M 938 2028 L 993 2028 L 993 2082.492188 L 938 2082.492188 Z M 938 2028 " clip-rule="nonzero"/></clipPath><clipPath id="id17"><path d="M 1093 2028 L 1149 2028 L 1149 2082.492188 L 1093 2082.492188 Z M 1093 2028 " clip-rule="nonzero"/></clipPath><clipPath id="id18"><path d="M 1249 2028 L 1305 2028 L 1305 2082.492188 L 1249 2082.492188 Z M 1249 2028 " clip-rule="nonzero"/></clipPath><clipPath id="id19"><path d="M 1405 2028 L 1460 2028 L 1460 2082.492188 L 1405 2082.492188 Z M 1405 2028 " clip-rule="nonzero"/></clipPath><clipPath id="id20"><path d="M 1561 2028 L 1616 2028 L 1616 2082.492188 L 1561 2082.492188 Z M 1561 2028 " clip-rule="nonzero"/></clipPath><clipPath id="id21"><path d="M 1716 2028 L 1772 2028 L 1772 2082.492188 L 1716 2082.492188 Z M 1716 2028 " clip-rule="nonzero"/></clipPath><clipPath id="id22"><path d="M 1872 2028 L 1928 2028 L 1928 2082.492188 L 1872 2082.492188 Z M 1872 2028 " clip-rule="nonzero"/></clipPath><clipPath id="id23"><path d="M 2028 2028 L 2082.796875 2028 L 2082.796875 2082.492188 L 2028 2082.492188 Z M 2028 2028 " clip-rule="nonzero"/></clipPath><clipPath id="id24"><path d="M 3.847656 1872 L 59 1872 L 59 1927 L 3.847656 1927 Z M 3.847656 1872 " clip-rule="nonzero"/></clipPath><clipPath id="id25"><path d="M 3.847656 1716 L 59 1716 L 59 1772 L 3.847656 1772 Z M 3.847656 1716 " clip-rule="nonzero"/></clipPath><clipPath id="id26"><path d="M 3.847656 1560 L 59 1560 L 59 1616 L 3.847656 1616 Z M 3.847656 1560 " clip-rule="nonzero"/></clipPath><clipPath id="id27"><path d="M 3.847656 1405 L 59 1405 L 59 1460 L 3.847656 1460 Z M 3.847656 1405 " clip-rule="nonzero"/></clipPath><clipPath id="id28"><path d="M 3.847656 1249 L 59 1249 L 59 1304 L 3.847656 1304 Z M 3.847656 1249 " clip-rule="nonzero"/></clipPath><clipPath id="id29"><path d="M 3.847656 1093 L 59 1093 L 59 1149 L 3.847656 1149 Z M 3.847656 1093 " clip-rule="nonzero"/></clipPath><clipPath id="id30"><path d="M 3.847656 937 L 59 937 L 59 993 L 3.847656 993 Z M 3.847656 937 " clip-rule="nonzero"/></clipPath><clipPath id="id31"><path d="M 3.847656 782 L 59 782 L 59 837 L 3.847656 837 Z M 3.847656 782 " clip-rule="nonzero"/></clipPath><clipPath id="id32"><path d="M 3.847656 626 L 59 626 L 59 681 L 3.847656 681 Z M 3.847656 626 " clip-rule="nonzero"/></clipPath><clipPath id="id33"><path d="M 3.847656 470 L 59 470 L 59 526 L 3.847656 526 Z M 3.847656 470 " clip-rule="nonzero"/></clipPath><clipPath id="id34"><path d="M 3.847656 314 L 59 314 L 59 370 L 3.847656 370 Z M 3.847656 314 " clip-rule="nonzero"/></clipPath><clipPath id="id35"><path d="M 3.847656 159 L 59 159 L 59 214 L 3.847656 214 Z M 3.847656 159 " clip-rule="nonzero"/></clipPath><clipPath id="id36"><path d="M 3.847656 3.542969 L 59 3.542969 L 59 58 L 3.847656 58 Z M 3.847656 3.542969 " clip-rule="nonzero"/></clipPath><clipPath id="id37"><rect x="0" width="2086" y="0" height="2086"/></clipPath><clipPath id="id38"><path d="M 835 1074 L 1199 1074 L 1199 1769.617188 L 835 1769.617188 Z M 835 1074 " clip-rule="nonzero"/></clipPath><clipPath id="id39"><path d="M 1827 1074 L 2192 1074 L 2192 1769.617188 L 1827 1769.617188 Z M 1827 1074 " clip-rule="nonzero"/></clipPath></defs><g clip-path="url(#id7)"><path fill="rgb(100%, 100%, 100%)" d="M 1 0 L 5183 0 L 5183 2598.496094 L 1 2598.496094 Z M 1 0 " fill-opacity="1" fill-rule="nonzero"/></g><path fill="rgb(100%, 100%, 100%)" d="M 1 0 L 5183 0 L 5183 2591 L 1 2591 Z M 1 0 " fill-opacity="1" fill-rule="nonzero"/><path fill="rgb(100%, 100%, 100%)" d="M 1 0 L 5183 0 L 5183 2591 L 1 2591 Z M 1 0 " fill-opacity="1" fill-rule="nonzero"/><path fill="rgb(100%, 100%, 100%)" d="M 1 0 L 5183 0 L 5183 2591 L 1 2591 Z M 1 0 " fill-opacity="1" fill-rule="nonzero"/><g clip-path="url(#id8)"><path fill="rgb(53.329468%, 100%, 100%)" d="M 2703.191406 119.289062 L 2703.191406 2501.121094 L 5085.023438 2501.121094 L 5085.023438 119.289062 Z M 5058.105469 2474.207031 L 2730.105469 2474.207031 L 2730.105469 146.207031 L 5058.105469 146.207031 Z M 5058.105469 2474.207031 " fill-opacity="1" fill-rule="nonzero"/></g><path fill="rgb(53.329468%, 100%, 100%)" d="M 181.933594 153.734375 L 2896.953125 153.734375 L 2896.953125 2493.898438 L 181.933594 2493.898438 L 181.933594 153.734375 " fill-opacity="1" fill-rule="nonzero"/><path fill="rgb(53.329468%, 100%, 100%)" d="M 2906.382812 2501.441406 L 172.503906 2501.441406 L 172.503906 142.421875 L 2906.382812 142.421875 L 2906.382812 2501.441406 M 191.359375 2482.582031 L 2887.527344 2482.582031 L 2887.527344 161.277344 L 191.359375 161.277344 L 191.359375 2482.582031 " fill-opacity="1" fill-rule="nonzero"/><path fill="rgb(96.469116%, 50.979614%, 78.42865%)" d="M 119.710938 89.621094 L 2834.730469 89.621094 L 2834.730469 2429.785156 L 119.710938 2429.785156 L 119.710938 89.621094 " fill-opacity="1" fill-rule="nonzero"/><g mask="url(#id9)"><g transform="matrix(1, 0, 0, 1, 152, 329)"><g clip-path="url(#id37)"><g clip-path="url(#id10)"><path fill="rgb(70.588684%, 32.548523%, 55.688477%)" d="M 58.289062 2055.300781 C 58.289062 2070.355469 46.085938 2082.558594 31.035156 2082.558594 C 15.984375 2082.558594 3.78125 2070.355469 3.78125 2055.300781 C 3.78125 2040.25 15.984375 2028.046875 31.035156 2028.046875 C 46.085938 2028.046875 58.289062 2040.25 58.289062 2055.300781 " fill-opacity="1" fill-rule="nonzero"/></g><g clip-path="url(#id11)"><path fill="rgb(70.588684%, 32.548523%, 55.688477%)" d="M 214.019531 2055.300781 C 214.019531 2070.355469 201.816406 2082.558594 186.765625 2082.558594 C 171.726562 2082.558594 159.523438 2070.355469 159.523438 2055.300781 C 159.523438 2040.25 171.726562 2028.046875 186.765625 2028.046875 C 201.816406 2028.046875 214.019531 2040.25 214.019531 2055.300781 " fill-opacity="1" fill-rule="nonzero"/></g><g clip-path="url(#id12)"><path fill="rgb(70.588684%, 32.548523%, 55.688477%)" d="M 369.761719 2055.300781 C 369.761719 2070.355469 357.5625 2082.558594 342.507812 2082.558594 C 327.457031 2082.558594 315.253906 2070.355469 315.253906 2055.300781 C 315.253906 2040.25 327.457031 2028.046875 342.507812 2028.046875 C 357.5625 2028.046875 369.761719 2040.25 369.761719 2055.300781 " fill-opacity="1" fill-rule="nonzero"/></g><g clip-path="url(#id13)"><path fill="rgb(70.588684%, 32.548523%, 55.688477%)" d="M 525.496094 2055.300781 C 525.496094 2070.355469 513.292969 2082.558594 498.238281 2082.558594 C 483.1875 2082.558594 470.996094 2070.355469 470.996094 2055.300781 C 470.996094 2040.25 483.1875 2028.046875 498.238281 2028.046875 C 513.292969 2028.046875 525.496094 2040.25 525.496094 2055.300781 " fill-opacity="1" fill-rule="nonzero"/></g><g clip-path="url(#id14)"><path fill="rgb(70.588684%, 32.548523%, 55.688477%)" d="M 681.238281 2055.300781 C 681.238281 2070.355469 669.035156 2082.558594 653.980469 2082.558594 C 638.929688 2082.558594 626.726562 2070.355469 626.726562 2055.300781 C 626.726562 2040.25 638.929688 2028.046875 653.980469 2028.046875 C 669.035156 2028.046875 681.238281 2040.25 681.238281 2055.300781 " fill-opacity="1" fill-rule="nonzero"/></g><g clip-path="url(#id15)"><path fill="rgb(70.588684%, 32.548523%, 55.688477%)" d="M 836.96875 2055.300781 C 836.96875 2070.355469 824.765625 2082.558594 809.714844 2082.558594 C 794.660156 2082.558594 782.457031 2070.355469 782.457031 2055.300781 C 782.457031 2040.25 794.660156 2028.046875 809.714844 2028.046875 C 824.765625 2028.046875 836.96875 2040.25 836.96875 2055.300781 " fill-opacity="1" fill-rule="nonzero"/></g><g clip-path="url(#id16)"><path fill="rgb(70.588684%, 32.548523%, 55.688477%)" d="M 992.710938 2055.300781 C 992.710938 2070.355469 980.507812 2082.558594 965.457031 2082.558594 C 950.402344 2082.558594 938.199219 2070.355469 938.199219 2055.300781 C 938.199219 2040.25 950.402344 2028.046875 965.457031 2028.046875 C 980.507812 2028.046875 992.710938 2040.25 992.710938 2055.300781 " fill-opacity="1" fill-rule="nonzero"/></g><g clip-path="url(#id17)"><path fill="rgb(70.588684%, 32.548523%, 55.688477%)" d="M 1148.441406 2055.300781 C 1148.441406 2070.355469 1136.238281 2082.558594 1121.1875 2082.558594 C 1106.132812 2082.558594 1093.933594 2070.355469 1093.933594 2055.300781 C 1093.933594 2040.25 1106.132812 2028.046875 1121.1875 2028.046875 C 1136.238281 2028.046875 1148.441406 2040.25 1148.441406 2055.300781 " fill-opacity="1" fill-rule="nonzero"/></g><g clip-path="url(#id18)"><path fill="rgb(70.588684%, 32.548523%, 55.688477%)" d="M 1304.183594 2055.300781 C 1304.183594 2070.355469 1291.980469 2082.558594 1276.929688 2082.558594 C 1261.878906 2082.558594 1249.675781 2070.355469 1249.675781 2055.300781 C 1249.675781 2040.25 1261.878906 2028.046875 1276.929688 2028.046875 C 1291.980469 2028.046875 1304.183594 2040.25 1304.183594 2055.300781 " fill-opacity="1" fill-rule="nonzero"/></g><g clip-path="url(#id19)"><path fill="rgb(70.588684%, 32.548523%, 55.688477%)" d="M 1459.914062 2055.300781 C 1459.914062 2070.355469 1447.710938 2082.558594 1432.660156 2082.558594 C 1417.609375 2082.558594 1405.40625 2070.355469 1405.40625 2055.300781 C 1405.40625 2040.25 1417.609375 2028.046875 1432.660156 2028.046875 C 1447.710938 2028.046875 1459.914062 2040.25 1459.914062 2055.300781 " fill-opacity="1" fill-rule="nonzero"/></g><g clip-path="url(#id20)"><path fill="rgb(70.588684%, 32.548523%, 55.688477%)" d="M 1615.644531 2055.300781 C 1615.644531 2070.355469 1603.457031 2082.558594 1588.402344 2082.558594 C 1573.351562 2082.558594 1561.148438 2070.355469 1561.148438 2055.300781 C 1561.148438 2040.25 1573.351562 2028.046875 1588.402344 2028.046875 C 1603.457031 2028.046875 1615.644531 2040.25 1615.644531 2055.300781 " fill-opacity="1" fill-rule="nonzero"/></g><g clip-path="url(#id21)"><path fill="rgb(70.588684%, 32.548523%, 55.688477%)" d="M 1771.386719 2055.300781 C 1771.386719 2070.355469 1759.1875 2082.558594 1744.132812 2082.558594 C 1729.082031 2082.558594 1716.878906 2070.355469 1716.878906 2055.300781 C 1716.878906 2040.25 1729.082031 2028.046875 1744.132812 2028.046875 C 1759.1875 2028.046875 1771.386719 2040.25 1771.386719 2055.300781 " fill-opacity="1" fill-rule="nonzero"/></g><g clip-path="url(#id22)"><path fill="rgb(70.588684%, 32.548523%, 55.688477%)" d="M 1927.117188 2055.300781 C 1927.117188 2070.355469 1914.917969 2082.558594 1899.875 2082.558594 C 1884.824219 2082.558594 1872.621094 2070.355469 1872.621094 2055.300781 C 1872.621094 2040.25 1884.824219 2028.046875 1899.875 2028.046875 C 1914.917969 2028.046875 1927.117188 2040.25 1927.117188 2055.300781 " fill-opacity="1" fill-rule="nonzero"/></g><g clip-path="url(#id23)"><path fill="rgb(70.588684%, 32.548523%, 55.688477%)" d="M 2082.863281 2055.300781 C 2082.863281 2070.355469 2070.660156 2082.558594 2055.605469 2082.558594 C 2040.554688 2082.558594 2028.351562 2070.355469 2028.351562 2055.300781 C 2028.351562 2040.25 2040.554688 2028.046875 2055.605469 2028.046875 C 2070.660156 2028.046875 2082.863281 2040.25 2082.863281 2055.300781 " fill-opacity="1" fill-rule="nonzero"/></g><g clip-path="url(#id24)"><path fill="rgb(70.588684%, 32.548523%, 55.688477%)" d="M 58.289062 1899.570312 C 58.289062 1914.613281 46.085938 1926.8125 31.035156 1926.8125 C 15.984375 1926.8125 3.78125 1914.613281 3.78125 1899.570312 C 3.78125 1884.519531 15.984375 1872.316406 31.035156 1872.316406 C 46.085938 1872.316406 58.289062 1884.519531 58.289062 1899.570312 " fill-opacity="1" fill-rule="nonzero"/></g><path fill="rgb(70.588684%, 32.548523%, 55.688477%)" d="M 214.019531 1899.570312 C 214.019531 1914.613281 201.816406 1926.8125 186.765625 1926.8125 C 171.726562 1926.8125 159.523438 1914.613281 159.523438 1899.570312 C 159.523438 1884.519531 171.726562 1872.316406 186.765625 1872.316406 C 201.816406 1872.316406 214.019531 1884.519531 214.019531 1899.570312 " fill-opacity="1" fill-rule="nonzero"/><path fill="rgb(70.588684%, 32.548523%, 55.688477%)" d="M 369.761719 1899.570312 C 369.761719 1914.613281 357.5625 1926.8125 342.507812 1926.8125 C 327.457031 1926.8125 315.253906 1914.613281 315.253906 1899.570312 C 315.253906 1884.519531 327.457031 1872.316406 342.507812 1872.316406 C 357.5625 1872.316406 369.761719 1884.519531 369.761719 1899.570312 " fill-opacity="1" fill-rule="nonzero"/><path fill="rgb(70.588684%, 32.548523%, 55.688477%)" d="M 525.496094 1899.570312 C 525.496094 1914.613281 513.292969 1926.8125 498.238281 1926.8125 C 483.1875 1926.8125 470.996094 1914.613281 470.996094 1899.570312 C 470.996094 1884.519531 483.1875 1872.316406 498.238281 1872.316406 C 513.292969 1872.316406 525.496094 1884.519531 525.496094 1899.570312 " fill-opacity="1" fill-rule="nonzero"/><path fill="rgb(70.588684%, 32.548523%, 55.688477%)" d="M 681.238281 1899.570312 C 681.238281 1914.613281 669.035156 1926.8125 653.980469 1926.8125 C 638.929688 1926.8125 626.726562 1914.613281 626.726562 1899.570312 C 626.726562 1884.519531 638.929688 1872.316406 653.980469 1872.316406 C 669.035156 1872.316406 681.238281 1884.519531 681.238281 1899.570312 " fill-opacity="1" fill-rule="nonzero"/><path fill="rgb(70.588684%, 32.548523%, 55.688477%)" d="M 836.96875 1899.570312 C 836.96875 1914.613281 824.765625 1926.8125 809.714844 1926.8125 C 794.660156 1926.8125 782.457031 1914.613281 782.457031 1899.570312 C 782.457031 1884.519531 794.660156 1872.316406 809.714844 1872.316406 C 824.765625 1872.316406 836.96875 1884.519531 836.96875 1899.570312 " fill-opacity="1" fill-rule="nonzero"/><path fill="rgb(70.588684%, 32.548523%, 55.688477%)" d="M 992.710938 1899.570312 C 992.710938 1914.613281 980.507812 1926.8125 965.457031 1926.8125 C 950.402344 1926.8125 938.199219 1914.613281 938.199219 1899.570312 C 938.199219 1884.519531 950.402344 1872.316406 965.457031 1872.316406 C 980.507812 1872.316406 992.710938 1884.519531 992.710938 1899.570312 " fill-opacity="1" fill-rule="nonzero"/><path fill="rgb(70.588684%, 32.548523%, 55.688477%)" d="M 1148.441406 1899.570312 C 1148.441406 1914.613281 1136.238281 1926.8125 1121.1875 1926.8125 C 1106.132812 1926.8125 1093.933594 1914.613281 1093.933594 1899.570312 C 1093.933594 1884.519531 1106.132812 1872.316406 1121.1875 1872.316406 C 1136.238281 1872.316406 1148.441406 1884.519531 1148.441406 1899.570312 " fill-opacity="1" fill-rule="nonzero"/><path fill="rgb(70.588684%, 32.548523%, 55.688477%)" d="M 1304.183594 1899.570312 C 1304.183594 1914.613281 1291.980469 1926.8125 1276.929688 1926.8125 C 1261.878906 1926.8125 1249.675781 1914.613281 1249.675781 1899.570312 C 1249.675781 1884.519531 1261.878906 1872.316406 1276.929688 1872.316406 C 1291.980469 1872.316406 1304.183594 1884.519531 1304.183594 1899.570312 " fill-opacity="1" fill-rule="nonzero"/><path fill="rgb(70.588684%, 32.548523%, 55.688477%)" d="M 1459.914062 1899.570312 C 1459.914062 1914.613281 1447.710938 1926.8125 1432.660156 1926.8125 C 1417.609375 1926.8125 1405.40625 1914.613281 1405.40625 1899.570312 C 1405.40625 1884.519531 1417.609375 1872.316406 1432.660156 1872.316406 C 1447.710938 1872.316406 1459.914062 1884.519531 1459.914062 1899.570312 " fill-opacity="1" fill-rule="nonzero"/><path fill="rgb(70.588684%, 32.548523%, 55.688477%)" d="M 1615.644531 1899.570312 C 1615.644531 1914.613281 1603.457031 1926.8125 1588.402344 1926.8125 C 1573.351562 1926.8125 1561.148438 1914.613281 1561.148438 1899.570312 C 1561.148438 1884.519531 1573.351562 1872.316406 1588.402344 1872.316406 C 1603.457031 1872.316406 1615.644531 1884.519531 1615.644531 1899.570312 " fill-opacity="1" fill-rule="nonzero"/><path fill="rgb(70.588684%, 32.548523%, 55.688477%)" d="M 1771.386719 1899.570312 C 1771.386719 1914.613281 1759.1875 1926.8125 1744.132812 1926.8125 C 1729.082031 1926.8125 1716.878906 1914.613281 1716.878906 1899.570312 C 1716.878906 1884.519531 1729.082031 1872.316406 1744.132812 1872.316406 C 1759.1875 1872.316406 1771.386719 1884.519531 1771.386719 1899.570312 " fill-opacity="1" fill-rule="nonzero"/><path fill="rgb(70.588684%, 32.548523%, 55.688477%)" d="M 1927.117188 1899.570312 C 1927.117188 1914.613281 1914.917969 1926.8125 1899.875 1926.8125 C 1884.824219 1926.8125 1872.621094 1914.613281 1872.621094 1899.570312 C 1872.621094 1884.519531 1884.824219 1872.316406 1899.875 1872.316406 C 1914.917969 1872.316406 1927.117188 1884.519531 1927.117188 1899.570312 " fill-opacity="1" fill-rule="nonzero"/><g clip-path="url(#id25)"><path fill="rgb(70.588684%, 32.548523%, 55.688477%)" d="M 58.289062 1743.828125 C 58.289062 1758.882812 46.085938 1771.082031 31.035156 1771.082031 C 15.984375 1771.082031 3.78125 1758.882812 3.78125 1743.828125 C 3.78125 1728.777344 15.984375 1716.574219 31.035156 1716.574219 C 46.085938 1716.574219 58.289062 1728.777344 58.289062 1743.828125 " fill-opacity="1" fill-rule="nonzero"/></g><path fill="rgb(70.588684%, 32.548523%, 55.688477%)" d="M 214.019531 1743.828125 C 214.019531 1758.882812 201.816406 1771.082031 186.765625 1771.082031 C 171.726562 1771.082031 159.523438 1758.882812 159.523438 1743.828125 C 159.523438 1728.777344 171.726562 1716.574219 186.765625 1716.574219 C 201.816406 1716.574219 214.019531 1728.777344 214.019531 1743.828125 " fill-opacity="1" fill-rule="nonzero"/><path fill="rgb(70.588684%, 32.548523%, 55.688477%)" d="M 369.761719 1743.828125 C 369.761719 1758.882812 357.5625 1771.082031 342.507812 1771.082031 C 327.457031 1771.082031 315.253906 1758.882812 315.253906 1743.828125 C 315.253906 1728.777344 327.457031 1716.574219 342.507812 1716.574219 C 357.5625 1716.574219 369.761719 1728.777344 369.761719 1743.828125 " fill-opacity="1" fill-rule="nonzero"/><path fill="rgb(70.588684%, 32.548523%, 55.688477%)" d="M 525.496094 1743.828125 C 525.496094 1758.882812 513.292969 1771.082031 498.238281 1771.082031 C 483.1875 1771.082031 470.996094 1758.882812 470.996094 1743.828125 C 470.996094 1728.777344 483.1875 1716.574219 498.238281 1716.574219 C 513.292969 1716.574219 525.496094 1728.777344 525.496094 1743.828125 " fill-opacity="1" fill-rule="nonzero"/><path fill="rgb(70.588684%, 32.548523%, 55.688477%)" d="M 681.238281 1743.828125 C 681.238281 1758.882812 669.035156 1771.082031 653.980469 1771.082031 C 638.929688 1771.082031 626.726562 1758.882812 626.726562 1743.828125 C 626.726562 1728.777344 638.929688 1716.574219 653.980469 1716.574219 C 669.035156 1716.574219 681.238281 1728.777344 681.238281 1743.828125 " fill-opacity="1" fill-rule="nonzero"/><path fill="rgb(70.588684%, 32.548523%, 55.688477%)" d="M 836.96875 1743.828125 C 836.96875 1758.882812 824.765625 1771.082031 809.714844 1771.082031 C 794.660156 1771.082031 782.457031 1758.882812 782.457031 1743.828125 C 782.457031 1728.777344 794.660156 1716.574219 809.714844 1716.574219 C 824.765625 1716.574219 836.96875 1728.777344 836.96875 1743.828125 " fill-opacity="1" fill-rule="nonzero"/><path fill="rgb(70.588684%, 32.548523%, 55.688477%)" d="M 992.710938 1743.828125 C 992.710938 1758.882812 980.507812 1771.082031 965.457031 1771.082031 C 950.402344 1771.082031 938.199219 1758.882812 938.199219 1743.828125 C 938.199219 1728.777344 950.402344 1716.574219 965.457031 1716.574219 C 980.507812 1716.574219 992.710938 1728.777344 992.710938 1743.828125 " fill-opacity="1" fill-rule="nonzero"/><path fill="rgb(70.588684%, 32.548523%, 55.688477%)" d="M 1148.441406 1743.828125 C 1148.441406 1758.882812 1136.238281 1771.082031 1121.1875 1771.082031 C 1106.132812 1771.082031 1093.933594 1758.882812 1093.933594 1743.828125 C 1093.933594 1728.777344 1106.132812 1716.574219 1121.1875 1716.574219 C 1136.238281 1716.574219 1148.441406 1728.777344 1148.441406 1743.828125 " fill-opacity="1" fill-rule="nonzero"/><path fill="rgb(70.588684%, 32.548523%, 55.688477%)" d="M 1304.183594 1743.828125 C 1304.183594 1758.882812 1291.980469 1771.082031 1276.929688 1771.082031 C 1261.878906 1771.082031 1249.675781 1758.882812 1249.675781 1743.828125 C 1249.675781 1728.777344 1261.878906 1716.574219 1276.929688 1716.574219 C 1291.980469 1716.574219 1304.183594 1728.777344 1304.183594 1743.828125 " fill-opacity="1" fill-rule="nonzero"/><path fill="rgb(70.588684%, 32.548523%, 55.688477%)" d="M 1459.914062 1743.828125 C 1459.914062 1758.882812 1447.710938 1771.082031 1432.660156 1771.082031 C 1417.609375 1771.082031 1405.40625 1758.882812 1405.40625 1743.828125 C 1405.40625 1728.777344 1417.609375 1716.574219 1432.660156 1716.574219 C 1447.710938 1716.574219 1459.914062 1728.777344 1459.914062 1743.828125 " fill-opacity="1" fill-rule="nonzero"/><path fill="rgb(70.588684%, 32.548523%, 55.688477%)" d="M 1615.644531 1743.828125 C 1615.644531 1758.882812 1603.457031 1771.082031 1588.402344 1771.082031 C 1573.351562 1771.082031 1561.148438 1758.882812 1561.148438 1743.828125 C 1561.148438 1728.777344 1573.351562 1716.574219 1588.402344 1716.574219 C 1603.457031 1716.574219 1615.644531 1728.777344 1615.644531 1743.828125 " fill-opacity="1" fill-rule="nonzero"/><path fill="rgb(70.588684%, 32.548523%, 55.688477%)" d="M 1771.386719 1743.828125 C 1771.386719 1758.882812 1759.1875 1771.082031 1744.132812 1771.082031 C 1729.082031 1771.082031 1716.878906 1758.882812 1716.878906 1743.828125 C 1716.878906 1728.777344 1729.082031 1716.574219 1744.132812 1716.574219 C 1759.1875 1716.574219 1771.386719 1728.777344 1771.386719 1743.828125 " fill-opacity="1" fill-rule="nonzero"/><g clip-path="url(#id26)"><path fill="rgb(70.588684%, 32.548523%, 55.688477%)" d="M 58.289062 1588.097656 C 58.289062 1603.152344 46.085938 1615.339844 31.035156 1615.339844 C 15.984375 1615.339844 3.78125 1603.152344 3.78125 1588.097656 C 3.78125 1573.046875 15.984375 1560.84375 31.035156 1560.84375 C 46.085938 1560.84375 58.289062 1573.046875 58.289062 1588.097656 " fill-opacity="1" fill-rule="nonzero"/></g><path fill="rgb(70.588684%, 32.548523%, 55.688477%)" d="M 214.019531 1588.097656 C 214.019531 1603.152344 201.816406 1615.339844 186.765625 1615.339844 C 171.726562 1615.339844 159.523438 1603.152344 159.523438 1588.097656 C 159.523438 1573.046875 171.726562 1560.84375 186.765625 1560.84375 C 201.816406 1560.84375 214.019531 1573.046875 214.019531 1588.097656 " fill-opacity="1" fill-rule="nonzero"/><path fill="rgb(70.588684%, 32.548523%, 55.688477%)" d="M 369.761719 1588.097656 C 369.761719 1603.152344 357.5625 1615.339844 342.507812 1615.339844 C 327.457031 1615.339844 315.253906 1603.152344 315.253906 1588.097656 C 315.253906 1573.046875 327.457031 1560.84375 342.507812 1560.84375 C 357.5625 1560.84375 369.761719 1573.046875 369.761719 1588.097656 " fill-opacity="1" fill-rule="nonzero"/><path fill="rgb(70.588684%, 32.548523%, 55.688477%)" d="M 525.496094 1588.097656 C 525.496094 1603.152344 513.292969 1615.339844 498.238281 1615.339844 C 483.1875 1615.339844 470.996094 1603.152344 470.996094 1588.097656 C 470.996094 1573.046875 483.1875 1560.84375 498.238281 1560.84375 C 513.292969 1560.84375 525.496094 1573.046875 525.496094 1588.097656 " fill-opacity="1" fill-rule="nonzero"/><path fill="rgb(70.588684%, 32.548523%, 55.688477%)" d="M 681.238281 1588.097656 C 681.238281 1603.152344 669.035156 1615.339844 653.980469 1615.339844 C 638.929688 1615.339844 626.726562 1603.152344 626.726562 1588.097656 C 626.726562 1573.046875 638.929688 1560.84375 653.980469 1560.84375 C 669.035156 1560.84375 681.238281 1573.046875 681.238281 1588.097656 " fill-opacity="1" fill-rule="nonzero"/><path fill="rgb(70.588684%, 32.548523%, 55.688477%)" d="M 836.96875 1588.097656 C 836.96875 1603.152344 824.765625 1615.339844 809.714844 1615.339844 C 794.660156 1615.339844 782.457031 1603.152344 782.457031 1588.097656 C 782.457031 1573.046875 794.660156 1560.84375 809.714844 1560.84375 C 824.765625 1560.84375 836.96875 1573.046875 836.96875 1588.097656 " fill-opacity="1" fill-rule="nonzero"/><path fill="rgb(70.588684%, 32.548523%, 55.688477%)" d="M 992.710938 1588.097656 C 992.710938 1603.152344 980.507812 1615.339844 965.457031 1615.339844 C 950.402344 1615.339844 938.199219 1603.152344 938.199219 1588.097656 C 938.199219 1573.046875 950.402344 1560.84375 965.457031 1560.84375 C 980.507812 1560.84375 992.710938 1573.046875 992.710938 1588.097656 " fill-opacity="1" fill-rule="nonzero"/><path fill="rgb(70.588684%, 32.548523%, 55.688477%)" d="M 1148.441406 1588.097656 C 1148.441406 1603.152344 1136.238281 1615.339844 1121.1875 1615.339844 C 1106.132812 1615.339844 1093.933594 1603.152344 1093.933594 1588.097656 C 1093.933594 1573.046875 1106.132812 1560.84375 1121.1875 1560.84375 C 1136.238281 1560.84375 1148.441406 1573.046875 1148.441406 1588.097656 " fill-opacity="1" fill-rule="nonzero"/><path fill="rgb(70.588684%, 32.548523%, 55.688477%)" d="M 1304.183594 1588.097656 C 1304.183594 1603.152344 1291.980469 1615.339844 1276.929688 1615.339844 C 1261.878906 1615.339844 1249.675781 1603.152344 1249.675781 1588.097656 C 1249.675781 1573.046875 1261.878906 1560.84375 1276.929688 1560.84375 C 1291.980469 1560.84375 1304.183594 1573.046875 1304.183594 1588.097656 " fill-opacity="1" fill-rule="nonzero"/><path fill="rgb(70.588684%, 32.548523%, 55.688477%)" d="M 1459.914062 1588.097656 C 1459.914062 1603.152344 1447.710938 1615.339844 1432.660156 1615.339844 C 1417.609375 1615.339844 1405.40625 1603.152344 1405.40625 1588.097656 C 1405.40625 1573.046875 1417.609375 1560.84375 1432.660156 1560.84375 C 1447.710938 1560.84375 1459.914062 1573.046875 1459.914062 1588.097656 " fill-opacity="1" fill-rule="nonzero"/><path fill="rgb(70.588684%, 32.548523%, 55.688477%)" d="M 1615.644531 1588.097656 C 1615.644531 1603.152344 1603.457031 1615.339844 1588.402344 1615.339844 C 1573.351562 1615.339844 1561.148438 1603.152344 1561.148438 1588.097656 C 1561.148438 1573.046875 1573.351562 1560.84375 1588.402344 1560.84375 C 1603.457031 1560.84375 1615.644531 1573.046875 1615.644531 1588.097656 " fill-opacity="1" fill-rule="nonzero"/><g clip-path="url(#id27)"><path fill="rgb(70.588684%, 32.548523%, 55.688477%)" d="M 58.289062 1432.355469 C 58.289062 1447.40625 46.085938 1459.609375 31.035156 1459.609375 C 15.984375 1459.609375 3.78125 1447.40625 3.78125 1432.355469 C 3.78125 1417.304688 15.984375 1405.101562 31.035156 1405.101562 C 46.085938 1405.101562 58.289062 1417.304688 58.289062 1432.355469 " fill-opacity="1" fill-rule="nonzero"/></g><path fill="rgb(70.588684%, 32.548523%, 55.688477%)" d="M 214.019531 1432.355469 C 214.019531 1447.40625 201.816406 1459.609375 186.765625 1459.609375 C 171.726562 1459.609375 159.523438 1447.40625 159.523438 1432.355469 C 159.523438 1417.304688 171.726562 1405.101562 186.765625 1405.101562 C 201.816406 1405.101562 214.019531 1417.304688 214.019531 1432.355469 " fill-opacity="1" fill-rule="nonzero"/><path fill="rgb(70.588684%, 32.548523%, 55.688477%)" d="M 369.761719 1432.355469 C 369.761719 1447.40625 357.5625 1459.609375 342.507812 1459.609375 C 327.457031 1459.609375 315.253906 1447.40625 315.253906 1432.355469 C 315.253906 1417.304688 327.457031 1405.101562 342.507812 1405.101562 C 357.5625 1405.101562 369.761719 1417.304688 369.761719 1432.355469 " fill-opacity="1" fill-rule="nonzero"/><path fill="rgb(70.588684%, 32.548523%, 55.688477%)" d="M 525.496094 1432.355469 C 525.496094 1447.40625 513.292969 1459.609375 498.238281 1459.609375 C 483.1875 1459.609375 470.996094 1447.40625 470.996094 1432.355469 C 470.996094 1417.304688 483.1875 1405.101562 498.238281 1405.101562 C 513.292969 1405.101562 525.496094 1417.304688 525.496094 1432.355469 " fill-opacity="1" fill-rule="nonzero"/><path fill="rgb(70.588684%, 32.548523%, 55.688477%)" d="M 681.238281 1432.355469 C 681.238281 1447.40625 669.035156 1459.609375 653.980469 1459.609375 C 638.929688 1459.609375 626.726562 1447.40625 626.726562 1432.355469 C 626.726562 1417.304688 638.929688 1405.101562 653.980469 1405.101562 C 669.035156 1405.101562 681.238281 1417.304688 681.238281 1432.355469 " fill-opacity="1" fill-rule="nonzero"/><path fill="rgb(70.588684%, 32.548523%, 55.688477%)" d="M 836.96875 1432.355469 C 836.96875 1447.40625 824.765625 1459.609375 809.714844 1459.609375 C 794.660156 1459.609375 782.457031 1447.40625 782.457031 1432.355469 C 782.457031 1417.304688 794.660156 1405.101562 809.714844 1405.101562 C 824.765625 1405.101562 836.96875 1417.304688 836.96875 1432.355469 " fill-opacity="1" fill-rule="nonzero"/><path fill="rgb(70.588684%, 32.548523%, 55.688477%)" d="M 992.710938 1432.355469 C 992.710938 1447.40625 980.507812 1459.609375 965.457031 1459.609375 C 950.402344 1459.609375 938.199219 1447.40625 938.199219 1432.355469 C 938.199219 1417.304688 950.402344 1405.101562 965.457031 1405.101562 C 980.507812 1405.101562 992.710938 1417.304688 992.710938 1432.355469 " fill-opacity="1" fill-rule="nonzero"/><path fill="rgb(70.588684%, 32.548523%, 55.688477%)" d="M 1148.441406 1432.355469 C 1148.441406 1447.40625 1136.238281 1459.609375 1121.1875 1459.609375 C 1106.132812 1459.609375 1093.933594 1447.40625 1093.933594 1432.355469 C 1093.933594 1417.304688 1106.132812 1405.101562 1121.1875 1405.101562 C 1136.238281 1405.101562 1148.441406 1417.304688 1148.441406 1432.355469 " fill-opacity="1" fill-rule="nonzero"/><path fill="rgb(70.588684%, 32.548523%, 55.688477%)" d="M 1304.183594 1432.355469 C 1304.183594 1447.40625 1291.980469 1459.609375 1276.929688 1459.609375 C 1261.878906 1459.609375 1249.675781 1447.40625 1249.675781 1432.355469 C 1249.675781 1417.304688 1261.878906 1405.101562 1276.929688 1405.101562 C 1291.980469 1405.101562 1304.183594 1417.304688 1304.183594 1432.355469 " fill-opacity="1" fill-rule="nonzero"/><path fill="rgb(70.588684%, 32.548523%, 55.688477%)" d="M 1459.914062 1432.355469 C 1459.914062 1447.40625 1447.710938 1459.609375 1432.660156 1459.609375 C 1417.609375 1459.609375 1405.40625 1447.40625 1405.40625 1432.355469 C 1405.40625 1417.304688 1417.609375 1405.101562 1432.660156 1405.101562 C 1447.710938 1405.101562 1459.914062 1417.304688 1459.914062 1432.355469 " fill-opacity="1" fill-rule="nonzero"/><g clip-path="url(#id28)"><path fill="rgb(70.588684%, 32.548523%, 55.688477%)" d="M 58.289062 1276.625 C 58.289062 1291.675781 46.085938 1303.878906 31.035156 1303.878906 C 15.984375 1303.878906 3.78125 1291.675781 3.78125 1276.625 C 3.78125 1261.574219 15.984375 1249.371094 31.035156 1249.371094 C 46.085938 1249.371094 58.289062 1261.574219 58.289062 1276.625 " fill-opacity="1" fill-rule="nonzero"/></g><path fill="rgb(70.588684%, 32.548523%, 55.688477%)" d="M 214.019531 1276.625 C 214.019531 1291.675781 201.816406 1303.878906 186.765625 1303.878906 C 171.726562 1303.878906 159.523438 1291.675781 159.523438 1276.625 C 159.523438 1261.574219 171.726562 1249.371094 186.765625 1249.371094 C 201.816406 1249.371094 214.019531 1261.574219 214.019531 1276.625 " fill-opacity="1" fill-rule="nonzero"/><path fill="rgb(70.588684%, 32.548523%, 55.688477%)" d="M 369.761719 1276.625 C 369.761719 1291.675781 357.5625 1303.878906 342.507812 1303.878906 C 327.457031 1303.878906 315.253906 1291.675781 315.253906 1276.625 C 315.253906 1261.574219 327.457031 1249.371094 342.507812 1249.371094 C 357.5625 1249.371094 369.761719 1261.574219 369.761719 1276.625 " fill-opacity="1" fill-rule="nonzero"/><path fill="rgb(70.588684%, 32.548523%, 55.688477%)" d="M 525.496094 1276.625 C 525.496094 1291.675781 513.292969 1303.878906 498.238281 1303.878906 C 483.1875 1303.878906 470.996094 1291.675781 470.996094 1276.625 C 470.996094 1261.574219 483.1875 1249.371094 498.238281 1249.371094 C 513.292969 1249.371094 525.496094 1261.574219 525.496094 1276.625 " fill-opacity="1" fill-rule="nonzero"/><path fill="rgb(70.588684%, 32.548523%, 55.688477%)" d="M 681.238281 1276.625 C 681.238281 1291.675781 669.035156 1303.878906 653.980469 1303.878906 C 638.929688 1303.878906 626.726562 1291.675781 626.726562 1276.625 C 626.726562 1261.574219 638.929688 1249.371094 653.980469 1249.371094 C 669.035156 1249.371094 681.238281 1261.574219 681.238281 1276.625 " fill-opacity="1" fill-rule="nonzero"/><path fill="rgb(70.588684%, 32.548523%, 55.688477%)" d="M 836.96875 1276.625 C 836.96875 1291.675781 824.765625 1303.878906 809.714844 1303.878906 C 794.660156 1303.878906 782.457031 1291.675781 782.457031 1276.625 C 782.457031 1261.574219 794.660156 1249.371094 809.714844 1249.371094 C 824.765625 1249.371094 836.96875 1261.574219 836.96875 1276.625 " fill-opacity="1" fill-rule="nonzero"/><path fill="rgb(70.588684%, 32.548523%, 55.688477%)" d="M 992.710938 1276.625 C 992.710938 1291.675781 980.507812 1303.878906 965.457031 1303.878906 C 950.402344 1303.878906 938.199219 1291.675781 938.199219 1276.625 C 938.199219 1261.574219 950.402344 1249.371094 965.457031 1249.371094 C 980.507812 1249.371094 992.710938 1261.574219 992.710938 1276.625 " fill-opacity="1" fill-rule="nonzero"/><path fill="rgb(70.588684%, 32.548523%, 55.688477%)" d="M 1148.441406 1276.625 C 1148.441406 1291.675781 1136.238281 1303.878906 1121.1875 1303.878906 C 1106.132812 1303.878906 1093.933594 1291.675781 1093.933594 1276.625 C 1093.933594 1261.574219 1106.132812 1249.371094 1121.1875 1249.371094 C 1136.238281 1249.371094 1148.441406 1261.574219 1148.441406 1276.625 " fill-opacity="1" fill-rule="nonzero"/><path fill="rgb(70.588684%, 32.548523%, 55.688477%)" d="M 1304.183594 1276.625 C 1304.183594 1291.675781 1291.980469 1303.878906 1276.929688 1303.878906 C 1261.878906 1303.878906 1249.675781 1291.675781 1249.675781 1276.625 C 1249.675781 1261.574219 1261.878906 1249.371094 1276.929688 1249.371094 C 1291.980469 1249.371094 1304.183594 1261.574219 1304.183594 1276.625 " fill-opacity="1" fill-rule="nonzero"/><g clip-path="url(#id29)"><path fill="rgb(70.588684%, 32.548523%, 55.688477%)" d="M 58.289062 1120.882812 C 58.289062 1135.933594 46.085938 1148.136719 31.035156 1148.136719 C 15.984375 1148.136719 3.78125 1135.933594 3.78125 1120.882812 C 3.78125 1105.828125 15.984375 1093.628906 31.035156 1093.628906 C 46.085938 1093.628906 58.289062 1105.828125 58.289062 1120.882812 " fill-opacity="1" fill-rule="nonzero"/></g><path fill="rgb(70.588684%, 32.548523%, 55.688477%)" d="M 214.019531 1120.882812 C 214.019531 1135.933594 201.816406 1148.136719 186.765625 1148.136719 C 171.726562 1148.136719 159.523438 1135.933594 159.523438 1120.882812 C 159.523438 1105.828125 171.726562 1093.628906 186.765625 1093.628906 C 201.816406 1093.628906 214.019531 1105.828125 214.019531 1120.882812 " fill-opacity="1" fill-rule="nonzero"/><path fill="rgb(70.588684%, 32.548523%, 55.688477%)" d="M 369.761719 1120.882812 C 369.761719 1135.933594 357.5625 1148.136719 342.507812 1148.136719 C 327.457031 1148.136719 315.253906 1135.933594 315.253906 1120.882812 C 315.253906 1105.828125 327.457031 1093.628906 342.507812 1093.628906 C 357.5625 1093.628906 369.761719 1105.828125 369.761719 1120.882812 " fill-opacity="1" fill-rule="nonzero"/><path fill="rgb(70.588684%, 32.548523%, 55.688477%)" d="M 525.496094 1120.882812 C 525.496094 1135.933594 513.292969 1148.136719 498.238281 1148.136719 C 483.1875 1148.136719 470.996094 1135.933594 470.996094 1120.882812 C 470.996094 1105.828125 483.1875 1093.628906 498.238281 1093.628906 C 513.292969 1093.628906 525.496094 1105.828125 525.496094 1120.882812 " fill-opacity="1" fill-rule="nonzero"/><path fill="rgb(70.588684%, 32.548523%, 55.688477%)" d="M 681.238281 1120.882812 C 681.238281 1135.933594 669.035156 1148.136719 653.980469 1148.136719 C 638.929688 1148.136719 626.726562 1135.933594 626.726562 1120.882812 C 626.726562 1105.828125 638.929688 1093.628906 653.980469 1093.628906 C 669.035156 1093.628906 681.238281 1105.828125 681.238281 1120.882812 " fill-opacity="1" fill-rule="nonzero"/><path fill="rgb(70.588684%, 32.548523%, 55.688477%)" d="M 836.96875 1120.882812 C 836.96875 1135.933594 824.765625 1148.136719 809.714844 1148.136719 C 794.660156 1148.136719 782.457031 1135.933594 782.457031 1120.882812 C 782.457031 1105.828125 794.660156 1093.628906 809.714844 1093.628906 C 824.765625 1093.628906 836.96875 1105.828125 836.96875 1120.882812 " fill-opacity="1" fill-rule="nonzero"/><path fill="rgb(70.588684%, 32.548523%, 55.688477%)" d="M 992.710938 1120.882812 C 992.710938 1135.933594 980.507812 1148.136719 965.457031 1148.136719 C 950.402344 1148.136719 938.199219 1135.933594 938.199219 1120.882812 C 938.199219 1105.828125 950.402344 1093.628906 965.457031 1093.628906 C 980.507812 1093.628906 992.710938 1105.828125 992.710938 1120.882812 " fill-opacity="1" fill-rule="nonzero"/><path fill="rgb(70.588684%, 32.548523%, 55.688477%)" d="M 1148.441406 1120.882812 C 1148.441406 1135.933594 1136.238281 1148.136719 1121.1875 1148.136719 C 1106.132812 1148.136719 1093.933594 1135.933594 1093.933594 1120.882812 C 1093.933594 1105.828125 1106.132812 1093.628906 1121.1875 1093.628906 C 1136.238281 1093.628906 1148.441406 1105.828125 1148.441406 1120.882812 " fill-opacity="1" fill-rule="nonzero"/><g clip-path="url(#id30)"><path fill="rgb(70.588684%, 32.548523%, 55.688477%)" d="M 58.289062 965.152344 C 58.289062 980.203125 46.085938 992.40625 31.035156 992.40625 C 15.984375 992.40625 3.78125 980.203125 3.78125 965.152344 C 3.78125 950.097656 15.984375 937.898438 31.035156 937.898438 C 46.085938 937.898438 58.289062 950.097656 58.289062 965.152344 " fill-opacity="1" fill-rule="nonzero"/></g><path fill="rgb(70.588684%, 32.548523%, 55.688477%)" d="M 214.019531 965.152344 C 214.019531 980.203125 201.816406 992.40625 186.765625 992.40625 C 171.726562 992.40625 159.523438 980.203125 159.523438 965.152344 C 159.523438 950.097656 171.726562 937.898438 186.765625 937.898438 C 201.816406 937.898438 214.019531 950.097656 214.019531 965.152344 " fill-opacity="1" fill-rule="nonzero"/><path fill="rgb(70.588684%, 32.548523%, 55.688477%)" d="M 369.761719 965.152344 C 369.761719 980.203125 357.5625 992.40625 342.507812 992.40625 C 327.457031 992.40625 315.253906 980.203125 315.253906 965.152344 C 315.253906 950.097656 327.457031 937.898438 342.507812 937.898438 C 357.5625 937.898438 369.761719 950.097656 369.761719 965.152344 " fill-opacity="1" fill-rule="nonzero"/><path fill="rgb(70.588684%, 32.548523%, 55.688477%)" d="M 525.496094 965.152344 C 525.496094 980.203125 513.292969 992.40625 498.238281 992.40625 C 483.1875 992.40625 470.996094 980.203125 470.996094 965.152344 C 470.996094 950.097656 483.1875 937.898438 498.238281 937.898438 C 513.292969 937.898438 525.496094 950.097656 525.496094 965.152344 " fill-opacity="1" fill-rule="nonzero"/><path fill="rgb(70.588684%, 32.548523%, 55.688477%)" d="M 681.238281 965.152344 C 681.238281 980.203125 669.035156 992.40625 653.980469 992.40625 C 638.929688 992.40625 626.726562 980.203125 626.726562 965.152344 C 626.726562 950.097656 638.929688 937.898438 653.980469 937.898438 C 669.035156 937.898438 681.238281 950.097656 681.238281 965.152344 " fill-opacity="1" fill-rule="nonzero"/><path fill="rgb(70.588684%, 32.548523%, 55.688477%)" d="M 836.96875 965.152344 C 836.96875 980.203125 824.765625 992.40625 809.714844 992.40625 C 794.660156 992.40625 782.457031 980.203125 782.457031 965.152344 C 782.457031 950.097656 794.660156 937.898438 809.714844 937.898438 C 824.765625 937.898438 836.96875 950.097656 836.96875 965.152344 " fill-opacity="1" fill-rule="nonzero"/><path fill="rgb(70.588684%, 32.548523%, 55.688477%)" d="M 992.710938 965.152344 C 992.710938 980.203125 980.507812 992.40625 965.457031 992.40625 C 950.402344 992.40625 938.199219 980.203125 938.199219 965.152344 C 938.199219 950.097656 950.402344 937.898438 965.457031 937.898438 C 980.507812 937.898438 992.710938 950.097656 992.710938 965.152344 " fill-opacity="1" fill-rule="nonzero"/><g clip-path="url(#id31)"><path fill="rgb(70.588684%, 32.548523%, 55.688477%)" d="M 58.289062 809.410156 C 58.289062 824.460938 46.085938 836.664062 31.035156 836.664062 C 15.984375 836.664062 3.78125 824.460938 3.78125 809.410156 C 3.78125 794.355469 15.984375 782.152344 31.035156 782.152344 C 46.085938 782.152344 58.289062 794.355469 58.289062 809.410156 " fill-opacity="1" fill-rule="nonzero"/></g><path fill="rgb(70.588684%, 32.548523%, 55.688477%)" d="M 214.019531 809.410156 C 214.019531 824.460938 201.816406 836.664062 186.765625 836.664062 C 171.726562 836.664062 159.523438 824.460938 159.523438 809.410156 C 159.523438 794.355469 171.726562 782.152344 186.765625 782.152344 C 201.816406 782.152344 214.019531 794.355469 214.019531 809.410156 " fill-opacity="1" fill-rule="nonzero"/><path fill="rgb(70.588684%, 32.548523%, 55.688477%)" d="M 369.761719 809.410156 C 369.761719 824.460938 357.5625 836.664062 342.507812 836.664062 C 327.457031 836.664062 315.253906 824.460938 315.253906 809.410156 C 315.253906 794.355469 327.457031 782.152344 342.507812 782.152344 C 357.5625 782.152344 369.761719 794.355469 369.761719 809.410156 " fill-opacity="1" fill-rule="nonzero"/><path fill="rgb(70.588684%, 32.548523%, 55.688477%)" d="M 525.496094 809.410156 C 525.496094 824.460938 513.292969 836.664062 498.238281 836.664062 C 483.1875 836.664062 470.996094 824.460938 470.996094 809.410156 C 470.996094 794.355469 483.1875 782.152344 498.238281 782.152344 C 513.292969 782.152344 525.496094 794.355469 525.496094 809.410156 " fill-opacity="1" fill-rule="nonzero"/><path fill="rgb(70.588684%, 32.548523%, 55.688477%)" d="M 681.238281 809.410156 C 681.238281 824.460938 669.035156 836.664062 653.980469 836.664062 C 638.929688 836.664062 626.726562 824.460938 626.726562 809.410156 C 626.726562 794.355469 638.929688 782.152344 653.980469 782.152344 C 669.035156 782.152344 681.238281 794.355469 681.238281 809.410156 " fill-opacity="1" fill-rule="nonzero"/><path fill="rgb(70.588684%, 32.548523%, 55.688477%)" d="M 836.96875 809.410156 C 836.96875 824.460938 824.765625 836.664062 809.714844 836.664062 C 794.660156 836.664062 782.457031 824.460938 782.457031 809.410156 C 782.457031 794.355469 794.660156 782.152344 809.714844 782.152344 C 824.765625 782.152344 836.96875 794.355469 836.96875 809.410156 " fill-opacity="1" fill-rule="nonzero"/><g clip-path="url(#id32)"><path fill="rgb(70.588684%, 32.548523%, 55.688477%)" d="M 58.289062 653.679688 C 58.289062 668.730469 46.085938 680.933594 31.035156 680.933594 C 15.984375 680.933594 3.78125 668.730469 3.78125 653.679688 C 3.78125 638.625 15.984375 626.421875 31.035156 626.421875 C 46.085938 626.421875 58.289062 638.625 58.289062 653.679688 " fill-opacity="1" fill-rule="nonzero"/></g><path fill="rgb(70.588684%, 32.548523%, 55.688477%)" d="M 214.019531 653.679688 C 214.019531 668.730469 201.816406 680.933594 186.765625 680.933594 C 171.726562 680.933594 159.523438 668.730469 159.523438 653.679688 C 159.523438 638.625 171.726562 626.421875 186.765625 626.421875 C 201.816406 626.421875 214.019531 638.625 214.019531 653.679688 " fill-opacity="1" fill-rule="nonzero"/><path fill="rgb(70.588684%, 32.548523%, 55.688477%)" d="M 369.761719 653.679688 C 369.761719 668.730469 357.5625 680.933594 342.507812 680.933594 C 327.457031 680.933594 315.253906 668.730469 315.253906 653.679688 C 315.253906 638.625 327.457031 626.421875 342.507812 626.421875 C 357.5625 626.421875 369.761719 638.625 369.761719 653.679688 " fill-opacity="1" fill-rule="nonzero"/><path fill="rgb(70.588684%, 32.548523%, 55.688477%)" d="M 525.496094 653.679688 C 525.496094 668.730469 513.292969 680.933594 498.238281 680.933594 C 483.1875 680.933594 470.996094 668.730469 470.996094 653.679688 C 470.996094 638.625 483.1875 626.421875 498.238281 626.421875 C 513.292969 626.421875 525.496094 638.625 525.496094 653.679688 " fill-opacity="1" fill-rule="nonzero"/><path fill="rgb(70.588684%, 32.548523%, 55.688477%)" d="M 681.238281 653.679688 C 681.238281 668.730469 669.035156 680.933594 653.980469 680.933594 C 638.929688 680.933594 626.726562 668.730469 626.726562 653.679688 C 626.726562 638.625 638.929688 626.421875 653.980469 626.421875 C 669.035156 626.421875 681.238281 638.625 681.238281 653.679688 " fill-opacity="1" fill-rule="nonzero"/><g clip-path="url(#id33)"><path fill="rgb(70.588684%, 32.548523%, 55.688477%)" d="M 58.289062 497.933594 C 58.289062 512.988281 46.085938 525.191406 31.035156 525.191406 C 15.984375 525.191406 3.78125 512.988281 3.78125 497.933594 C 3.78125 482.882812 15.984375 470.691406 31.035156 470.691406 C 46.085938 470.691406 58.289062 482.882812 58.289062 497.933594 " fill-opacity="1" fill-rule="nonzero"/></g><path fill="rgb(70.588684%, 32.548523%, 55.688477%)" d="M 214.019531 497.933594 C 214.019531 512.988281 201.816406 525.191406 186.765625 525.191406 C 171.726562 525.191406 159.523438 512.988281 159.523438 497.933594 C 159.523438 482.882812 171.726562 470.691406 186.765625 470.691406 C 201.816406 470.691406 214.019531 482.882812 214.019531 497.933594 " fill-opacity="1" fill-rule="nonzero"/><path fill="rgb(70.588684%, 32.548523%, 55.688477%)" d="M 369.761719 497.933594 C 369.761719 512.988281 357.5625 525.191406 342.507812 525.191406 C 327.457031 525.191406 315.253906 512.988281 315.253906 497.933594 C 315.253906 482.882812 327.457031 470.691406 342.507812 470.691406 C 357.5625 470.691406 369.761719 482.882812 369.761719 497.933594 " fill-opacity="1" fill-rule="nonzero"/><path fill="rgb(70.588684%, 32.548523%, 55.688477%)" d="M 525.496094 497.933594 C 525.496094 512.988281 513.292969 525.191406 498.238281 525.191406 C 483.1875 525.191406 470.996094 512.988281 470.996094 497.933594 C 470.996094 482.882812 483.1875 470.691406 498.238281 470.691406 C 513.292969 470.691406 525.496094 482.882812 525.496094 497.933594 " fill-opacity="1" fill-rule="nonzero"/><g clip-path="url(#id34)"><path fill="rgb(70.588684%, 32.548523%, 55.688477%)" d="M 58.289062 342.203125 C 58.289062 357.257812 46.085938 369.457031 31.035156 369.457031 C 15.984375 369.457031 3.78125 357.257812 3.78125 342.203125 C 3.78125 327.152344 15.984375 314.949219 31.035156 314.949219 C 46.085938 314.949219 58.289062 327.152344 58.289062 342.203125 " fill-opacity="1" fill-rule="nonzero"/></g><path fill="rgb(70.588684%, 32.548523%, 55.688477%)" d="M 214.019531 342.203125 C 214.019531 357.257812 201.816406 369.457031 186.765625 369.457031 C 171.726562 369.457031 159.523438 357.257812 159.523438 342.203125 C 159.523438 327.152344 171.726562 314.949219 186.765625 314.949219 C 201.816406 314.949219 214.019531 327.152344 214.019531 342.203125 " fill-opacity="1" fill-rule="nonzero"/><path fill="rgb(70.588684%, 32.548523%, 55.688477%)" d="M 369.761719 342.203125 C 369.761719 357.257812 357.5625 369.457031 342.507812 369.457031 C 327.457031 369.457031 315.253906 357.257812 315.253906 342.203125 C 315.253906 327.152344 327.457031 314.949219 342.507812 314.949219 C 357.5625 314.949219 369.761719 327.152344 369.761719 342.203125 " fill-opacity="1" fill-rule="nonzero"/><g clip-path="url(#id35)"><path fill="rgb(70.588684%, 32.548523%, 55.688477%)" d="M 58.289062 186.460938 C 58.289062 201.515625 46.085938 213.714844 31.035156 213.714844 C 15.984375 213.714844 3.78125 201.515625 3.78125 186.460938 C 3.78125 171.421875 15.984375 159.21875 31.035156 159.21875 C 46.085938 159.21875 58.289062 171.421875 58.289062 186.460938 " fill-opacity="1" fill-rule="nonzero"/></g><path fill="rgb(70.588684%, 32.548523%, 55.688477%)" d="M 214.019531 186.460938 C 214.019531 201.515625 201.816406 213.714844 186.765625 213.714844 C 171.726562 213.714844 159.523438 201.515625 159.523438 186.460938 C 159.523438 171.421875 171.726562 159.21875 186.765625 159.21875 C 201.816406 159.21875 214.019531 171.421875 214.019531 186.460938 " fill-opacity="1" fill-rule="nonzero"/><g clip-path="url(#id36)"><path fill="rgb(70.588684%, 32.548523%, 55.688477%)" d="M 58.289062 30.730469 C 58.289062 45.78125 46.085938 57.984375 31.035156 57.984375 C 15.984375 57.984375 3.78125 45.78125 3.78125 30.730469 C 3.78125 15.679688 15.984375 3.476562 31.035156 3.476562 C 46.085938 3.476562 58.289062 15.679688 58.289062 30.730469 " fill-opacity="1" fill-rule="nonzero"/></g></g></g></g><g clip-path="url(#id38)"><path fill="rgb(0%, 0%, 0%)" d="M 1194.136719 1079.621094 C 1187.6875 1073.167969 1177.199219 1073.167969 1170.75 1079.621094 L 839.988281 1410.492188 C 833.539062 1416.945312 833.539062 1427.433594 839.988281 1433.882812 L 1170.75 1764.753906 C 1173.960938 1767.996094 1178.191406 1769.617188 1182.425781 1769.617188 C 1186.660156 1769.617188 1190.894531 1767.996094 1194.136719 1764.789062 C 1200.585938 1758.335938 1200.585938 1747.847656 1194.136719 1741.394531 L 875.050781 1422.203125 L 1194.101562 1103.046875 C 1200.585938 1096.5625 1200.585938 1086.105469 1194.136719 1079.621094 Z M 1194.136719 1079.621094 " fill-opacity="1" fill-rule="nonzero"/></g><g clip-path="url(#id39)"><path fill="rgb(0%, 0%, 0%)" d="M 2186.421875 1410.492188 L 1855.660156 1079.621094 C 1849.210938 1073.167969 1838.726562 1073.167969 1832.273438 1079.621094 C 1825.824219 1086.074219 1825.824219 1096.5625 1832.273438 1103.015625 L 2151.328125 1422.203125 L 1832.273438 1741.363281 C 1825.824219 1747.8125 1825.824219 1758.300781 1832.273438 1764.753906 C 1835.484375 1767.996094 1839.71875 1769.617188 1843.949219 1769.617188 C 1848.183594 1769.617188 1852.417969 1767.996094 1855.660156 1764.789062 L 2186.421875 1433.917969 C 2192.871094 1427.433594 2192.871094 1416.976562 2186.421875 1410.492188 Z M 2186.421875 1410.492188 " fill-opacity="1" fill-rule="nonzero"/></g><g fill="rgb(0%, 0%, 0%)" fill-opacity="1"><g transform="translate(3151.457137, 623.991444)"><g><path d="M 8.34375 -278.0625 L 132.28125 -278.0625 L 132.28125 -270.515625 L 109.234375 -270.515625 L 109.234375 -147.375 L 188.296875 -147.375 L 188.296875 -270.515625 L 164.859375 -270.515625 L 164.859375 -278.0625 L 289.1875 -278.0625 L 289.1875 -270.515625 L 265.75 -270.515625 L 265.75 -7.546875 L 289.1875 -7.546875 L 289.1875 0 L 164.859375 0 L 164.859375 -7.546875 L 188.296875 -7.546875 L 188.296875 -137.046875 L 109.234375 -137.046875 L 109.234375 -7.546875 L 132.28125 -7.546875 L 132.28125 0 L 8.34375 0 L 8.34375 -7.546875 L 31.78125 -7.546875 L 31.78125 -270.515625 L 8.34375 -270.515625 Z M 8.34375 -278.0625 "/></g></g></g><g fill="rgb(0%, 0%, 0%)" fill-opacity="1"><g transform="translate(3448.983172, 623.991444)"><g><path d="M 108.4375 3.96875 C 74.28125 3.96875 48.660156 -4.832031 31.578125 -22.4375 C 14.492188 -40.050781 5.953125 -64.546875 5.953125 -95.921875 C 5.953125 -127.304688 15.550781 -151.34375 34.75 -168.03125 C 53.957031 -184.71875 78.390625 -193.0625 108.046875 -193.0625 C 168.160156 -193.0625 197.023438 -162.867188 194.640625 -102.484375 L 82.625 -102.484375 L 82.625 -87 C 82.625 -61.039062 85.929688 -41.441406 92.546875 -28.203125 C 99.171875 -14.960938 110.691406 -8.34375 127.109375 -8.34375 C 157.828125 -8.34375 177.957031 -24.757812 187.5 -57.59375 L 194.640625 -56.40625 C 189.609375 -37.34375 180.535156 -22.515625 167.421875 -11.921875 C 154.316406 -1.328125 134.65625 3.96875 108.4375 3.96875 Z M 83.015625 -110.4375 L 123.9375 -110.4375 L 123.9375 -129.890625 C 123.9375 -151.347656 122.675781 -165.984375 120.15625 -173.796875 C 117.644531 -181.609375 112.613281 -185.515625 105.0625 -185.515625 C 97.519531 -185.515625 91.957031 -181.34375 88.375 -173 C 84.800781 -164.65625 83.015625 -150.285156 83.015625 -129.890625 Z M 83.015625 -110.4375 "/></g></g></g><g fill="rgb(0%, 0%, 0%)" fill-opacity="1"><g transform="translate(3653.954396, 623.991444)"><g><path d="M 2.390625 -297.921875 L 99.703125 -297.921875 L 99.703125 -7.15625 L 121.953125 -7.15625 L 121.953125 0 L 3.96875 0 L 3.96875 -7.15625 L 25.8125 -7.15625 L 25.8125 -290.78125 L 2.390625 -290.78125 Z M 2.390625 -297.921875 "/></g></g></g><g fill="rgb(0%, 0%, 0%)" fill-opacity="1"><g transform="translate(3779.479421, 623.991444)"><g><path d="M 2.390625 -297.921875 L 99.703125 -297.921875 L 99.703125 -7.15625 L 121.953125 -7.15625 L 121.953125 0 L 3.96875 0 L 3.96875 -7.15625 L 25.8125 -7.15625 L 25.8125 -290.78125 L 2.390625 -290.78125 Z M 2.390625 -297.921875 "/></g></g></g><g fill="rgb(0%, 0%, 0%)" fill-opacity="1"><g transform="translate(3905.004446, 623.991444)"><g><path d="M 132.28125 -78.25 L 132.28125 -112.015625 C 132.28125 -137.703125 130.890625 -156.4375 128.109375 -168.21875 C 125.328125 -180.007812 118.90625 -185.90625 108.84375 -185.90625 C 103.019531 -185.90625 98.316406 -184.25 94.734375 -180.9375 C 91.160156 -177.625 88.582031 -172.128906 87 -164.453125 C 84.613281 -152.535156 83.421875 -134.394531 83.421875 -110.03125 L 83.421875 -79.046875 C 83.421875 -50.179688 84.28125 -32.832031 86 -27 C 87.71875 -21.175781 89.503906 -16.414062 91.359375 -12.71875 C 94.273438 -6.351562 99.96875 -3.171875 108.4375 -3.171875 C 118.769531 -3.171875 125.523438 -9.128906 128.703125 -21.046875 C 131.085938 -29.523438 132.28125 -48.59375 132.28125 -78.25 Z M 107.65625 3.96875 C 74.550781 3.96875 49.523438 -4.503906 32.578125 -21.453125 C 15.628906 -38.398438 7.15625 -62.695312 7.15625 -94.34375 C 7.15625 -125.988281 16.222656 -150.351562 34.359375 -167.4375 C 52.503906 -184.519531 77.992188 -193.0625 110.828125 -193.0625 C 143.660156 -193.0625 168.15625 -185.179688 184.3125 -169.421875 C 200.46875 -153.660156 208.546875 -129.628906 208.546875 -97.328125 C 208.546875 -29.796875 174.914062 3.96875 107.65625 3.96875 Z M 107.65625 3.96875 "/></g></g></g><g fill="rgb(0%, 0%, 0%)" fill-opacity="1"><g transform="translate(4120.700913, 623.991444)"><g/></g></g><g fill="rgb(0%, 0%, 0%)" fill-opacity="1"><g transform="translate(4192.202531, 623.991444)"><g><path d="M 70.703125 -70.703125 L 70.703125 -104.875 C 70.703125 -127.644531 66.398438 -154.71875 57.796875 -186.09375 C 49.191406 -217.476562 44.890625 -238.863281 44.890625 -250.25 C 44.890625 -261.644531 48 -269.859375 54.21875 -274.890625 C 60.445312 -279.921875 68.0625 -282.4375 77.0625 -282.4375 C 97.1875 -282.4375 107.25 -271.707031 107.25 -250.25 C 107.25 -237.8125 102.613281 -216.097656 93.34375 -185.109375 C 84.082031 -154.128906 79.453125 -127.25 79.453125 -104.46875 L 79.453125 -70.703125 Z M 73.6875 3.96875 C 63.757812 3.96875 56.34375 1.125 51.4375 -4.5625 C 46.539062 -10.257812 44.09375 -17.410156 44.09375 -26.015625 C 44.09375 -34.617188 46.738281 -41.769531 52.03125 -47.46875 C 57.332031 -53.164062 64.613281 -56.015625 73.875 -56.015625 C 83.144531 -56.015625 90.5625 -53.5625 96.125 -48.65625 C 101.6875 -43.757812 104.46875 -36.546875 104.46875 -27.015625 C 104.46875 -17.484375 101.816406 -9.9375 96.515625 -4.375 C 91.222656 1.1875 83.613281 3.96875 73.6875 3.96875 Z M 73.6875 3.96875 "/></g></g></g><g fill="rgb(0%, 0%, 0%)" fill-opacity="1"><g transform="translate(4341.818747, 623.991444)"><g/></g></g><g fill="rgb(0%, 0%, 0%)" fill-opacity="1"><g transform="translate(2712.109519, 1172.547906)"><g/></g></g><g fill="rgb(0%, 0%, 0%)" fill-opacity="1"><g transform="translate(2783.611137, 1172.547906)"><g/></g></g><g fill="rgb(0%, 0%, 0%)" fill-opacity="1"><g transform="translate(2855.112756, 1172.547906)"><g/></g></g><g fill="rgb(0%, 0%, 0%)" fill-opacity="1"><g transform="translate(2926.614374, 1172.547906)"><g/></g></g><g fill="rgb(0%, 0%, 0%)" fill-opacity="1"><g transform="translate(2998.115993, 1172.547906)"><g/></g></g><g fill="rgb(0%, 0%, 0%)" fill-opacity="1"><g transform="translate(3069.617611, 1172.547906)"><g/></g></g><g fill="rgb(0%, 0%, 0%)" fill-opacity="1"><g transform="translate(3141.11923, 1172.547906)"><g/></g></g><g fill="rgb(0%, 0%, 0%)" fill-opacity="1"><g transform="translate(3212.620848, 1172.547906)"><g/></g></g><g fill="rgb(0%, 0%, 0%)" fill-opacity="1"><g transform="translate(3284.122466, 1172.547906)"><g/></g></g><g fill="rgb(0%, 0%, 0%)" fill-opacity="1"><g transform="translate(3355.624085, 1172.547906)"><g/></g></g><g fill="rgb(0%, 0%, 0%)" fill-opacity="1"><g transform="translate(3427.125703, 1172.547906)"><g/></g></g><g fill="rgb(0%, 0%, 0%)" fill-opacity="1"><g transform="translate(3498.627322, 1172.547906)"><g/></g></g><g fill="rgb(0%, 0%, 0%)" fill-opacity="1"><g transform="translate(3570.12894, 1172.547906)"><g/></g></g><g fill="rgb(0%, 0%, 0%)" fill-opacity="1"><g transform="translate(3641.630558, 1172.547906)"><g/></g></g><g fill="rgb(0%, 0%, 0%)" fill-opacity="1"><g transform="translate(3713.132177, 1172.547906)"><g/></g></g><g fill="rgb(0%, 0%, 0%)" fill-opacity="1"><g transform="translate(3784.633795, 1172.547906)"><g/></g></g><g fill="rgb(0%, 0%, 0%)" fill-opacity="1"><g transform="translate(3856.135414, 1172.547906)"><g/></g></g><g fill="rgb(0%, 0%, 0%)" fill-opacity="1"><g transform="translate(3927.637032, 1172.547906)"><g/></g></g><g fill="rgb(0%, 0%, 0%)" fill-opacity="1"><g transform="translate(3999.13865, 1172.547906)"><g/></g></g><g fill="rgb(0%, 0%, 0%)" fill-opacity="1"><g transform="translate(4070.640269, 1172.547906)"><g/></g></g><g fill="rgb(0%, 0%, 0%)" fill-opacity="1"><g transform="translate(4142.141887, 1172.547906)"><g/></g></g><g fill="rgb(0%, 0%, 0%)" fill-opacity="1"><g transform="translate(4213.546385, 1172.547906)"><g><path d="M 9.9375 -278.0625 L 131.09375 -278.0625 L 131.09375 -270.515625 L 109.234375 -270.515625 L 109.234375 -7.546875 L 131.09375 -7.546875 L 131.09375 0 L 9.9375 0 L 9.9375 -7.546875 L 31.78125 -7.546875 L 31.78125 -270.515625 L 9.9375 -270.515625 Z M 9.9375 -278.0625 "/></g></g></g><g fill="rgb(0%, 0%, 0%)" fill-opacity="1"><g transform="translate(4354.563405, 1172.547906)"><g><path d="M 31.375 -191.0625 L 19.859375 -296.734375 C 30.453125 -302.023438 39.0625 -304.671875 45.6875 -304.671875 C 54.6875 -304.671875 59.1875 -299.773438 59.1875 -289.984375 C 59.1875 -283.890625 57.992188 -275.148438 55.609375 -263.765625 L 39.71875 -191.0625 Z M 31.375 -191.0625 "/></g></g></g><g fill="rgb(0%, 0%, 0%)" fill-opacity="1"><g transform="translate(4428.448397, 1172.547906)"><g><path d="M 3.96875 -189.078125 L 99.703125 -189.078125 L 99.703125 -152.53125 C 108.441406 -179.550781 127.707031 -193.0625 157.5 -193.0625 C 187.289062 -193.0625 205.363281 -178.757812 211.71875 -150.15625 C 220.988281 -178.757812 240.457031 -193.0625 270.125 -193.0625 C 309.050781 -193.0625 328.515625 -170.945312 328.515625 -126.71875 L 328.515625 -7.15625 L 350.765625 -7.15625 L 350.765625 0 L 240.71875 0 L 240.71875 -7.15625 L 254.625 -7.15625 L 254.625 -136.25 C 254.625 -156.375 252.90625 -168.160156 249.46875 -171.609375 C 247.875 -173.191406 245.753906 -173.984375 243.109375 -173.984375 C 235.429688 -173.984375 228.675781 -168.816406 222.84375 -158.484375 C 217.019531 -148.160156 214.109375 -135.054688 214.109375 -119.171875 L 214.109375 -7.15625 L 228.40625 -7.15625 L 228.40625 0 L 126.328125 0 L 126.328125 -7.15625 L 140.21875 -7.15625 L 140.21875 -136.25 C 140.21875 -156.375 138.5 -168.160156 135.0625 -171.609375 C 133.46875 -173.191406 131.347656 -173.984375 128.703125 -173.984375 C 121.285156 -173.984375 114.597656 -168.351562 108.640625 -157.09375 C 102.679688 -145.84375 99.703125 -132.40625 99.703125 -116.78125 L 99.703125 -7.15625 L 114 -7.15625 L 114 0 L 3.96875 0 L 3.96875 -7.15625 L 25.8125 -7.15625 L 25.8125 -181.9375 L 3.96875 -181.9375 Z M 3.96875 -189.078125 "/></g></g></g><g fill="rgb(0%, 0%, 0%)" fill-opacity="1"><g transform="translate(4781.166412, 1172.547906)"><g/></g></g><g fill="rgb(53.329468%, 100%, 100%)" fill-opacity="1"><g transform="translate(3855.625116, 1692.730757)"><g><path d="M 238.734375 -272.5 C 241.117188 -272.5 243.238281 -271.707031 245.09375 -270.125 C 246.6875 -268.269531 247.484375 -266.148438 247.484375 -263.765625 L 247.484375 -8.734375 C 247.484375 -6.347656 246.6875 -4.363281 245.09375 -2.78125 C 243.238281 -0.925781 241.117188 0 238.734375 0 L 201.796875 0 C 199.410156 0 197.425781 -0.925781 195.84375 -2.78125 C 193.988281 -4.363281 193.0625 -6.347656 193.0625 -8.734375 L 193.0625 -178.359375 L 160.484375 -126.71875 C 159.160156 -124.601562 157.304688 -122.75 154.921875 -121.15625 C 152.273438 -119.832031 149.757812 -119.171875 147.375 -119.171875 L 129.890625 -119.171875 C 127.515625 -119.171875 125 -119.832031 122.34375 -121.15625 C 119.957031 -122.75 118.101562 -124.601562 116.78125 -126.71875 L 83.8125 -178.75 L 83.8125 -8.734375 C 83.8125 -6.347656 83.019531 -4.363281 81.4375 -2.78125 C 79.582031 -0.925781 77.460938 0 75.078125 0 L 38.140625 0 C 35.753906 0 33.765625 -0.925781 32.171875 -2.78125 C 30.316406 -4.363281 29.390625 -6.347656 29.390625 -8.734375 L 29.390625 -263.765625 C 29.390625 -266.148438 30.316406 -268.269531 32.171875 -270.125 C 33.765625 -271.707031 35.753906 -272.5 38.140625 -272.5 L 75.078125 -272.5 L 77.859375 -272.109375 C 79.179688 -271.835938 80.503906 -271.175781 81.828125 -270.125 C 84.472656 -268.800781 86.457031 -267.078125 87.78125 -264.953125 L 138.640625 -177.171875 L 189.484375 -264.953125 C 190.804688 -267.078125 192.660156 -268.800781 195.046875 -270.125 L 198.21875 -271.703125 C 199.28125 -272.234375 200.472656 -272.5 201.796875 -272.5 Z M 238.734375 -272.5 "/></g></g></g><g fill="rgb(53.329468%, 100%, 100%)" fill-opacity="1"><g transform="translate(4132.495115, 1692.730757)"><g><path d="M 175.578125 -272.5 C 177.960938 -272.5 180.28125 -271.703125 182.53125 -270.109375 C 184.78125 -268.523438 186.300781 -266.675781 187.09375 -264.5625 L 244.296875 -122.34375 C 245.085938 -120.226562 245.816406 -117.515625 246.484375 -114.203125 C 247.148438 -110.890625 247.484375 -108.046875 247.484375 -105.671875 L 247.484375 -8.734375 C 247.484375 -6.347656 246.617188 -4.296875 244.890625 -2.578125 C 243.171875 -0.859375 241.117188 0 238.734375 0 L 201.390625 0 C 199.015625 0 196.960938 -0.859375 195.234375 -2.578125 C 193.515625 -4.296875 192.65625 -6.347656 192.65625 -8.734375 L 192.65625 -54.421875 L 83.8125 -54.421875 L 83.8125 -8.734375 C 83.8125 -6.347656 82.953125 -4.296875 81.234375 -2.578125 C 79.515625 -0.859375 77.460938 0 75.078125 0 L 38.140625 0 C 35.753906 0 33.695312 -0.859375 31.96875 -2.578125 C 30.25 -4.296875 29.390625 -6.347656 29.390625 -8.734375 L 29.390625 -105.671875 C 29.390625 -108.046875 29.71875 -110.890625 30.375 -114.203125 C 31.039062 -117.515625 31.773438 -120.226562 32.578125 -122.34375 L 89.375 -264.5625 C 90.4375 -266.675781 92.09375 -268.523438 94.34375 -270.109375 C 96.59375 -271.703125 98.910156 -272.5 101.296875 -272.5 Z M 85.796875 -108.84375 L 190.671875 -108.84375 L 146.984375 -218.078125 L 129.5 -218.078125 Z M 85.796875 -108.84375 "/></g></g></g><g fill="rgb(53.329468%, 100%, 100%)" fill-opacity="1"><g transform="translate(4409.365114, 1692.730757)"><g><path d="M 243.5 -7.9375 C 244.5625 -5.820312 244.5625 -3.96875 243.5 -2.375 C 242.445312 -0.789062 240.726562 0 238.34375 0 L 195.84375 0 C 193.457031 0 191.140625 -0.789062 188.890625 -2.375 C 186.640625 -3.96875 184.984375 -5.820312 183.921875 -7.9375 L 138.234375 -108.84375 L 84.21875 -108.84375 L 84.21875 -8.734375 C 84.21875 -6.347656 83.351562 -4.296875 81.625 -2.578125 C 79.90625 -0.859375 77.851562 0 75.46875 0 L 38.140625 0 C 35.753906 0 33.695312 -0.859375 31.96875 -2.578125 C 30.25 -4.296875 29.390625 -6.347656 29.390625 -8.734375 L 29.390625 -263.765625 C 29.390625 -266.148438 30.25 -268.203125 31.96875 -269.921875 C 33.695312 -271.640625 35.753906 -272.5 38.140625 -272.5 L 177.171875 -272.5 C 186.960938 -272.5 196.09375 -270.644531 204.5625 -266.9375 C 213.039062 -263.226562 220.457031 -258.195312 226.8125 -251.84375 C 233.175781 -245.488281 238.210938 -238.070312 241.921875 -229.59375 C 245.628906 -221.125 247.484375 -211.988281 247.484375 -202.1875 L 247.484375 -179.15625 C 247.484375 -171.207031 246.222656 -163.59375 243.703125 -156.3125 C 241.179688 -149.03125 237.671875 -142.410156 233.171875 -136.453125 C 228.671875 -130.492188 223.304688 -125.394531 217.078125 -121.15625 C 210.859375 -116.914062 204.039062 -113.738281 196.625 -111.625 Z M 177.171875 -163.265625 C 181.671875 -163.265625 185.441406 -164.785156 188.484375 -167.828125 C 191.535156 -170.878906 193.0625 -174.65625 193.0625 -179.15625 L 193.0625 -202.1875 C 193.0625 -206.695312 191.535156 -210.472656 188.484375 -213.515625 C 185.441406 -216.554688 181.671875 -218.078125 177.171875 -218.078125 L 84.21875 -218.078125 L 84.21875 -163.265625 Z M 177.171875 -163.265625 "/></g></g></g><g fill="rgb(53.329468%, 100%, 100%)" fill-opacity="1"><g transform="translate(4686.235113, 1692.730757)"><g><path d="M 242.3125 -226.421875 C 242.3125 -224.035156 241.453125 -222.046875 239.734375 -220.453125 C 238.015625 -218.867188 235.960938 -218.078125 233.578125 -218.078125 L 165.640625 -218.078125 L 165.640625 -54.421875 L 233.578125 -54.421875 C 235.960938 -54.421875 238.015625 -53.554688 239.734375 -51.828125 C 241.453125 -50.109375 242.3125 -48.0625 242.3125 -45.6875 L 242.3125 -8.734375 C 242.3125 -6.347656 241.453125 -4.296875 239.734375 -2.578125 C 238.015625 -0.859375 235.960938 0 233.578125 0 L 43.703125 0 C 41.316406 0 39.257812 -0.859375 37.53125 -2.578125 C 35.8125 -4.296875 34.953125 -6.347656 34.953125 -8.734375 L 34.953125 -45.6875 C 34.953125 -48.0625 35.8125 -50.109375 37.53125 -51.828125 C 39.257812 -53.554688 41.316406 -54.421875 43.703125 -54.421875 L 111.21875 -54.421875 L 111.21875 -218.078125 L 43.703125 -218.078125 C 41.316406 -218.078125 39.257812 -218.867188 37.53125 -220.453125 C 35.8125 -222.046875 34.953125 -224.035156 34.953125 -226.421875 L 34.953125 -263.765625 C 34.953125 -266.148438 35.8125 -268.203125 37.53125 -269.921875 C 39.257812 -271.640625 41.316406 -272.5 43.703125 -272.5 L 233.578125 -272.5 C 235.960938 -272.5 238.015625 -271.640625 239.734375 -269.921875 C 241.453125 -268.203125 242.3125 -266.148438 242.3125 -263.765625 Z M 242.3125 -226.421875 "/></g></g></g><g fill="rgb(53.329468%, 100%, 100%)" fill-opacity="1"><g transform="translate(3302.33972, 2241.287218)"><g><path d="M 201.796875 -190.671875 C 199.410156 -190.671875 197.359375 -191.53125 195.640625 -193.25 C 193.921875 -194.976562 193.0625 -197.03125 193.0625 -199.40625 L 193.0625 -202.1875 C 193.0625 -206.695312 191.535156 -210.472656 188.484375 -213.515625 C 185.441406 -216.554688 181.671875 -218.078125 177.171875 -218.078125 L 99.703125 -218.078125 C 95.203125 -218.078125 91.492188 -216.554688 88.578125 -213.515625 C 85.671875 -210.472656 84.21875 -206.695312 84.21875 -202.1875 L 84.21875 -70.3125 C 84.21875 -65.8125 85.671875 -62.035156 88.578125 -58.984375 C 91.492188 -55.941406 95.203125 -54.421875 99.703125 -54.421875 L 177.171875 -54.421875 C 181.671875 -54.421875 185.441406 -55.941406 188.484375 -58.984375 C 191.535156 -62.035156 193.0625 -65.8125 193.0625 -70.3125 L 193.0625 -73.09375 C 193.0625 -75.476562 193.921875 -77.53125 195.640625 -79.25 C 197.359375 -80.96875 199.410156 -81.828125 201.796875 -81.828125 L 238.734375 -81.828125 C 241.117188 -81.828125 243.171875 -80.96875 244.890625 -79.25 C 246.617188 -77.53125 247.484375 -75.476562 247.484375 -73.09375 L 247.484375 -70.3125 C 247.484375 -60.507812 245.628906 -51.367188 241.921875 -42.890625 C 238.210938 -34.421875 233.175781 -27.007812 226.8125 -20.65625 C 220.457031 -14.300781 213.039062 -9.269531 204.5625 -5.5625 C 196.09375 -1.851562 186.960938 0 177.171875 0 L 99.703125 0 C 90.171875 0 81.097656 -1.851562 72.484375 -5.5625 C 63.878906 -9.269531 56.398438 -14.300781 50.046875 -20.65625 C 43.691406 -27.007812 38.660156 -34.421875 34.953125 -42.890625 C 31.242188 -51.367188 29.390625 -60.507812 29.390625 -70.3125 L 29.390625 -202.1875 C 29.390625 -211.988281 31.242188 -221.125 34.953125 -229.59375 C 38.660156 -238.070312 43.691406 -245.488281 50.046875 -251.84375 C 56.398438 -258.195312 63.878906 -263.226562 72.484375 -266.9375 C 81.097656 -270.644531 90.171875 -272.5 99.703125 -272.5 L 177.171875 -272.5 C 186.960938 -272.5 196.09375 -270.644531 204.5625 -266.9375 C 213.039062 -263.226562 220.457031 -258.195312 226.8125 -251.84375 C 233.175781 -245.488281 238.210938 -238.070312 241.921875 -229.59375 C 245.628906 -221.125 247.484375 -211.988281 247.484375 -202.1875 L 247.484375 -199.40625 C 247.484375 -197.03125 246.617188 -194.976562 244.890625 -193.25 C 243.171875 -191.53125 241.117188 -190.671875 238.734375 -190.671875 Z M 201.796875 -190.671875 "/></g></g></g><g fill="rgb(53.329468%, 100%, 100%)" fill-opacity="1"><g transform="translate(3579.209719, 2241.287218)"><g><path d="M 175.578125 -272.5 C 177.960938 -272.5 180.28125 -271.703125 182.53125 -270.109375 C 184.78125 -268.523438 186.300781 -266.675781 187.09375 -264.5625 L 244.296875 -122.34375 C 245.085938 -120.226562 245.816406 -117.515625 246.484375 -114.203125 C 247.148438 -110.890625 247.484375 -108.046875 247.484375 -105.671875 L 247.484375 -8.734375 C 247.484375 -6.347656 246.617188 -4.296875 244.890625 -2.578125 C 243.171875 -0.859375 241.117188 0 238.734375 0 L 201.390625 0 C 199.015625 0 196.960938 -0.859375 195.234375 -2.578125 C 193.515625 -4.296875 192.65625 -6.347656 192.65625 -8.734375 L 192.65625 -54.421875 L 83.8125 -54.421875 L 83.8125 -8.734375 C 83.8125 -6.347656 82.953125 -4.296875 81.234375 -2.578125 C 79.515625 -0.859375 77.460938 0 75.078125 0 L 38.140625 0 C 35.753906 0 33.695312 -0.859375 31.96875 -2.578125 C 30.25 -4.296875 29.390625 -6.347656 29.390625 -8.734375 L 29.390625 -105.671875 C 29.390625 -108.046875 29.71875 -110.890625 30.375 -114.203125 C 31.039062 -117.515625 31.773438 -120.226562 32.578125 -122.34375 L 89.375 -264.5625 C 90.4375 -266.675781 92.09375 -268.523438 94.34375 -270.109375 C 96.59375 -271.703125 98.910156 -272.5 101.296875 -272.5 Z M 85.796875 -108.84375 L 190.671875 -108.84375 L 146.984375 -218.078125 L 129.5 -218.078125 Z M 85.796875 -108.84375 "/></g></g></g><g fill="rgb(53.329468%, 100%, 100%)" fill-opacity="1"><g transform="translate(3856.079718, 2241.287218)"><g><path d="M 243.5 -7.9375 C 244.5625 -5.820312 244.5625 -3.96875 243.5 -2.375 C 242.445312 -0.789062 240.726562 0 238.34375 0 L 195.84375 0 C 193.457031 0 191.140625 -0.789062 188.890625 -2.375 C 186.640625 -3.96875 184.984375 -5.820312 183.921875 -7.9375 L 138.234375 -108.84375 L 84.21875 -108.84375 L 84.21875 -8.734375 C 84.21875 -6.347656 83.351562 -4.296875 81.625 -2.578125 C 79.90625 -0.859375 77.851562 0 75.46875 0 L 38.140625 0 C 35.753906 0 33.695312 -0.859375 31.96875 -2.578125 C 30.25 -4.296875 29.390625 -6.347656 29.390625 -8.734375 L 29.390625 -263.765625 C 29.390625 -266.148438 30.25 -268.203125 31.96875 -269.921875 C 33.695312 -271.640625 35.753906 -272.5 38.140625 -272.5 L 177.171875 -272.5 C 186.960938 -272.5 196.09375 -270.644531 204.5625 -266.9375 C 213.039062 -263.226562 220.457031 -258.195312 226.8125 -251.84375 C 233.175781 -245.488281 238.210938 -238.070312 241.921875 -229.59375 C 245.628906 -221.125 247.484375 -211.988281 247.484375 -202.1875 L 247.484375 -179.15625 C 247.484375 -171.207031 246.222656 -163.59375 243.703125 -156.3125 C 241.179688 -149.03125 237.671875 -142.410156 233.171875 -136.453125 C 228.671875 -130.492188 223.304688 -125.394531 217.078125 -121.15625 C 210.859375 -116.914062 204.039062 -113.738281 196.625 -111.625 Z M 177.171875 -163.265625 C 181.671875 -163.265625 185.441406 -164.785156 188.484375 -167.828125 C 191.535156 -170.878906 193.0625 -174.65625 193.0625 -179.15625 L 193.0625 -202.1875 C 193.0625 -206.695312 191.535156 -210.472656 188.484375 -213.515625 C 185.441406 -216.554688 181.671875 -218.078125 177.171875 -218.078125 L 84.21875 -218.078125 L 84.21875 -163.265625 Z M 177.171875 -163.265625 "/></g></g></g><g fill="rgb(53.329468%, 100%, 100%)" fill-opacity="1"><g transform="translate(4132.949717, 2241.287218)"><g><path d="M 238.734375 -272.5 C 241.117188 -272.5 243.238281 -271.707031 245.09375 -270.125 C 246.6875 -268.269531 247.484375 -266.148438 247.484375 -263.765625 L 247.484375 -8.734375 C 247.484375 -6.347656 246.6875 -4.363281 245.09375 -2.78125 C 243.238281 -0.925781 241.117188 0 238.734375 0 L 201.796875 0 C 199.410156 0 197.425781 -0.925781 195.84375 -2.78125 C 193.988281 -4.363281 193.0625 -6.347656 193.0625 -8.734375 L 193.0625 -178.359375 L 160.484375 -126.71875 C 159.160156 -124.601562 157.304688 -122.75 154.921875 -121.15625 C 152.273438 -119.832031 149.757812 -119.171875 147.375 -119.171875 L 129.890625 -119.171875 C 127.515625 -119.171875 125 -119.832031 122.34375 -121.15625 C 119.957031 -122.75 118.101562 -124.601562 116.78125 -126.71875 L 83.8125 -178.75 L 83.8125 -8.734375 C 83.8125 -6.347656 83.019531 -4.363281 81.4375 -2.78125 C 79.582031 -0.925781 77.460938 0 75.078125 0 L 38.140625 0 C 35.753906 0 33.765625 -0.925781 32.171875 -2.78125 C 30.316406 -4.363281 29.390625 -6.347656 29.390625 -8.734375 L 29.390625 -263.765625 C 29.390625 -266.148438 30.316406 -268.269531 32.171875 -270.125 C 33.765625 -271.707031 35.753906 -272.5 38.140625 -272.5 L 75.078125 -272.5 L 77.859375 -272.109375 C 79.179688 -271.835938 80.503906 -271.175781 81.828125 -270.125 C 84.472656 -268.800781 86.457031 -267.078125 87.78125 -264.953125 L 138.640625 -177.171875 L 189.484375 -264.953125 C 190.804688 -267.078125 192.660156 -268.800781 195.046875 -270.125 L 198.21875 -271.703125 C 199.28125 -272.234375 200.472656 -272.5 201.796875 -272.5 Z M 238.734375 -272.5 "/></g></g></g><g fill="rgb(53.329468%, 100%, 100%)" fill-opacity="1"><g transform="translate(4409.819716, 2241.287218)"><g><path d="M 243.109375 -226.421875 C 243.109375 -224.035156 242.3125 -222.046875 240.71875 -220.453125 C 239.132812 -218.867188 237.148438 -218.078125 234.765625 -218.078125 L 87.78125 -218.078125 L 87.78125 -163.265625 L 220.859375 -163.265625 C 223.242188 -163.265625 225.296875 -162.46875 227.015625 -160.875 C 228.734375 -159.289062 229.59375 -157.304688 229.59375 -154.921875 L 229.59375 -117.578125 C 229.59375 -115.191406 228.734375 -113.140625 227.015625 -111.421875 C 225.296875 -109.703125 223.242188 -108.84375 220.859375 -108.84375 L 87.78125 -108.84375 L 87.78125 -54.421875 L 234.765625 -54.421875 C 237.148438 -54.421875 239.132812 -53.554688 240.71875 -51.828125 C 242.3125 -50.109375 243.109375 -48.0625 243.109375 -45.6875 L 243.109375 -8.734375 C 243.109375 -6.347656 242.3125 -4.296875 240.71875 -2.578125 C 239.132812 -0.859375 237.148438 0 234.765625 0 L 41.703125 0 C 39.328125 0 37.34375 -0.859375 35.75 -2.578125 C 34.164062 -4.296875 33.375 -6.347656 33.375 -8.734375 L 33.375 -263.765625 C 33.375 -266.148438 34.164062 -268.203125 35.75 -269.921875 C 37.34375 -271.640625 39.328125 -272.5 41.703125 -272.5 L 234.765625 -272.5 C 237.148438 -272.5 239.132812 -271.640625 240.71875 -269.921875 C 242.3125 -268.203125 243.109375 -266.148438 243.109375 -263.765625 Z M 243.109375 -226.421875 "/></g></g></g><g fill="rgb(53.329468%, 100%, 100%)" fill-opacity="1"><g transform="translate(4686.292551, 2241.287218)"><g><path d="M 192.65625 -263.765625 C 192.65625 -266.148438 193.515625 -268.203125 195.234375 -269.921875 C 196.960938 -271.640625 199.015625 -272.5 201.390625 -272.5 L 238.734375 -272.5 C 241.117188 -272.5 243.171875 -271.640625 244.890625 -269.921875 C 246.617188 -268.203125 247.484375 -266.148438 247.484375 -263.765625 L 247.484375 -8.734375 C 247.484375 -6.347656 246.617188 -4.296875 244.890625 -2.578125 C 243.171875 -0.859375 241.117188 0 238.734375 0 L 201.390625 0 C 199.015625 0 196.960938 -0.859375 195.234375 -2.578125 C 193.515625 -4.296875 192.65625 -6.347656 192.65625 -8.734375 L 192.65625 -101.6875 L 83.8125 -199.40625 L 83.8125 -8.734375 C 83.8125 -6.347656 82.953125 -4.296875 81.234375 -2.578125 C 79.515625 -0.859375 77.460938 0 75.078125 0 L 38.140625 0 C 35.753906 0 33.695312 -0.859375 31.96875 -2.578125 C 30.25 -4.296875 29.390625 -6.347656 29.390625 -8.734375 L 29.390625 -263.765625 C 29.390625 -266.148438 30.25 -268.203125 31.96875 -269.921875 C 33.695312 -271.640625 35.753906 -272.5 38.140625 -272.5 L 75.078125 -272.5 C 77.460938 -272.5 80.109375 -271.898438 83.015625 -270.703125 C 85.929688 -269.515625 88.316406 -268.128906 90.171875 -266.546875 L 192.65625 -174.78125 Z M 192.65625 -263.765625 "/></g></g></g><g fill="rgb(0%, 0%, 0%)" fill-opacity="1"><g transform="translate(1313.037996, 1409.824169)"><g><path d="M 6.9375 -15.859375 L 34.546875 -15.859375 L 34.546875 -136.078125 L 6.9375 -136.078125 L 6.9375 -151.9375 L 60.609375 -154.34375 L 64.140625 -123.46875 C 66.023438 -129.039062 68.757812 -134.019531 72.34375 -138.40625 C 75.9375 -142.800781 80 -146.269531 84.53125 -148.8125 C 93.21875 -153.625 102.375 -156.03125 112 -156.03125 C 115.675781 -156.03125 118.789062 -155.863281 121.34375 -155.53125 C 123.894531 -155.207031 126.773438 -154.523438 129.984375 -153.484375 C 133.566406 -152.253906 136.65625 -150.601562 139.25 -148.53125 C 141.851562 -146.457031 144.378906 -143.53125 146.828125 -139.75 C 149.191406 -135.976562 151.175781 -131.351562 152.78125 -125.875 C 157.21875 -135.976562 163.375 -143.53125 171.25 -148.53125 C 179.132812 -153.53125 188.082031 -156.03125 198.09375 -156.03125 C 201.300781 -156.03125 204.15625 -155.890625 206.65625 -155.609375 C 209.15625 -155.328125 211.914062 -154.710938 214.9375 -153.765625 C 218.332031 -152.734375 221.328125 -151.414062 223.921875 -149.8125 C 226.523438 -148.207031 229.195312 -146.035156 231.9375 -143.296875 C 234.757812 -140.367188 237.066406 -137.039062 238.859375 -133.3125 C 240.660156 -129.582031 242.175781 -124.976562 243.40625 -119.5 C 244.53125 -114.03125 245.09375 -107.847656 245.09375 -100.953125 L 245.09375 -15.859375 L 271.15625 -15.859375 L 271.15625 0 L 191.71875 0 L 191.71875 -15.859375 L 214.65625 -15.859375 L 214.65625 -100.671875 C 214.65625 -112.660156 212.296875 -121.648438 207.578125 -127.640625 C 202.859375 -133.640625 196.203125 -136.640625 187.609375 -136.640625 C 181.097656 -136.640625 175.4375 -135.222656 170.625 -132.390625 C 165.8125 -129.554688 162.128906 -125.640625 159.578125 -120.640625 C 157.023438 -115.640625 155.75 -109.925781 155.75 -103.5 L 155.75 -15.859375 L 180.109375 -15.859375 L 180.109375 0 L 100.953125 0 L 100.953125 -15.859375 L 125.3125 -15.859375 L 125.3125 -100.671875 C 125.3125 -112.660156 122.953125 -121.648438 118.234375 -127.640625 C 113.515625 -133.640625 106.859375 -136.640625 98.265625 -136.640625 C 92.984375 -136.640625 88.285156 -135.625 84.171875 -133.59375 C 80.066406 -131.5625 76.789062 -128.847656 74.34375 -125.453125 C 72.070312 -122.242188 70.203125 -118.253906 68.734375 -113.484375 C 67.273438 -108.722656 66.265625 -103.835938 65.703125 -98.828125 C 65.222656 -93.453125 64.984375 -88.164062 64.984375 -82.96875 L 64.984375 -15.859375 L 89.34375 -15.859375 L 89.34375 0 L 6.9375 0 Z M 6.9375 -15.859375 "/></g></g></g><g fill="rgb(0%, 0%, 0%)" fill-opacity="1"><g transform="translate(1586.133557, 1409.824169)"><g><path d="M 83.828125 3.828125 C 73.816406 3.828125 64.300781 2.035156 55.28125 -1.546875 C 46.269531 -5.140625 38.460938 -10.238281 31.859375 -16.84375 C 25.160156 -23.457031 19.921875 -31.648438 16.140625 -41.421875 C 12.367188 -51.191406 10.484375 -61.738281 10.484375 -73.0625 C 10.484375 -84.007812 12.132812 -94.390625 15.4375 -104.203125 C 18.738281 -114.023438 23.503906 -122.851562 29.734375 -130.6875 C 36.054688 -138.613281 44.195312 -144.816406 54.15625 -149.296875 C 64.113281 -153.785156 75.132812 -156.03125 87.21875 -156.03125 C 94.113281 -156.03125 101.03125 -155.015625 107.96875 -152.984375 C 114.90625 -150.960938 121.300781 -148.015625 127.15625 -144.140625 C 133.289062 -140.078125 138.171875 -134.765625 141.796875 -128.203125 C 145.429688 -121.648438 147.25 -114.410156 147.25 -106.484375 C 147.25 -102.609375 146.351562 -98.898438 144.5625 -95.359375 C 142.769531 -91.816406 140.175781 -88.960938 136.78125 -86.796875 C 133.382812 -84.628906 129.46875 -83.546875 125.03125 -83.546875 C 118.800781 -83.546875 113.609375 -85.382812 109.453125 -89.0625 C 105.296875 -92.738281 103.21875 -97.550781 103.21875 -103.5 C 103.21875 -109.445312 105.316406 -114.164062 109.515625 -117.65625 C 113.722656 -121.15625 118.894531 -122.90625 125.03125 -122.90625 C 121.820312 -128.09375 117.335938 -132.242188 111.578125 -135.359375 C 105.816406 -138.472656 99.347656 -140.03125 92.171875 -140.03125 C 84.148438 -140.03125 76.859375 -138.257812 70.296875 -134.71875 C 63.734375 -131.1875 58.472656 -126.351562 54.515625 -120.21875 C 50.640625 -114.269531 47.6875 -107.632812 45.65625 -100.3125 C 43.632812 -93 42.625 -85.472656 42.625 -77.734375 C 42.625 -65.648438 44.507812 -55.21875 48.28125 -46.4375 C 52.0625 -37.664062 57.515625 -30.914062 64.640625 -26.1875 C 71.765625 -21.46875 80.285156 -19.109375 90.203125 -19.109375 C 95.765625 -19.109375 101.210938 -20.265625 106.546875 -22.578125 C 111.878906 -24.890625 116.484375 -27.9375 120.359375 -31.71875 C 123.941406 -35.300781 126.957031 -38.910156 129.40625 -42.546875 C 131.863281 -46.179688 133.566406 -49.507812 134.515625 -52.53125 L 150.515625 -47.296875 C 148.054688 -36.910156 143.804688 -27.894531 137.765625 -20.25 C 131.722656 -12.601562 124.125 -6.675781 114.96875 -2.46875 C 105.8125 1.726562 95.429688 3.828125 83.828125 3.828125 Z M 83.828125 3.828125 "/></g></g></g><g fill="rgb(0%, 0%, 0%)" fill-opacity="1"><g transform="translate(1528.795655, 1807.05471)"><g/></g></g><g fill="rgb(53.329468%, 100%, 100%)" fill-opacity="1"><g transform="translate(1186.445475, 1670.364791)"><g><path d="M 31.46875 0 C 29.5 0 27.804688 -0.707031 26.390625 -2.125 C 24.972656 -3.550781 24.265625 -5.25 24.265625 -7.21875 L 24.265625 -217.671875 C 24.265625 -219.640625 24.972656 -221.332031 26.390625 -222.75 C 27.804688 -224.164062 29.5 -224.875 31.46875 -224.875 L 146.203125 -224.875 C 154.066406 -224.875 161.550781 -223.34375 168.65625 -220.28125 C 175.757812 -217.226562 181.929688 -213.078125 187.171875 -207.828125 C 192.421875 -202.585938 196.578125 -196.46875 199.640625 -189.46875 C 202.703125 -182.476562 204.234375 -174.941406 204.234375 -166.859375 L 204.234375 -58.015625 C 204.234375 -49.929688 202.703125 -42.390625 199.640625 -35.390625 C 196.578125 -28.398438 192.421875 -22.28125 187.171875 -17.03125 C 181.929688 -11.789062 175.757812 -7.640625 168.65625 -4.578125 C 161.550781 -1.523438 154.066406 0 146.203125 0 Z M 69.171875 -44.90625 L 146.203125 -44.90625 C 149.921875 -44.90625 152.976562 -46.160156 155.375 -48.671875 C 157.78125 -51.191406 158.984375 -54.304688 158.984375 -58.015625 L 158.984375 -166.859375 C 158.984375 -170.566406 157.78125 -173.675781 155.375 -176.1875 C 152.976562 -178.707031 149.921875 -179.96875 146.203125 -179.96875 L 69.171875 -179.96875 Z M 69.171875 -44.90625 "/></g></g></g><g fill="rgb(53.329468%, 100%, 100%)" fill-opacity="1"><g transform="translate(1414.904355, 1670.364791)"><g><path d="M 200.625 -186.859375 C 200.625 -184.890625 199.96875 -183.25 198.65625 -181.9375 C 197.34375 -180.625 195.703125 -179.96875 193.734375 -179.96875 L 72.453125 -179.96875 L 72.453125 -134.734375 L 182.265625 -134.734375 C 184.234375 -134.734375 185.925781 -134.078125 187.34375 -132.765625 C 188.757812 -131.453125 189.46875 -129.8125 189.46875 -127.84375 L 189.46875 -97.03125 C 189.46875 -95.0625 188.757812 -93.367188 187.34375 -91.953125 C 185.925781 -90.535156 184.234375 -89.828125 182.265625 -89.828125 L 72.453125 -89.828125 L 72.453125 -44.90625 L 193.734375 -44.90625 C 195.703125 -44.90625 197.34375 -44.195312 198.65625 -42.78125 C 199.96875 -41.363281 200.625 -39.671875 200.625 -37.703125 L 200.625 -7.21875 C 200.625 -5.25 199.96875 -3.550781 198.65625 -2.125 C 197.34375 -0.707031 195.703125 0 193.734375 0 L 34.421875 0 C 32.453125 0 30.8125 -0.707031 29.5 -2.125 C 28.1875 -3.550781 27.53125 -5.25 27.53125 -7.21875 L 27.53125 -217.671875 C 27.53125 -219.640625 28.1875 -221.332031 29.5 -222.75 C 30.8125 -224.164062 32.453125 -224.875 34.421875 -224.875 L 193.734375 -224.875 C 195.703125 -224.875 197.34375 -224.164062 198.65625 -222.75 C 199.96875 -221.332031 200.625 -219.640625 200.625 -217.671875 Z M 200.625 -186.859375 "/></g></g></g><g fill="rgb(53.329468%, 100%, 100%)" fill-opacity="1"><g transform="translate(1643.035491, 1670.364791)"><g><path d="M 144.5625 0 L 83.59375 0 C 81.625 0 79.65625 -0.65625 77.6875 -1.96875 C 75.71875 -3.28125 74.40625 -4.8125 73.75 -6.5625 L 26.875 -123.90625 C 26 -125.65625 25.34375 -127.894531 24.90625 -130.625 C 24.476562 -133.363281 24.265625 -135.71875 24.265625 -137.6875 L 24.265625 -217.671875 C 24.265625 -219.640625 24.914062 -221.332031 26.21875 -222.75 C 27.53125 -224.164062 29.171875 -224.875 31.140625 -224.875 L 61.953125 -224.875 C 63.921875 -224.875 65.613281 -224.164062 67.03125 -222.75 C 68.457031 -221.332031 69.171875 -219.640625 69.171875 -217.671875 L 69.171875 -146.203125 C 69.171875 -144.234375 69.390625 -141.9375 69.828125 -139.3125 C 70.265625 -136.695312 70.921875 -134.515625 71.796875 -132.765625 L 106.859375 -44.90625 L 121.296875 -44.90625 L 156.359375 -132.765625 C 157.234375 -134.515625 157.890625 -136.695312 158.328125 -139.3125 C 158.765625 -141.9375 158.984375 -144.234375 158.984375 -146.203125 L 158.984375 -217.671875 C 158.984375 -219.640625 159.691406 -221.332031 161.109375 -222.75 C 162.535156 -224.164062 164.234375 -224.875 166.203125 -224.875 L 197.015625 -224.875 C 198.984375 -224.875 200.625 -224.164062 201.9375 -222.75 C 203.25 -221.332031 203.90625 -219.640625 203.90625 -217.671875 L 203.90625 -137.6875 C 203.90625 -135.71875 203.6875 -133.363281 203.25 -130.625 C 202.8125 -127.894531 202.15625 -125.65625 201.28125 -123.90625 L 154.40625 -6.5625 C 153.75 -4.8125 152.4375 -3.28125 150.46875 -1.96875 C 148.5 -0.65625 146.53125 0 144.5625 0 Z M 144.5625 0 "/></g></g></g><g fill="rgb(53.329468%, 100%, 100%)" fill-opacity="1"><g transform="translate(1528.849926, 2029.763852)"><g/></g></g></svg>